<?xml version="1.0" standalone="no"?>
<!DOCTYPE svg PUBLIC "-//W3C//DTD SVG 20010904//EN"
 "http://www.w3.org/TR/2001/REC-SVG-20010904/DTD/svg10.dtd">
<svg version="1.0" xmlns="http://www.w3.org/2000/svg"
 width="74.000000pt" height="74.000000pt" viewBox="0 0 74.000000 74.000000"
 preserveAspectRatio="xMidYMid meet">
<metadata>
Created by potrace 1.14, written by Peter Selinger 2001-2017
</metadata>
<g transform="translate(0.000000,74.000000) scale(0.100000,-0.100000)"
fill="#000000" stroke="none">
<path d="M280 485 l0 -145 60 0 60 0 0 -85 0 -85 -145 0 -145 0 0 85 0 85 60
0 60 0 0 30 0 30 -90 0 -90 0 0 -145 0 -145 205 0 205 0 0 145 0 145 -60 0
-60 0 0 85 0 85 145 0 145 0 0 -85 0 -85 -55 0 c-54 0 -55 0 -55 -30 l0 -30
85 0 85 0 0 145 0 145 -205 0 -205 0 0 -145z"/>
</g>
</svg>
