<?xml version="1.0" standalone="no"?>
<!DOCTYPE svg PUBLIC "-//W3C//DTD SVG 20010904//EN"
 "http://www.w3.org/TR/2001/REC-SVG-20010904/DTD/svg10.dtd">
<svg version="1.0" xmlns="http://www.w3.org/2000/svg"
 width="403.000000pt" height="403.000000pt" viewBox="0 0 403.000000 403.000000"
 preserveAspectRatio="xMidYMid meet">
<metadata>
Created by potrace 1.14, written by Peter Selinger 2001-2017
</metadata>
<g transform="translate(0.000000,403.000000) scale(0.100000,-0.100000)"
fill="#000000" stroke="none">
<path d="M1557 3433 c-2 -5 -4 -348 -3 -763 l1 -755 290 -2 c160 -1 298 -3
308 -3 16 0 17 -29 17 -465 l0 -465 -773 0 -772 0 -1 465 -1 465 46 0 c25 0
164 1 308 1 l262 1 3 106 c2 59 2 126 0 150 l-3 42 -453 0 -454 0 -3 -22 c-2
-13 -4 -356 -4 -763 l1 -740 1070 -3 1070 -2 0 762 -1 763 -307 3 -308 2 0
465 0 465 773 0 772 0 0 -465 0 -465 -292 0 c-188 0 -293 -4 -294 -10 0 -5 -1
-72 -2 -147 l0 -138 441 -2 c342 -2 442 0 443 10 0 15 0 1487 0 1505 -1 9
-221 12 -1065 12 -586 0 -1067 -3 -1069 -7z"/>
</g>
</svg>
