<svg id="Banas_Stones_element" data-name="Banas Stones element" xmlns="http://www.w3.org/2000/svg" width="264.018" height="33.587" viewBox="0 0 264.018 33.587">
  <g id="Banas_Stones_grey" data-name="Banas Stones grey" opacity="0.75">
    <path id="Контур_1761" data-name="Контур 1761" d="M1230.479,525.276l-.292.957h.594Zm0,0-.292.957h.594Zm0,0-.292.957h.594Zm0,0-.292.957h.594Zm0,0-.292.957h.594Zm0,0-.292.957h.594Zm0,0-.292.957h.594Zm17.906.062a.558.558,0,0,0-.815,0,.887.887,0,0,0-.151.55.967.967,0,0,0,.151.612.478.478,0,0,0,.408.177.487.487,0,0,0,.16,0,1.191,1.191,0,0,0-.328-.186l.133-.293a.655.655,0,0,1,.168.044l.231.151.1.062a1.145,1.145,0,0,0,.1-.523A.885.885,0,0,0,1248.385,525.339Zm0,0a.558.558,0,0,0-.815,0,.887.887,0,0,0-.151.55.967.967,0,0,0,.151.612.478.478,0,0,0,.408.177.487.487,0,0,0,.16,0,1.191,1.191,0,0,0-.328-.186l.133-.293a.655.655,0,0,1,.168.044l.231.151.1.062a1.145,1.145,0,0,0,.1-.523A.885.885,0,0,0,1248.385,525.339Zm-17.906-.062-.292.957h.594Zm0,0-.292.957h.594Zm17.906.062a.558.558,0,0,0-.815,0,.887.887,0,0,0-.151.55.967.967,0,0,0,.151.612.478.478,0,0,0,.408.177.487.487,0,0,0,.16,0,1.191,1.191,0,0,0-.328-.186l.133-.293a.655.655,0,0,1,.168.044l.231.151.1.062a1.145,1.145,0,0,0,.1-.523A.885.885,0,0,0,1248.385,525.339Zm5.567-.062-.292.957h.585Zm0,0-.292.957h.585Zm-5.567.062a.558.558,0,0,0-.815,0,.887.887,0,0,0-.151.55.967.967,0,0,0,.151.612.478.478,0,0,0,.408.177.487.487,0,0,0,.16,0,1.191,1.191,0,0,0-.328-.186l.133-.293a.655.655,0,0,1,.168.044l.231.151.1.062a1.145,1.145,0,0,0,.1-.523A.885.885,0,0,0,1248.385,525.339Zm-17.906-.062-.292.957h.594Zm0,0-.292.957h.594Zm17.906.062a.558.558,0,0,0-.815,0,.887.887,0,0,0-.151.55.967.967,0,0,0,.151.612.478.478,0,0,0,.408.177.487.487,0,0,0,.16,0,1.191,1.191,0,0,0-.328-.186l.133-.293a.655.655,0,0,1,.168.044l.231.151.1.062a1.145,1.145,0,0,0,.1-.523A.885.885,0,0,0,1248.385,525.339Zm5.567-.062-.292.957h.585Zm0,0-.292.957h.585Zm-5.567.062a.558.558,0,0,0-.815,0,.887.887,0,0,0-.151.55.967.967,0,0,0,.151.612.478.478,0,0,0,.408.177.487.487,0,0,0,.16,0,1.191,1.191,0,0,0-.328-.186l.133-.293a.655.655,0,0,1,.168.044l.231.151.1.062a1.145,1.145,0,0,0,.1-.523A.885.885,0,0,0,1248.385,525.339Zm-17.906-.062-.292.957h.594ZM1266.2,523.5H1224.07v5.044h43.294v-4.734c-.31-.514-.807-.328-1.161-.328Zm-37.453,3.368a.886.886,0,0,1-.4.328,1.5,1.5,0,0,1-.639.115,1.329,1.329,0,0,1-.948-.266,1.046,1.046,0,0,1-.293-.665h.78a.631.631,0,0,0,.106.293.444.444,0,0,0,.364.16.381.381,0,0,0,.275-.089.23.23,0,0,0,0-.372,1.036,1.036,0,0,0-.417-.16,1.772,1.772,0,0,1-.771-.319.648.648,0,0,1-.239-.514.7.7,0,0,1,.124-.39.779.779,0,0,1,.354-.293,1.863,1.863,0,0,1,.656-.1,1.346,1.346,0,0,1,.78.186.825.825,0,0,1,.319.6l-.78.053a.415.415,0,0,0-.124-.266.444.444,0,0,0-.275-.08.293.293,0,0,0-.213.062.153.153,0,0,0-.018.257.612.612,0,0,0,.275.1,3.61,3.61,0,0,1,.78.24.883.883,0,0,1,.337.292.771.771,0,0,1,.106.4.814.814,0,0,1-.142.408Zm2.331.4-.133-.443h-.94l-.124.443H1229l1-2.659h.886l1,2.659Zm3.165-2.1h-1.206v.47h1.028v.541h-1.028v1.09h-.833v-2.659h2.039Zm2.659,2.1h-2.251v-2.659h2.207v.567h-1.33v.425h1.285v.541h-1.285v.532h1.427Zm2.757-2.012h-.886v2.012h-.825v-2.012h-.833V524.6h2.5Zm1.968.886v1.117h-.78v-1.117l-1.037-1.551h.886l.541.887.541-.887h.886Zm3.431.425h-1.073V526h1.073Zm4.131.993a3.437,3.437,0,0,1-.337-.2l-.239-.168a1.852,1.852,0,0,1-.683.115,1.267,1.267,0,0,1-1.374-1.374,1.392,1.392,0,0,1,.363-1.019,1.33,1.33,0,0,1,1.011-.363,1.392,1.392,0,0,1,1.028.355,1.373,1.373,0,0,1,.363,1.019,1.445,1.445,0,0,1-.292.948l.2.133.186.089Zm3.129-1.383a1.2,1.2,0,0,1-.071.443.885.885,0,0,1-.23.372.928.928,0,0,1-.328.222,1.6,1.6,0,0,1-.576.089h-.426a1.189,1.189,0,0,1-.39-.106,1.113,1.113,0,0,1-.284-.231.886.886,0,0,1-.168-.31,1.517,1.517,0,0,1-.08-.452V524.62h.824v1.622a.47.47,0,0,0,.115.346.48.48,0,0,0,.337.124.46.46,0,0,0,.337-.124.469.469,0,0,0,.124-.346V524.62h.816Zm2.2,1.081-.133-.443h-.94l-.133.443h-.833l1-2.659h.886l1,2.659Zm3.236,0h-2.11V524.6h.824V526.6h1.285Zm1.232,0h-.824V524.6h.824Zm2.907-2.012h-.886v2.012h-.824V525.25h-.718v-.656h2.5Zm1.968.886v1.117h-.824v-1.117L1262,524.585h.887l.541.886.541-.886h.887Zm-10.238.1h.585l-.292-.957Zm-5.691-1.073a.523.523,0,0,0-.4.177.887.887,0,0,0-.151.55.968.968,0,0,0,.151.612.479.479,0,0,0,.408.177.487.487,0,0,0,.16,0,1.193,1.193,0,0,0-.328-.186l.133-.292a.66.66,0,0,1,.168.044l.231.151.1.062a1.143,1.143,0,0,0,.1-.523.886.886,0,0,0-.151-.576.522.522,0,0,0-.407-.2Zm-17.72,1.073h.594l-.3-.957Zm.292-.957-.292.957h.594Zm17.906.062a.559.559,0,0,0-.816,0,.887.887,0,0,0-.151.55.966.966,0,0,0,.151.612.479.479,0,0,0,.408.177.491.491,0,0,0,.16,0,1.192,1.192,0,0,0-.328-.186l.133-.293a.657.657,0,0,1,.169.044l.23.151.1.062a1.145,1.145,0,0,0,.1-.523.886.886,0,0,0-.177-.594Zm5.567-.062-.293.957h.585Zm0,0-.293.957h.585Zm-5.567.062a.559.559,0,0,0-.816,0,.887.887,0,0,0-.151.55.966.966,0,0,0,.151.612.479.479,0,0,0,.408.177.491.491,0,0,0,.16,0,1.192,1.192,0,0,0-.328-.186l.133-.293a.657.657,0,0,1,.169.044l.23.151.1.062a1.145,1.145,0,0,0,.1-.523.886.886,0,0,0-.177-.594Zm-17.906-.062-.292.957h.594Zm0,0-.292.957h.594Zm17.906.062a.559.559,0,0,0-.816,0,.887.887,0,0,0-.151.55.966.966,0,0,0,.151.612.479.479,0,0,0,.408.177.491.491,0,0,0,.16,0,1.192,1.192,0,0,0-.328-.186l.133-.293a.657.657,0,0,1,.169.044l.23.151.1.062a1.145,1.145,0,0,0,.1-.523.886.886,0,0,0-.177-.594Zm5.567-.062-.293.957h.585Zm0,0-.293.957h.585Zm-5.567.062a.559.559,0,0,0-.816,0,.887.887,0,0,0-.151.55.966.966,0,0,0,.151.612.479.479,0,0,0,.408.177.491.491,0,0,0,.16,0,1.192,1.192,0,0,0-.328-.186l.133-.293a.657.657,0,0,1,.169.044l.23.151.1.062a1.145,1.145,0,0,0,.1-.523.886.886,0,0,0-.177-.594Zm-17.906-.062-.292.957h.594Zm0,0-.292.957h.594Zm17.906.062a.559.559,0,0,0-.816,0,.887.887,0,0,0-.151.55.966.966,0,0,0,.151.612.479.479,0,0,0,.408.177.491.491,0,0,0,.16,0,1.192,1.192,0,0,0-.328-.186l.133-.293a.657.657,0,0,1,.169.044l.23.151.1.062a1.145,1.145,0,0,0,.1-.523.886.886,0,0,0-.177-.594Zm0,0a.559.559,0,0,0-.816,0,.887.887,0,0,0-.151.55.966.966,0,0,0,.151.612.479.479,0,0,0,.408.177.491.491,0,0,0,.16,0,1.192,1.192,0,0,0-.328-.186l.133-.293a.657.657,0,0,1,.169.044l.23.151.1.062a1.145,1.145,0,0,0,.1-.523.886.886,0,0,0-.177-.594Zm-17.906-.062-.292.957h.594Zm0,0-.292.957h.594Zm0,0-.292.957h.594Zm0,0-.292.957h.594Zm0,0-.292.957h.594Zm0,0-.292.957h.594Zm0,0-.292.957h.594Z" transform="translate(-1223.984 -494.96)" fill="#818181"/>
    <path id="Контур_1762" data-name="Контур 1762" d="M1270.046,505.75V518.1h-7.313a12.972,12.972,0,0,1-1.72-1.773c-.736-1.055-1.853-1.773-2.491-2.872a1.209,1.209,0,0,0-.151-.151c-1.365-1.436-2.792-2.828-4.087-4.335-.957-1.108-2-2.128-3-3.182-.585-.629-1.117-1.312-1.72-2.021V491.31h7.322c1.064,1.135,2.234,2.278,3.271,3.546.505.621,1.1,1.144,1.578,1.773.745.966,1.7,1.773,2.447,2.659.5.629,1.073,1.161,1.6,1.773s.886.993,1.276,1.48.886.886,1.285,1.463A16.766,16.766,0,0,0,1270.046,505.75Z" transform="translate(-1226.878 -491.31)" fill="#818181"/>
    <path id="Контур_1763" data-name="Контур 1763" d="M1233.517,491.31v26.806H1224V492.365c0-.372-.151-.789.3-1.055Z" transform="translate(-1223.973 -491.31)" fill="#818181"/>
    <path id="Контур_1764" data-name="Контур 1764" d="M1245.69,491.31v12.827h-9.45V491.576l.266-.266Z" transform="translate(-1225.366 -491.31)" fill="#818181"/>
    <path id="Контур_1765" data-name="Контур 1765" d="M1245.719,509.607v10.336h-9.511V508.269c0-.328-.16-.727.4-.948h8.864a1.6,1.6,0,0,1,.222.523A12.926,12.926,0,0,1,1245.719,509.607Z" transform="translate(-1225.36 -493.128)" fill="#818181"/>
    <path id="Контур_1766" data-name="Контур 1766" d="M1261.04,519.992h-11.4V507.67c.177.089.319.106.39.2,1.153,1.206,2.358,2.376,3.422,3.661.461.559.957,1.081,1.445,1.6,1.037,1.126,2.154,2.181,3.112,3.369.682.886,1.472,1.569,2.181,2.367C1260.455,519.194,1260.7,519.557,1261.04,519.992Z" transform="translate(-1226.887 -493.168)" fill="#818181"/>
    <path id="Контур_1767" data-name="Контур 1767" d="M1271.2,503.829c-.222-.2-.364-.355-.523-.514l-.523-.523a5.226,5.226,0,0,1-.443-.443c-.151-.177-.408-.284-.39-.585,0-.071-.142-.151-.213-.222q-1.489-1.613-2.987-3.2c-1.037-1.117-2.154-2.181-3.111-3.368-.612-.762-1.321-1.409-1.959-2.136-.417-.47-.8-.984-1.232-1.507h11.311C1271.282,492.19,1271.335,500,1271.2,503.829Z" transform="translate(-1228.043 -491.312)" fill="#818181"/>
    <path id="Контур_1768" data-name="Контур 1768" d="M1519.87,504.11Z" transform="translate(-1257.572 -492.763)" fill="#818181"/>
    <path id="Контур_1769" data-name="Контур 1769" d="M1521.018,500.513v2.58a5.984,5.984,0,0,1-.886.886,2.872,2.872,0,0,1-4.2.239,3.1,3.1,0,0,1-.479-4.228c1.055-1.4,2.579-1.551,4.264-.417l-.275.319a8.863,8.863,0,0,0-2.074-.275,1.773,1.773,0,0,0-1.64,1.684,2.34,2.34,0,0,0,1.206,2.659,2.083,2.083,0,0,0,1.374.31h.124l.106-.044a1.162,1.162,0,0,0,.292-.186h0l.1-.1v-.1a.344.344,0,0,0,.071-.089.085.085,0,0,1,0-.044l.115-.2h.044l.062-.044.062-.044h.115a1.76,1.76,0,0,0,.292-.284v-.222l.053-.106v-.044c.027-.078.051-.158.071-.239,0,0,0-.053,0-.08a.691.691,0,0,0,0-.133v-.089a7.422,7.422,0,0,0-.372-1.773l.337-.284Z" transform="translate(-1257 -492.163)" fill="#818181"/>
    <path id="Контур_1770" data-name="Контур 1770" d="M1296.188,508.394c2.66-1.986,3.4-3.705,2.66-5.851a4.929,4.929,0,0,0-4.982-3.4c-3.83-.053-7.65-.133-11.471-.168a3.3,3.3,0,0,0-.975.284v19.688h9.166a38.349,38.349,0,0,0,4.946-.39,5.106,5.106,0,0,0,4.432-5.044C1300.062,510.9,1298.724,509.36,1296.188,508.394Zm-8.395-5.319c1.2,0,2.2-.062,3.191,0,1.321.1,1.924.709,1.95,1.773s-.567,1.72-1.87,1.932a7.87,7.87,0,0,1-1.294,0c-.62,0-1.25-.062-1.977-.1Zm4.06,11.524c-1.268.124-2.562,0-4.087,0v-4.078c1.471.089,2.872.124,4.264.275a1.773,1.773,0,0,1,1.72,1.844,1.968,1.968,0,0,1-1.9,1.95Z" transform="translate(-1230.496 -492.181)" fill="#818181"/>
    <path id="Контур_1771" data-name="Контур 1771" d="M1412.692,517.839a9.751,9.751,0,0,1-5.38,1.383,18.944,18.944,0,0,1-5.319-.753,5.824,5.824,0,0,1-4-6.232h5.452a11.445,11.445,0,0,0,.638,1.436,3.652,3.652,0,0,0,4.547,1.223,1.773,1.773,0,0,0,.062-3.271,18.537,18.537,0,0,0-2.659-.887,45.149,45.149,0,0,1-4.849-1.773,4.671,4.671,0,0,1-2.819-4.485,5.115,5.115,0,0,1,3.1-4.787,12.242,12.242,0,0,1,10.274-.186c2.048.886,3,2.553,3.351,4.8a3.091,3.091,0,0,1-.753.319H1409.4c-.647-1.427-1.658-2.659-3.67-2.278-1.046.213-1.259.541-1.445,2.269.931.31,1.915.656,2.917.975,1.711.541,3.466.966,5.133,1.631a5.071,5.071,0,0,1,3.377,4.8,6.09,6.09,0,0,1-3.023,5.806Z" transform="translate(-1243.729 -492.123)" fill="#818181"/>
    <path id="Контур_1772" data-name="Контур 1772" d="M1362.864,515.471c-.053-1.773,0-3.546,0-5.363-.1-2.6-1.285-4.3-3.546-4.822a17.545,17.545,0,0,0-8.359,0,4.432,4.432,0,0,0-3.608,3.971l5.124.6a3.014,3.014,0,0,1,3.546-1.675c.886.151,1.463.638,1.117,1.888-.62.186-1.356.434-2.11.621-1.773.426-3.546.745-5.248,1.259a3.67,3.67,0,0,0-2.952,3.945,4.068,4.068,0,0,0,3.271,3.776,8.288,8.288,0,0,0,7.358-1.551l.993,1.409h4.7C1363.041,518.006,1362.935,516.738,1362.864,515.471Zm-8.989,1.223a1.9,1.9,0,0,1-1.329-1.064,1.772,1.772,0,0,1,.8-1.5,32.409,32.409,0,0,1,3.785-1.33c.266,2.81-1.037,4.29-3.254,3.891Z" transform="translate(-1237.922 -492.84)" fill="#818181"/>
    <path id="Контур_1773" data-name="Контур 1773" d="M1320.781,515.467c0-1.853.044-3.714,0-5.567-.124-2.828-1.711-4.574-4.538-4.787a39.12,39.12,0,0,0-6.445,0,4.707,4.707,0,0,0-4.512,4.113l5.2.612a2.908,2.908,0,0,1,3.475-1.675c.886.133,1.454.621,1.152,1.879-.7.2-1.507.461-2.322.665-1.773.434-3.546.745-5.239,1.285a3.8,3.8,0,0,0-2.766,3.909,4.1,4.1,0,0,0,3.1,3.705,8.172,8.172,0,0,0,7.012-1.126,4.555,4.555,0,0,1,.647-.248c.284.417.567.806.833,1.179h4.716C1320.931,518,1320.816,516.734,1320.781,515.467Zm-8.368,1.3c-.886,0-1.818-.053-2.021-1.143s.5-1.445,1.285-1.72c1.144-.39,2.313-.718,3.484-1.073.364,2.473-.638,3.847-2.748,3.936Z" transform="translate(-1233.149 -492.862)" fill="#818181"/>
    <path id="Контур_1774" data-name="Контур 1774" d="M1471.338,519.506h-5.319c-.062-.656-.16-1.33-.168-2v-6.01c0-1.649-.47-2.154-1.7-2.216a2.012,2.012,0,0,0-2.269,2.065,33.166,33.166,0,0,0-.089,3.643c0,1.427,0,2.854,0,4.53h-5.461V505.261h4.9c.089.558.177,1.152.3,1.906.346-.284.629-.487.886-.718a5.815,5.815,0,0,1,6.019-1.312,3.732,3.732,0,0,1,2.9,3.4C1471.435,512.157,1471.338,515.783,1471.338,519.506Z" transform="translate(-1250.357 -492.841)" fill="#818181"/>
    <path id="Контур_1775" data-name="Контур 1775" d="M1341.864,519.558h-5.558v-8.271c0-1.347-.656-1.95-1.773-2a1.9,1.9,0,0,0-2.163,1.888c-.133,1.995-.071,4-.106,6,0,.762-.08,1.525-.124,2.358h-5.469V505.3h4.92c.151.541.3,1.135.505,1.879a5.983,5.983,0,0,1,5.806-2.207c2.4.417,3.838,1.711,3.945,4.113C1341.979,512.493,1341.864,515.924,1341.864,519.558Z" transform="translate(-1235.634 -492.849)" fill="#818181"/>
    <path id="Контур_1776" data-name="Контур 1776" d="M1492.986,513.715c.426-4.22-1.046-7.092-4.29-8.235a11.223,11.223,0,0,0-8.04.089,7.553,7.553,0,0,0,.231,13.767,12.268,12.268,0,0,0,8.271-.1,6.206,6.206,0,0,0,3.546-3.36l-4.973-.541c-3.262,2.057-5.115,1.56-5.452-1.622Zm-10.85-2.757c.461-2.021,1.223-2.837,2.66-2.854s2.234.736,2.659,2.854Z" transform="translate(-1252.627 -492.839)" fill="#818181"/>
    <path id="Контур_1777" data-name="Контур 1777" d="M1451.008,512.291c-.053-3.865-2.172-7.358-8.413-7.482-4.787-.1-8.111,3.076-8.129,7.535-.337,3.431,2.243,7.579,8.058,7.6C1448.517,519.959,1451.061,516.387,1451.008,512.291Zm-5.611.23c0,2.34-.993,3.679-2.66,3.661s-2.952-1.7-2.845-3.856a6.71,6.71,0,0,1,.239-1.259c.434-1.631,1.542-2.6,2.792-2.447a3.067,3.067,0,0,1,2.491,2.837C1445.423,511.813,1445.4,512.167,1445.4,512.522Z" transform="translate(-1247.871 -492.843)" fill="#818181"/>
    <path id="Контур_1778" data-name="Контур 1778" d="M1510.457,518.547a6.205,6.205,0,0,1-2.775,1.081,31.021,31.021,0,0,1-6.205-.062,4.716,4.716,0,0,1-4.237-3.954l4.955-.541c2.659,2.322,4.344,2.384,5.221-.089-.886-.293-1.675-.638-2.535-.886-1.259-.319-2.562-.461-3.8-.816a4.129,4.129,0,0,1-3.324-4.184,4.53,4.53,0,0,1,3.714-3.962,16.967,16.967,0,0,1,6.879,0,5.2,5.2,0,0,1,3.7,3.546l-4.9.55c-.975-.8-1.915-2.057-3.484-1.276-.417.2-.62.886-1.126,1.587,1.507.293,2.553.47,3.6.691a20.226,20.226,0,0,1,3.759.886,4.1,4.1,0,0,1,.567,7.429Z" transform="translate(-1255.002 -492.84)" fill="#818181"/>
    <path id="Контур_1779" data-name="Контур 1779" d="M1381.385,518.1a11.213,11.213,0,0,1-3.9,1.613,11.463,11.463,0,0,1-6.613-.434,4.432,4.432,0,0,1-3.191-3.652l4.973-.594c2.243,2.269,3.9,2.4,5.213.4-.443-1.143-1.569-1.081-2.509-1.3-1.4-.346-2.845-.523-4.21-.94a4.024,4.024,0,0,1-.355-7.615,12.667,12.667,0,0,1,8.687-.124c1.569.523,2.065,1.241,2.748,3.271l-4.432.488c-2.748-1.941-3.147-1.968-4.778-.115a6.084,6.084,0,0,0,1.418.745c1.339.31,2.659.488,4.033.753a9.023,9.023,0,0,1,1.87.532A4.028,4.028,0,0,1,1381.385,518.1Z" transform="translate(-1240.291 -492.835)" fill="#818181"/>
    <path id="Контур_1780" data-name="Контур 1780" d="M1430.906,519.1c-2.021,0-3.723.071-5.416,0a3.138,3.138,0,0,1-3.12-3.014c-.186-1.4-.186-2.837-.239-4.264v-2.9l-1.95-.523v-3.643l1.924-.5V499.07h5.62v5.319l2.881.213v3.927l-2.659.239v6.391l2.713.142C1430.729,516.4,1430.8,517.517,1430.906,519.1Z" transform="translate(-1246.252 -492.191)" fill="#818181"/>
    <path id="Контур_1781" data-name="Контур 1781" d="M1520.8,500.135l-.337.284-.381-.39.275-.319Z" transform="translate(-1257.596 -492.264)" fill="#818181"/>
    <path id="Контур_1782" data-name="Контур 1782" d="M1519.82,504.08Z" transform="translate(-1257.566 -492.76)" fill="#fcfcfc"/>
    <path id="Контур_1783" data-name="Контур 1783" d="M1519.82,504.08v.062h0Z" transform="translate(-1257.566 -492.76)" fill="#818181"/>
    <path id="Контур_1784" data-name="Контур 1784" d="M1519.4,502.145V500.86h-2.358c.053.94.089,1.684.142,2.721l1.046-.975,1.365,1.108A9.388,9.388,0,0,1,1519.4,502.145Zm-1.259-.257c-.142-.071-.213-.3-.266-.479,0,0,.231-.2.328-.168a3.055,3.055,0,0,1,.541.363c-.292.142-.505.328-.6.266Z" transform="translate(-1257.25 -492.394)" fill="#818181"/>
  </g>
</svg>
