<svg xmlns="http://www.w3.org/2000/svg"  viewBox="0 0 212.215 33">
  <path id="Logo" d="M-1651.76-21V-38.334h9.889v3.446h-6.442v10.441h16.725V-34.888h-6.836V-41.1h-.008V-52.215h23.618v17.334h-9.87v-3.446h6.424V-48.769h-16.725v10.441h6.845V-21Zm131.158-.852V-46.094h2.39v2.2a4.827,4.827,0,0,1,1.669-1.695,5.73,5.73,0,0,1,3-.788,4.768,4.768,0,0,1,2.681.738,4.581,4.581,0,0,1,1.7,2.142,8.921,8.921,0,0,1,.581,3.412v5.18a8.612,8.612,0,0,1-.606,3.4,4.644,4.644,0,0,1-1.76,2.15,5.053,5.053,0,0,1-2.781.739,5.668,5.668,0,0,1-2.972-.748,3.877,3.877,0,0,1-1.512-1.654v9.159Zm4.051-21.95a3.3,3.3,0,0,0-1.237,1.411,4.608,4.608,0,0,0-.424,1.993v5.728a4.8,4.8,0,0,0,.424,2.042,3.337,3.337,0,0,0,1.237,1.436,3.487,3.487,0,0,0,1.926.522,3.408,3.408,0,0,0,2.723-1.112,4.62,4.62,0,0,0,.963-3.121v-5.18a4.62,4.62,0,0,0-.963-3.121,3.408,3.408,0,0,0-2.723-1.112A3.526,3.526,0,0,0-1516.551-43.8Zm-89.141,21.95V-46.094h3.386v2.307a5.751,5.751,0,0,1,1.694-1.734,5.029,5.029,0,0,1,2.806-.822,5.743,5.743,0,0,1,3.129.822,5.156,5.156,0,0,1,1.985,2.4,9.584,9.584,0,0,1,.68,3.8v3.752a9.152,9.152,0,0,1-.7,3.752,5.176,5.176,0,0,1-2.042,2.382,6.062,6.062,0,0,1-3.221.822,5.048,5.048,0,0,1-2.805-.773,4.409,4.409,0,0,1-1.528-1.686v9.216Zm4.939-21.036a2.685,2.685,0,0,0-1.154,1.17,4,4,0,0,0-.4,1.851v4.7a4.127,4.127,0,0,0,.4,1.892,2.767,2.767,0,0,0,1.154,1.2,3.755,3.755,0,0,0,1.835.416,3.323,3.323,0,0,0,2.6-1.021,4.151,4.151,0,0,0,.922-2.881V-39.3a4.3,4.3,0,0,0-.922-2.939,3.28,3.28,0,0,0-2.6-1.047A3.9,3.9,0,0,0-1600.753-42.889Zm137.108,13.482a5.267,5.267,0,0,1-2.192-2.3,8.009,8.009,0,0,1-.755-3.628V-39.3a9.028,9.028,0,0,1,.731-3.819,5.331,5.331,0,0,1,2.116-2.408,6.4,6.4,0,0,1,3.346-.83,6.293,6.293,0,0,1,3.238.788,5.072,5.072,0,0,1,2.051,2.308,8.641,8.641,0,0,1,.705,3.661v3.154h-9.879v1.179a4.623,4.623,0,0,0,1.079,3.27,3.918,3.918,0,0,0,3.022,1.163,3.5,3.5,0,0,0,2.142-.639,3.279,3.279,0,0,0,1.2-1.768l2.241.7a4.788,4.788,0,0,1-1.926,2.922,6.263,6.263,0,0,1-3.652,1.013A7.037,7.037,0,0,1-1463.646-29.407Zm.373-13.524a5.254,5.254,0,0,0-1.013,3.445v.83h7.587v-1.1a5,5,0,0,0-.98-3.238,3.337,3.337,0,0,0-2.722-1.162A3.523,3.523,0,0,0-1463.272-42.931Zm-31.148,13.607a4.777,4.777,0,0,1-2.142-2.142,7.549,7.549,0,0,1-.73-3.47v-5.031a7.658,7.658,0,0,1,.723-3.486,4.846,4.846,0,0,1,2.142-2.167,7.419,7.419,0,0,1,3.462-.739,7.411,7.411,0,0,1,2.822.489,4.651,4.651,0,0,1,1.951,1.462,4.989,4.989,0,0,1,.972,2.316l-2.325.7a3.687,3.687,0,0,0-1.162-2.042,3.308,3.308,0,0,0-2.208-.714,3.9,3.9,0,0,0-2.964,1.071,4.34,4.34,0,0,0-1.021,3.113v5.031a4.205,4.205,0,0,0,1.021,3.047,3.94,3.94,0,0,0,2.964,1.054,3.643,3.643,0,0,0,2.275-.673,3.519,3.519,0,0,0,1.228-1.934l2.225.7a5.337,5.337,0,0,1-1,2.266,4.383,4.383,0,0,1-1.951,1.4,7.919,7.919,0,0,1-2.83.465A7.6,7.6,0,0,1-1494.42-29.324Zm-55.537-.183a5.992,5.992,0,0,1-2.582-2.632,9.1,9.1,0,0,1-.889-4.192v-1.942a10.141,10.141,0,0,1,.856-4.366,6.11,6.11,0,0,1,2.482-2.757,7.665,7.665,0,0,1,3.917-.946,6.222,6.222,0,0,1,3.686,1.079,6.7,6.7,0,0,1,2.332,3.121,13.342,13.342,0,0,1,.806,4.9v1.129H-1550.2a4.407,4.407,0,0,0,1.124,3.138,4.294,4.294,0,0,0,3.2,1.146,5.35,5.35,0,0,0,2.042-.415,5.891,5.891,0,0,0,1.81-1.163l2.226,2.225a9.381,9.381,0,0,1-2.873,1.9,8.19,8.19,0,0,1-3.2.672A8.626,8.626,0,0,1-1549.956-29.507Zm.8-12.519a5.172,5.172,0,0,0-1.043,3.187h7.626a5.807,5.807,0,0,0-1.087-3.279,3.06,3.06,0,0,0-2.516-1.17A3.667,3.667,0,0,0-1549.152-42.025Zm-37.3,12.095a4.934,4.934,0,0,1-1.577-4.009,4.856,4.856,0,0,1,1.444-3.835,6.428,6.428,0,0,1,4.366-1.279h4.748v-.73a3.638,3.638,0,0,0-.9-2.632,3.4,3.4,0,0,0-2.565-.938,6.593,6.593,0,0,0-2.018.316,5.985,5.985,0,0,0-1.751.879l-2.474-1.693a6.47,6.47,0,0,1,2.582-1.835,9.313,9.313,0,0,1,3.561-.656,8.211,8.211,0,0,1,3.67.755,5.243,5.243,0,0,1,2.324,2.192,7.027,7.027,0,0,1,.8,3.462V-28.86h-3.221v-1.332a3.933,3.933,0,0,1-.755.684,4.812,4.812,0,0,1-1.519.672,7.761,7.761,0,0,1-1.942.224A7.3,7.3,0,0,1-1586.45-29.93Zm2.266-5.811a2.3,2.3,0,0,0-.656,1.8,2.237,2.237,0,0,0,.872,1.942,4.518,4.518,0,0,0,2.648.631,7.64,7.64,0,0,0,2.9-.415,1.365,1.365,0,0,0,.955-1.3v-3.254h-4.731A2.89,2.89,0,0,0-1584.184-35.741Zm133.778,6.881V-46.094h2.391v2.487a6.647,6.647,0,0,1,2.134-1.906,6.745,6.745,0,0,1,3.362-.863,3.1,3.1,0,0,1,1.062.174,2.341,2.341,0,0,1,.83.506l-.763,2.109a1.772,1.772,0,0,0-.706-.423,3,3,0,0,0-.955-.141A5.234,5.234,0,0,0-1446.645-43a4.282,4.282,0,0,0-1.37,3.229V-28.86Zm-20.653,0-4.688-8.63-3.863,4.938v3.692H-1482V-53h2.391v17.436l7.837-10.529h2.756l-5.184,6.627,5.948,10.607Zm-33.041,0V-46.094h2.408V-28.86Zm-30.6,0V-46.094h3.387v2.4a6.057,6.057,0,0,1,1.709-1.8,4.865,4.865,0,0,1,2.79-.855,6.322,6.322,0,0,1,2.134.34,4.782,4.782,0,0,1,1.669,1l-2.208,2.989a2.829,2.829,0,0,0-1.129-.83,4.1,4.1,0,0,0-1.578-.282,3.379,3.379,0,0,0-2.5.888,3.331,3.331,0,0,0-.888,2.466V-28.86Zm-30.251,0-6.475-17.234h3.536l4.217,12.3,4.217-12.3h3.536l-6.475,17.234Zm60.85-21.285v-2.374h2.408v2.374Z" transform="translate(1652.26 53.5)" fill="#fff" stroke="rgba(0,0,0,0)" stroke-width="1"/>
</svg>
