<svg id="Outhaus_element" data-name="Outhaus element" xmlns="http://www.w3.org/2000/svg" width="249.562" height="66.311" viewBox="0 0 249.562 66.311">
  <g id="Outhaus_grey" data-name="Outhaus grey" opacity="0.5">
    <path id="Контур_1625" data-name="Контур 1625" d="M1675.567,257.85v33.526h-4.113V276.7h-16.532v14.618a23.935,23.935,0,0,1-4.2.151V257.868h4.113v14.9h16.524V257.885a23.046,23.046,0,0,1,4.211-.036Z" transform="translate(-1554.593 -225.796)" fill="#fff"/>
    <path id="Контур_1626" data-name="Контур 1626" d="M1748.456,259.344v19.608a15.07,15.07,0,0,1-1.268,6.631c-2.4,4.973-8.279,7.5-14.334,6.152-4.991-1.108-8.625-4.37-9.157-8.909-.966-8.262-.142-16.559-.461-24.945h4.1c.505.576.266,1.321.266,2v17.729a23.646,23.646,0,0,0,.293,4.033,7.488,7.488,0,0,0,7.729,6.5c4.432.08,7.925-3.253,8.218-6.329.107-1.135.222-2.26.222-3.4V260.1a4.149,4.149,0,0,1,.213-2.154,21.726,21.726,0,0,1,3.865-.08A2,2,0,0,1,1748.456,259.344Z" transform="translate(-1562.825 -225.801)" fill="#fff"/>
    <path id="Контур_1627" data-name="Контур 1627" d="M1779.83,283.351c-.4,4.211-3.218,7.322-7.668,8.3a12.313,12.313,0,0,1-8.865-1.1c-3.094-1.729-4.379-4.432-4.308-8.146h3.892a2.712,2.712,0,0,1,.3.6c.975,4.911,5.975,6.826,10.105,3.936,2.509-1.773,3.546-6.622-.337-8.714a43.132,43.132,0,0,0-5.319-2.163c-1.064-.4-2.154-.736-3.182-1.223a8.864,8.864,0,0,1-5.212-9.379,9.077,9.077,0,0,1,6.94-7.978c6.205-1.613,11.7,1.356,12.978,7.092a2.917,2.917,0,0,1,0,2.154h-3.741c-.532-.576-.408-1.347-.62-2-.807-2.535-2.6-3.794-5.478-3.776a5.39,5.39,0,0,0-5.5,3.838,4.9,4.9,0,0,0,2.42,5.975,29.581,29.581,0,0,0,4.335,1.773c1.126.434,2.27.842,3.369,1.33C1778.243,275.718,1780.273,278.954,1779.83,283.351Z" transform="translate(-1566.887 -225.714)" fill="#fff"/>
    <path id="Контур_1628" data-name="Контур 1628" d="M1573.421,267.65a16.062,16.062,0,0,0-20.849-9.467c-6.436,2.553-10.336,8.865-10.292,16.621v1.7a16.142,16.142,0,0,0,15.07,15.4,15.956,15.956,0,0,0,16.843-13.341,21.342,21.342,0,0,0-.771-10.912Zm-2.447,11.577a12.9,12.9,0,0,1-25.255-.488,16.843,16.843,0,0,1,1.525-12.18c2.447-4.37,6.205-6.772,11.24-6.737a12.281,12.281,0,0,1,11.231,6.79,16.964,16.964,0,0,1,1.924,7.8,20.062,20.062,0,0,1-.665,4.822Z" transform="translate(-1542.28 -225.721)" fill="#fff"/>
    <path id="Контур_1629" data-name="Контур 1629" d="M1819.358,239.8a39.007,39.007,0,0,1-4.113,4.042c-4.432-4.379-8.785-8.7-13.4-13.3l-13,13.3a46.657,46.657,0,0,1-4.246-4.193l17.25-17.951Z" transform="translate(-1569.796 -221.7)" fill="#acacac"/>
    <path id="Контур_1630" data-name="Контур 1630" d="M1611.232,280.319c-.133,5.673-2.872,9.414-7.757,11.019-5.478,1.773-11.426.08-14.6-4.166a8.386,8.386,0,0,1-1.826-4.477c-.594-8.217-.142-16.444-.31-24.821l2.6-.124c.691.762.417,1.578.417,2.323v17.259a34.121,34.121,0,0,0,.177,4.255c.505,4.769,3.821,7.659,8.8,7.756,3.546.071,8.98-2.393,9.325-7.6.106-1.622.177-3.262.186-4.893V260.01a3.837,3.837,0,0,1,.2-2.127,6.2,6.2,0,0,1,2.837.062v5.106C1611.3,268.813,1611.365,274.566,1611.232,280.319Z" transform="translate(-1547.327 -225.793)" fill="#fff"/>
    <path id="Контур_1631" data-name="Контур 1631" d="M1641.353,260.352h-8.767v30.8a4.2,4.2,0,0,1-3,.186V260.494h-8.457c-.692-.886-.31-1.64-.443-2.544h20.566A3.613,3.613,0,0,1,1641.353,260.352Z" transform="translate(-1551.183 -225.816)" fill="#fff"/>
    <path id="Контур_1632" data-name="Контур 1632" d="M1702.164,257.84l-12.685,33.588h-4.539l12.738-33.588Z" transform="translate(-1558.479 -225.804)" fill="#fff"/>
    <path id="Контур_1633" data-name="Контур 1633" d="M1813.792,247.815a48.779,48.779,0,0,1-4.113,4.273l-6.356-6.87-6.63,7.2a32.643,32.643,0,0,1-4.592-4.388l11-11.027Z" transform="translate(-1570.647 -223.437)" fill="#acacac"/>
    <path id="Контур_1634" data-name="Контур 1634" d="M1717.437,292a26.424,26.424,0,0,1-4.778.151l-8.209-22.454c.886-1.826,1.294-3.9,2.5-6.072Z" transform="translate(-1560.694 -226.46)" fill="#acacac"/>
    <path id="Контур_1635" data-name="Контур 1635" d="M1808.028,256.181a50.61,50.61,0,0,1-4.264,4.2l-4.184-4.388,4.282-4.255Z" transform="translate(-1571.496 -225.111)" fill="#acacac"/>
  </g>
</svg>
