<?xml version="1.0" standalone="no"?>
<!DOCTYPE svg PUBLIC "-//W3C//DTD SVG 20010904//EN"
 "http://www.w3.org/TR/2001/REC-SVG-20010904/DTD/svg10.dtd">
<svg version="1.0" xmlns="http://www.w3.org/2000/svg"
 width="64.000000pt" height="64.000000pt" viewBox="0 0 64.000000 64.000000"
 preserveAspectRatio="xMidYMid meet">

<g transform="translate(0.000000,64.000000) scale(0.100000,-0.100000)"
fill="#000000" stroke="none">
<path d="M300 620 c-11 -11 -20 -29 -20 -40 0 -19 -7 -20 -140 -20 -133 0
-140 -1 -140 -20 0 -19 7 -20 139 -20 l139 0 6 -30 c12 -63 100 -63 112 0 l7
30 118 0 c112 0 119 1 119 20 0 19 -7 20 -120 20 -113 0 -120 1 -120 20 0 11
-9 29 -20 40 -11 11 -29 20 -40 20 -11 0 -29 -9 -40 -20z m55 -81 c0 -41 -4
-54 -15 -54 -16 0 -27 73 -16 102 13 33 31 5 31 -48z"/>
<path d="M100 420 c-11 -11 -20 -29 -20 -40 0 -17 -7 -20 -40 -20 -33 0 -40
-3 -40 -20 0 -17 7 -20 39 -20 35 0 39 -3 45 -30 12 -63 100 -63 112 0 l7 30
218 0 c212 0 219 1 219 20 0 19 -7 20 -220 20 -213 0 -220 1 -220 20 0 11 -9
29 -20 40 -11 11 -29 20 -40 20 -11 0 -29 -9 -40 -20z m55 -81 c0 -41 -4 -54
-15 -54 -16 0 -27 73 -16 102 13 33 31 5 31 -48z"/>
<path d="M460 220 c-11 -11 -20 -29 -20 -40 0 -19 -7 -20 -220 -20 -213 0
-220 -1 -220 -20 0 -19 7 -20 219 -20 l219 0 6 -30 c12 -63 100 -63 112 0 6
27 10 30 45 30 32 0 39 3 39 20 0 17 -7 20 -40 20 -33 0 -40 3 -40 20 0 26
-34 60 -60 60 -11 0 -29 -9 -40 -20z m55 -81 c0 -41 -4 -54 -15 -54 -16 0 -27
73 -16 102 13 33 31 5 31 -48z"/>
</g>
</svg>
