<svg xmlns="http://www.w3.org/2000/svg" width="52.724" height="52.825" viewBox="0 0 52.724 52.825">
  <path id="phone" d="M52.888,40.3v7.5a5,5,0,0,1-5.45,5,49.475,49.475,0,0,1-21.575-7.675,48.75,48.75,0,0,1-15-15A49.475,49.475,0,0,1,3.188,8.45,5,5,0,0,1,8.163,3h7.5a5,5,0,0,1,5,4.3,32.1,32.1,0,0,0,1.75,7.025A5,5,0,0,1,21.288,19.6l-3.175,3.175a40,40,0,0,0,15,15L36.288,34.6a5,5,0,0,1,5.275-1.125,32.1,32.1,0,0,0,7.025,1.75,5,5,0,0,1,4.3,5.075Z" transform="translate(-1.666 -1.5)" fill="none" stroke="#fff" stroke-linecap="round" stroke-linejoin="round" stroke-width="3"/>
</svg>
