<svg xmlns="http://www.w3.org/2000/svg" width="213.094" height="84.1" viewBox="0 0 213.094 84.1">
  <g id="banas-stones" transform="translate(-50.924 56.927)">
    <path id="Контур_1761" data-name="Контур 1761" d="M1234.649,526.463l-.483,1.58h.98Zm0,0-.483,1.58h.98Zm0,0-.483,1.58h.98Zm0,0-.483,1.58h.98Zm0,0-.483,1.58h.98Zm0,0-.483,1.58h.98Zm0,0-.483,1.58h.98Zm29.557.1a.922.922,0,0,0-1.346,0,1.464,1.464,0,0,0-.249.907,1.6,1.6,0,0,0,.249,1.01.789.789,0,0,0,.673.293.8.8,0,0,0,.263,0,1.967,1.967,0,0,0-.541-.307l.22-.483a1.085,1.085,0,0,1,.278.073l.38.249.161.1a1.891,1.891,0,0,0,.161-.863A1.462,1.462,0,0,0,1264.207,526.565Zm0,0a.922.922,0,0,0-1.346,0,1.464,1.464,0,0,0-.249.907,1.6,1.6,0,0,0,.249,1.01.789.789,0,0,0,.673.293.8.8,0,0,0,.263,0,1.967,1.967,0,0,0-.541-.307l.22-.483a1.085,1.085,0,0,1,.278.073l.38.249.161.1a1.891,1.891,0,0,0,.161-.863A1.462,1.462,0,0,0,1264.207,526.565Zm-29.557-.1-.483,1.58h.98Zm0,0-.483,1.58h.98Zm29.557.1a.922.922,0,0,0-1.346,0,1.464,1.464,0,0,0-.249.907,1.6,1.6,0,0,0,.249,1.01.789.789,0,0,0,.673.293.8.8,0,0,0,.263,0,1.967,1.967,0,0,0-.541-.307l.22-.483a1.085,1.085,0,0,1,.278.073l.38.249.161.1a1.891,1.891,0,0,0,.161-.863A1.462,1.462,0,0,0,1264.207,526.565Zm9.189-.1-.483,1.58h.965Zm0,0-.483,1.58h.965Zm-9.189.1a.922.922,0,0,0-1.346,0,1.464,1.464,0,0,0-.249.907,1.6,1.6,0,0,0,.249,1.01.789.789,0,0,0,.673.293.8.8,0,0,0,.263,0,1.967,1.967,0,0,0-.541-.307l.22-.483a1.085,1.085,0,0,1,.278.073l.38.249.161.1a1.891,1.891,0,0,0,.161-.863A1.462,1.462,0,0,0,1264.207,526.565Zm-29.557-.1-.483,1.58h.98Zm0,0-.483,1.58h.98Zm29.557.1a.922.922,0,0,0-1.346,0,1.464,1.464,0,0,0-.249.907,1.6,1.6,0,0,0,.249,1.01.789.789,0,0,0,.673.293.8.8,0,0,0,.263,0,1.967,1.967,0,0,0-.541-.307l.22-.483a1.085,1.085,0,0,1,.278.073l.38.249.161.1a1.891,1.891,0,0,0,.161-.863A1.462,1.462,0,0,0,1264.207,526.565Zm9.189-.1-.483,1.58h.965Zm0,0-.483,1.58h.965Zm-9.189.1a.922.922,0,0,0-1.346,0,1.464,1.464,0,0,0-.249.907,1.6,1.6,0,0,0,.249,1.01.789.789,0,0,0,.673.293.8.8,0,0,0,.263,0,1.967,1.967,0,0,0-.541-.307l.22-.483a1.085,1.085,0,0,1,.278.073l.38.249.161.1a1.891,1.891,0,0,0,.161-.863A1.462,1.462,0,0,0,1264.207,526.565Zm-29.557-.1-.483,1.58h.98Zm58.969-2.926H1224.07v8.326h71.464v-7.814c-.512-.849-1.332-.542-1.917-.542ZM1231.8,529.1a1.463,1.463,0,0,1-.658.542,2.477,2.477,0,0,1-1.054.19,2.193,2.193,0,0,1-1.565-.439,1.726,1.726,0,0,1-.483-1.1h1.288a1.043,1.043,0,0,0,.175.483.733.733,0,0,0,.6.263.63.63,0,0,0,.454-.146.381.381,0,0,0,0-.614,1.71,1.71,0,0,0-.688-.264,2.926,2.926,0,0,1-1.273-.527,1.07,1.07,0,0,1-.395-.849,1.157,1.157,0,0,1,.2-.644,1.287,1.287,0,0,1,.585-.483,3.075,3.075,0,0,1,1.083-.161,2.223,2.223,0,0,1,1.288.307,1.362,1.362,0,0,1,.527,1l-1.288.088a.685.685,0,0,0-.2-.439.732.732,0,0,0-.454-.132.485.485,0,0,0-.351.1.252.252,0,0,0-.029.424,1.009,1.009,0,0,0,.454.161,5.958,5.958,0,0,1,1.287.4,1.456,1.456,0,0,1,.556.483,1.274,1.274,0,0,1,.176.659,1.347,1.347,0,0,1-.234.673Zm3.848.659-.219-.732h-1.551l-.2.732h-1.463l1.653-4.39h1.463l1.654,4.39Zm5.224-3.468h-1.99v.776h1.7v.893h-1.7v1.8H1237.5v-4.39h3.365Zm4.389,3.468h-3.716v-4.39h3.643v.936h-2.195v.7h2.122v.893h-2.122v.878h2.356Zm4.551-3.322h-1.463v3.322h-1.361v-3.322h-1.375v-1.083h4.126Zm3.248,1.463v1.844h-1.287V527.9l-1.712-2.561h1.463l.893,1.463.892-1.463h1.463Zm5.662.7h-1.77v-.936h1.77Zm6.819,1.639a5.659,5.659,0,0,1-.556-.337l-.4-.278a3.056,3.056,0,0,1-1.127.19,2.092,2.092,0,0,1-2.268-2.268,2.3,2.3,0,0,1,.6-1.683,2.195,2.195,0,0,1,1.668-.6,2.3,2.3,0,0,1,1.7.585,2.268,2.268,0,0,1,.6,1.683,2.385,2.385,0,0,1-.483,1.566l.337.22.307.146Zm5.165-2.283a1.977,1.977,0,0,1-.117.731,1.462,1.462,0,0,1-.38.615,1.532,1.532,0,0,1-.541.366,2.647,2.647,0,0,1-.951.146h-.7a1.963,1.963,0,0,1-.644-.176,1.832,1.832,0,0,1-.468-.381,1.46,1.46,0,0,1-.278-.512,2.51,2.51,0,0,1-.132-.746V525.38h1.361v2.678a.775.775,0,0,0,.19.571.791.791,0,0,0,.557.2.759.759,0,0,0,.555-.2.774.774,0,0,0,.205-.571V525.38h1.347Zm3.629,1.785-.219-.732h-1.551l-.219.732h-1.375l1.653-4.39h1.463l1.654,4.39Zm5.341,0h-3.483v-4.39h1.361v3.292h2.122Zm2.034,0h-1.361v-4.39h1.361Zm4.8-3.322h-1.463v3.322h-1.361v-3.322H1282.5v-1.083h4.126Zm3.248,1.463v1.844h-1.361v-1.844l-1.712-2.561h1.464l.892,1.463.892-1.463h1.464Zm-16.9.161h.965l-.482-1.58Zm-9.394-1.771a.864.864,0,0,0-.658.293,1.464,1.464,0,0,0-.249.907,1.6,1.6,0,0,0,.249,1.01.791.791,0,0,0,.673.293.8.8,0,0,0,.264,0,1.967,1.967,0,0,0-.541-.307l.22-.483a1.088,1.088,0,0,1,.278.073l.38.249.161.1a1.89,1.89,0,0,0,.161-.863,1.462,1.462,0,0,0-.249-.951.862.862,0,0,0-.673-.322Zm-29.25,1.771h.98l-.5-1.58Zm.483-1.58-.483,1.58h.98Zm29.558.1a.922.922,0,0,0-1.346,0,1.465,1.465,0,0,0-.249.907,1.6,1.6,0,0,0,.249,1.01.79.79,0,0,0,.673.293.809.809,0,0,0,.264,0,1.967,1.967,0,0,0-.542-.307l.219-.483a1.086,1.086,0,0,1,.278.073l.38.249.161.1a1.891,1.891,0,0,0,.161-.863,1.462,1.462,0,0,0-.292-.98Zm9.189-.1-.483,1.58h.966Zm0,0-.483,1.58h.966Zm-9.189.1a.922.922,0,0,0-1.346,0,1.465,1.465,0,0,0-.249.907,1.6,1.6,0,0,0,.249,1.01.79.79,0,0,0,.673.293.809.809,0,0,0,.264,0,1.967,1.967,0,0,0-.542-.307l.219-.483a1.086,1.086,0,0,1,.278.073l.38.249.161.1a1.891,1.891,0,0,0,.161-.863,1.462,1.462,0,0,0-.292-.98Zm-29.558-.1-.483,1.58h.98Zm0,0-.483,1.58h.98Zm29.558.1a.922.922,0,0,0-1.346,0,1.465,1.465,0,0,0-.249.907,1.6,1.6,0,0,0,.249,1.01.79.79,0,0,0,.673.293.809.809,0,0,0,.264,0,1.967,1.967,0,0,0-.542-.307l.219-.483a1.086,1.086,0,0,1,.278.073l.38.249.161.1a1.891,1.891,0,0,0,.161-.863,1.462,1.462,0,0,0-.292-.98Zm9.189-.1-.483,1.58h.966Zm0,0-.483,1.58h.966Zm-9.189.1a.922.922,0,0,0-1.346,0,1.465,1.465,0,0,0-.249.907,1.6,1.6,0,0,0,.249,1.01.79.79,0,0,0,.673.293.809.809,0,0,0,.264,0,1.967,1.967,0,0,0-.542-.307l.219-.483a1.086,1.086,0,0,1,.278.073l.38.249.161.1a1.891,1.891,0,0,0,.161-.863,1.462,1.462,0,0,0-.292-.98Zm-29.558-.1-.483,1.58h.98Zm0,0-.483,1.58h.98Zm29.558.1a.922.922,0,0,0-1.346,0,1.465,1.465,0,0,0-.249.907,1.6,1.6,0,0,0,.249,1.01.79.79,0,0,0,.673.293.809.809,0,0,0,.264,0,1.967,1.967,0,0,0-.542-.307l.219-.483a1.086,1.086,0,0,1,.278.073l.38.249.161.1a1.891,1.891,0,0,0,.161-.863,1.462,1.462,0,0,0-.292-.98Zm0,0a.922.922,0,0,0-1.346,0,1.465,1.465,0,0,0-.249.907,1.6,1.6,0,0,0,.249,1.01.79.79,0,0,0,.673.293.809.809,0,0,0,.264,0,1.967,1.967,0,0,0-.542-.307l.219-.483a1.086,1.086,0,0,1,.278.073l.38.249.161.1a1.891,1.891,0,0,0,.161-.863,1.462,1.462,0,0,0-.292-.98Zm-29.558-.1-.483,1.58h.98Zm0,0-.483,1.58h.98Zm0,0-.483,1.58h.98Zm0,0-.483,1.58h.98Zm0,0-.483,1.58h.98Zm0,0-.483,1.58h.98Zm0,0-.483,1.58h.98Z" transform="translate(-1102.231 -533.347)" fill="#629081"/>
    <path id="Контур_1762" data-name="Контур 1762" d="M1283.376,515.146v20.383H1271.3a21.388,21.388,0,0,1-2.838-2.927c-1.215-1.741-8.97-9.657-11.106-12.145-1.58-1.829-3.307-3.512-4.96-5.253-.966-1.039-1.844-2.166-2.839-3.336V491.31h12.086c1.756,1.873,3.688,3.761,5.4,5.853.834,1.024,1.814,1.888,2.6,2.926,1.229,1.6,2.809,2.927,4.038,4.39.82,1.039,1.77,1.917,2.634,2.926s1.463,1.639,2.107,2.444,1.463,1.463,2.121,2.414A27.652,27.652,0,0,0,1283.376,515.146Z" transform="translate(-1090.423 -548.237)" fill="#629081"/>
    <path id="Контур_1763" data-name="Контур 1763" d="M1239.728,491.31v44.248h-15.715V493.051c0-.615-.249-1.3.5-1.741Z" transform="translate(-1102.276 -548.237)" fill="#629081"/>
    <path id="Контур_1764" data-name="Контур 1764" d="M1251.838,491.31v21.173h-15.6V491.749l.439-.439Z" transform="translate(-1096.593 -548.237)" fill="#629081"/>
    <path id="Контур_1765" data-name="Контур 1765" d="M1251.922,511.1v17.061h-15.7V508.886c0-.541-.264-1.2.658-1.566h14.632a2.648,2.648,0,0,1,.366.863A21.32,21.32,0,0,1,1251.922,511.1Z" transform="translate(-1096.618 -540.821)" fill="#629081"/>
    <path id="Контур_1766" data-name="Контур 1766" d="M1268.457,528.009H1249.64V507.67c.293.146.526.176.643.322,1.9,1.99,3.892,3.921,5.648,6.043.761.922,1.58,1.785,2.385,2.648,1.712,1.858,3.556,3.6,5.136,5.56,1.127,1.463,2.429,2.59,3.6,3.907C1267.492,526.692,1267.9,527.292,1268.457,528.009Z" transform="translate(-1090.386 -540.658)" fill="#629081"/>
    <path id="Контур_1767" data-name="Контур 1767" d="M1278.608,511.962c-.366-.336-15.7-16.944-16.754-18.144-.688-.776-1.317-1.624-2.034-2.487h18.671C1278.74,492.749,1278.828,505.64,1278.608,511.962Z" transform="translate(-1085.67 -548.228)" fill="#629081"/>
    <path id="Контур_1768" data-name="Контур 1768" d="M1519.87,504.11Z" transform="translate(-1257.572 -492.763)" fill="#629081"/>
    <path id="Контур_1769" data-name="Контур 1769" d="M1521.018,500.513v2.58a5.984,5.984,0,0,1-.886.886,2.872,2.872,0,0,1-4.2.239,3.1,3.1,0,0,1-.479-4.228c1.055-1.4,2.579-1.551,4.264-.417l-.275.319a8.863,8.863,0,0,0-2.074-.275,1.773,1.773,0,0,0-1.64,1.684,2.34,2.34,0,0,0,1.206,2.659,2.083,2.083,0,0,0,1.374.31h.124l.106-.044a1.162,1.162,0,0,0,.292-.186h0l.1-.1v-.1a.344.344,0,0,0,.071-.089.085.085,0,0,1,0-.044l.115-.2h.044l.062-.044.062-.044h.115a1.76,1.76,0,0,0,.292-.284v-.222l.053-.106v-.044c.027-.078.051-.158.071-.239,0,0,0-.053,0-.08a.691.691,0,0,0,0-.133v-.089a7.422,7.422,0,0,0-.372-1.773l.337-.284Z" transform="translate(-1257 -492.163)" fill="#629081"/>
    <path id="Контур_1770" data-name="Контур 1770" d="M1296.188,508.394c2.66-1.986,3.4-3.705,2.66-5.851a4.929,4.929,0,0,0-4.982-3.4c-3.83-.053-7.65-.133-11.471-.168a3.3,3.3,0,0,0-.975.284v19.688h9.166a38.349,38.349,0,0,0,4.946-.39,5.106,5.106,0,0,0,4.432-5.044C1300.062,510.9,1298.724,509.36,1296.188,508.394Zm-8.395-5.319c1.2,0,2.2-.062,3.191,0,1.321.1,1.924.709,1.95,1.773s-.567,1.72-1.87,1.932a7.87,7.87,0,0,1-1.294,0c-.62,0-1.25-.062-1.977-.1Zm4.06,11.524c-1.268.124-2.562,0-4.087,0v-4.078c1.471.089,2.872.124,4.264.275a1.773,1.773,0,0,1,1.72,1.844,1.968,1.968,0,0,1-1.9,1.95Z" transform="translate(-1230.496 -492.181)" fill="#629081"/>
    <path id="Контур_1771" data-name="Контур 1771" d="M1412.692,517.839a9.751,9.751,0,0,1-5.38,1.383,18.944,18.944,0,0,1-5.319-.753,5.824,5.824,0,0,1-4-6.232h5.452a11.445,11.445,0,0,0,.638,1.436,3.652,3.652,0,0,0,4.547,1.223,1.773,1.773,0,0,0,.062-3.271,18.537,18.537,0,0,0-2.659-.887,45.149,45.149,0,0,1-4.849-1.773,4.671,4.671,0,0,1-2.819-4.485,5.115,5.115,0,0,1,3.1-4.787,12.242,12.242,0,0,1,10.274-.186c2.048.886,3,2.553,3.351,4.8a3.091,3.091,0,0,1-.753.319H1409.4c-.647-1.427-1.658-2.659-3.67-2.278-1.046.213-1.259.541-1.445,2.269.931.31,1.915.656,2.917.975,1.711.541,3.466.966,5.133,1.631a5.071,5.071,0,0,1,3.377,4.8,6.09,6.09,0,0,1-3.023,5.806Z" transform="translate(-1243.729 -492.123)" fill="#629081"/>
    <path id="Контур_1772" data-name="Контур 1772" d="M1362.864,515.471c-.053-1.773,0-3.546,0-5.363-.1-2.6-1.285-4.3-3.546-4.822a17.545,17.545,0,0,0-8.359,0,4.432,4.432,0,0,0-3.608,3.971l5.124.6a3.014,3.014,0,0,1,3.546-1.675c.886.151,1.463.638,1.117,1.888-.62.186-1.356.434-2.11.621-1.773.426-3.546.745-5.248,1.259a3.67,3.67,0,0,0-2.952,3.945,4.068,4.068,0,0,0,3.271,3.776,8.288,8.288,0,0,0,7.358-1.551l.993,1.409h4.7C1363.041,518.006,1362.935,516.738,1362.864,515.471Zm-8.989,1.223a1.9,1.9,0,0,1-1.329-1.064,1.772,1.772,0,0,1,.8-1.5,32.409,32.409,0,0,1,3.785-1.33c.266,2.81-1.037,4.29-3.254,3.891Z" transform="translate(-1237.922 -492.84)" fill="#629081"/>
    <path id="Контур_1773" data-name="Контур 1773" d="M1320.781,515.467c0-1.853.044-3.714,0-5.567-.124-2.828-1.711-4.574-4.538-4.787a39.12,39.12,0,0,0-6.445,0,4.707,4.707,0,0,0-4.512,4.113l5.2.612a2.908,2.908,0,0,1,3.475-1.675c.886.133,1.454.621,1.152,1.879-.7.2-1.507.461-2.322.665-1.773.434-3.546.745-5.239,1.285a3.8,3.8,0,0,0-2.766,3.909,4.1,4.1,0,0,0,3.1,3.705,8.172,8.172,0,0,0,7.012-1.126,4.555,4.555,0,0,1,.647-.248c.284.417.567.806.833,1.179h4.716C1320.931,518,1320.816,516.734,1320.781,515.467Zm-8.368,1.3c-.886,0-1.818-.053-2.021-1.143s.5-1.445,1.285-1.72c1.144-.39,2.313-.718,3.484-1.073.364,2.473-.638,3.847-2.748,3.936Z" transform="translate(-1233.149 -492.862)" fill="#629081"/>
    <path id="Контур_1774" data-name="Контур 1774" d="M1471.338,519.506h-5.319c-.062-.656-.16-1.33-.168-2v-6.01c0-1.649-.47-2.154-1.7-2.216a2.012,2.012,0,0,0-2.269,2.065,33.166,33.166,0,0,0-.089,3.643c0,1.427,0,2.854,0,4.53h-5.461V505.261h4.9c.089.558.177,1.152.3,1.906.346-.284.629-.487.886-.718a5.815,5.815,0,0,1,6.019-1.312,3.732,3.732,0,0,1,2.9,3.4C1471.435,512.157,1471.338,515.783,1471.338,519.506Z" transform="translate(-1250.357 -492.841)" fill="#629081"/>
    <path id="Контур_1775" data-name="Контур 1775" d="M1341.864,519.558h-5.558v-8.271c0-1.347-.656-1.95-1.773-2a1.9,1.9,0,0,0-2.163,1.888c-.133,1.995-.071,4-.106,6,0,.762-.08,1.525-.124,2.358h-5.469V505.3h4.92c.151.541.3,1.135.505,1.879a5.983,5.983,0,0,1,5.806-2.207c2.4.417,3.838,1.711,3.945,4.113C1341.979,512.493,1341.864,515.924,1341.864,519.558Z" transform="translate(-1235.634 -492.849)" fill="#629081"/>
    <path id="Контур_1776" data-name="Контур 1776" d="M1492.986,513.715c.426-4.22-1.046-7.092-4.29-8.235a11.223,11.223,0,0,0-8.04.089,7.553,7.553,0,0,0,.231,13.767,12.268,12.268,0,0,0,8.271-.1,6.206,6.206,0,0,0,3.546-3.36l-4.973-.541c-3.262,2.057-5.115,1.56-5.452-1.622Zm-10.85-2.757c.461-2.021,1.223-2.837,2.66-2.854s2.234.736,2.659,2.854Z" transform="translate(-1252.627 -492.839)" fill="#629081"/>
    <path id="Контур_1777" data-name="Контур 1777" d="M1451.008,512.291c-.053-3.865-2.172-7.358-8.413-7.482-4.787-.1-8.111,3.076-8.129,7.535-.337,3.431,2.243,7.579,8.058,7.6C1448.517,519.959,1451.061,516.387,1451.008,512.291Zm-5.611.23c0,2.34-.993,3.679-2.66,3.661s-2.952-1.7-2.845-3.856a6.71,6.71,0,0,1,.239-1.259c.434-1.631,1.542-2.6,2.792-2.447a3.067,3.067,0,0,1,2.491,2.837C1445.423,511.813,1445.4,512.167,1445.4,512.522Z" transform="translate(-1247.871 -492.843)" fill="#629081"/>
    <path id="Контур_1778" data-name="Контур 1778" d="M1510.457,518.547a6.205,6.205,0,0,1-2.775,1.081,31.021,31.021,0,0,1-6.205-.062,4.716,4.716,0,0,1-4.237-3.954l4.955-.541c2.659,2.322,4.344,2.384,5.221-.089-.886-.293-1.675-.638-2.535-.886-1.259-.319-2.562-.461-3.8-.816a4.129,4.129,0,0,1-3.324-4.184,4.53,4.53,0,0,1,3.714-3.962,16.967,16.967,0,0,1,6.879,0,5.2,5.2,0,0,1,3.7,3.546l-4.9.55c-.975-.8-1.915-2.057-3.484-1.276-.417.2-.62.886-1.126,1.587,1.507.293,2.553.47,3.6.691a20.226,20.226,0,0,1,3.759.886,4.1,4.1,0,0,1,.567,7.429Z" transform="translate(-1255.002 -492.84)" fill="#629081"/>
    <path id="Контур_1779" data-name="Контур 1779" d="M1381.385,518.1a11.213,11.213,0,0,1-3.9,1.613,11.463,11.463,0,0,1-6.613-.434,4.432,4.432,0,0,1-3.191-3.652l4.973-.594c2.243,2.269,3.9,2.4,5.213.4-.443-1.143-1.569-1.081-2.509-1.3-1.4-.346-2.845-.523-4.21-.94a4.024,4.024,0,0,1-.355-7.615,12.667,12.667,0,0,1,8.687-.124c1.569.523,2.065,1.241,2.748,3.271l-4.432.488c-2.748-1.941-3.147-1.968-4.778-.115a6.084,6.084,0,0,0,1.418.745c1.339.31,2.659.488,4.033.753a9.023,9.023,0,0,1,1.87.532A4.028,4.028,0,0,1,1381.385,518.1Z" transform="translate(-1240.291 -492.835)" fill="#629081"/>
    <path id="Контур_1780" data-name="Контур 1780" d="M1430.906,519.1c-2.021,0-3.723.071-5.416,0a3.138,3.138,0,0,1-3.12-3.014c-.186-1.4-.186-2.837-.239-4.264v-2.9l-1.95-.523v-3.643l1.924-.5V499.07h5.62v5.319l2.881.213v3.927l-2.659.239v6.391l2.713.142C1430.729,516.4,1430.8,517.517,1430.906,519.1Z" transform="translate(-1246.252 -492.191)" fill="#629081"/>
    <path id="Контур_1781" data-name="Контур 1781" d="M1520.8,500.135l-.337.284-.381-.39.275-.319Z" transform="translate(-1257.596 -492.264)" fill="#629081"/>
    <path id="Контур_1782" data-name="Контур 1782" d="M1519.82,504.08Z" transform="translate(-1257.566 -492.76)" fill="#629081"/>
    <path id="Контур_1783" data-name="Контур 1783" d="M1519.82,504.08v.062h0Z" transform="translate(-1257.566 -492.76)" fill="#629081"/>
    <path id="Контур_1784" data-name="Контур 1784" d="M1519.4,502.145V500.86h-2.358c.053.94.089,1.684.142,2.721l1.046-.975,1.365,1.108A9.388,9.388,0,0,1,1519.4,502.145Zm-1.259-.257c-.142-.071-.213-.3-.266-.479,0,0,.231-.2.328-.168a3.055,3.055,0,0,1,.541.363c-.292.142-.505.328-.6.266Z" transform="translate(-1257.25 -492.394)" fill="#629081"/>
  </g>
</svg>
