<svg id="breedon" xmlns="http://www.w3.org/2000/svg" width="208.289" height="76.678" viewBox="0 0 208.289 76.678">
  <path id="Контур_1487" data-name="Контур 1487" d="M1709.21,598.38c-.762.47-1.223.771-1.7,1.046-9.751,5.549-19.5,11.125-29.368,16.586a9.307,9.307,0,0,1-4.237,1.135c-10.8.089-21.594,0-32.4,0h-1.64l-.133-.381c16.94-12.286,33.88-24.564,50.466-36.575C1696.578,586.324,1702.81,592.281,1709.21,598.38Z" transform="translate(-1590.355 -580.19)" fill="#033a89"/>
  <path id="Контур_1488" data-name="Контур 1488" d="M1754.636,618.683H1688.09a2.106,2.106,0,0,0,0-.248l42.647-24.165Z" transform="translate(-1595.846 -581.789)" fill="#fed201"/>
  <path id="Контур_1489" data-name="Контур 1489" d="M1815.407,632.459v29.8c-2.163,0-4.353.062-6.533-.053-.5,0-1.046-.612-1.409-1.073-3.643-4.592-7.242-9.2-10.859-13.811-.275-.355-.567-.709-1.135-1.418v16.275h-8.111V632.388c2.34,0,4.645-.062,6.95.044a2.483,2.483,0,0,1,1.454.993c3.546,4.432,7.012,8.935,10.513,13.412.23.3.47.594,1,1.259V632.459Z" transform="translate(-1607.118 -586.115)" fill="#033a89"/>
  <path id="Контур_1490" data-name="Контур 1490" d="M1606.457,647.114c-.364-.151-.709-.328-1.224-.559a7.489,7.489,0,0,0,4.184-4.556,7.092,7.092,0,0,0-6.542-9.246c-6.205-.452-12.41-.275-18.615-.363-.08,0-.168.142-.23.2v29.492c5.868,0,11.657.08,17.445-.053a14.354,14.354,0,0,0,4.867-1.117,7.091,7.091,0,0,0,4.672-7.092C1611.031,650.66,1609.409,648.435,1606.457,647.114Zm-14.431-7.978c2.181,0,4.308-.1,6.418,0,1.773.115,2.713,1.108,2.66,2.562s-.958,2.376-2.784,2.491c-2.057.124-4.14,0-6.329,0Zm9.113,15.814a4.841,4.841,0,0,1-2.473.656c-2.136.08-4.281,0-6.631,0v-5.4a70.634,70.634,0,0,1,7.641.089,4.619,4.619,0,0,1,2.828,1.924c.869,1.268-.505,2.083-1.365,2.686Z" transform="translate(-1584.03 -586.117)" fill="#033a89"/>
  <path id="Контур_1491" data-name="Контур 1491" d="M1779.28,643.582c-1.906-8.324-10.567-13.439-19.44-11.524-9.228,2.03-14.538,10.292-12.3,19.13,1.773,6.914,8.076,11.524,15.956,11.524C1774.049,662.783,1781.575,653.661,1779.28,643.582Zm-15.637,11.728c-3.785.115-8.209-3.847-8.164-8.217,0-4.166,4.282-8.182,8.031-7.889,4.432,0,7.721,3.546,7.677,8.155a7.766,7.766,0,0,1-7.544,7.952Z" transform="translate(-1602.539 -586.034)" fill="#033a89"/>
  <path id="Контур_1492" data-name="Контур 1492" d="M1637.86,651.951a3.247,3.247,0,0,1,.408-.355c4.494-2.509,6.311-6.081,5.549-10.912-.692-4.317-3.705-7.189-8.67-7.978a45.559,45.559,0,0,0-6.418-.337H1617.48V662.18h8.235v-8.962a8.66,8.66,0,0,0,1.374,0,3.067,3.067,0,0,1,3.546,1.773,71.022,71.022,0,0,0,4.122,6.205c.3.434.807.993,1.241,1.01,2.872.089,5.744.044,8.962.044Zm-2.26-8.74c-.044,1.9-1.294,3.147-3.439,3.43a7.151,7.151,0,0,1-.887.053h-5.531V639.6c2.26,0,4.432-.151,6.613.044a3.191,3.191,0,0,1,3.245,3.564Z" transform="translate(-1587.828 -586.114)" fill="#033a89"/>
  <path id="Контур_1493" data-name="Контур 1493" d="M1740.489,642.859c-1.6-5.975-5.992-9.184-11.869-10-4.335-.594-8.785-.346-13.19-.47h-2.739v29.794c4.432,0,8.661.124,12.88,0a16.284,16.284,0,0,0,10.584-3.847C1740.906,654.135,1742.076,648.781,1740.489,642.859Zm-13.509,11.71a50.82,50.82,0,0,1-5.939.479V639.526a48.462,48.462,0,0,1,6.258.6c3.492.789,5.318,3.546,5.318,7.34s-2.092,6.418-5.638,7.1Z" transform="translate(-1598.639 -586.117)" fill="#033a89"/>
  <path id="Контур_1494" data-name="Контур 1494" d="M1400.817,1546.334v6.994H1376.67V1523.65h23.969v6.9h-15.725v4.565h14.192v6.48h-14.174v4.742Z" transform="translate(-1317.597 -1477.289)" fill="#033a89"/>
  <path id="Контур_1495" data-name="Контур 1495" d="M1432.025,1546.287v7.065H1407.94V1523.7h23.916v6.87h-15.743v4.485h14.245v6.569H1416.1v4.663Z" transform="translate(-1321.148 -1477.295)" fill="#033a89"/>
</svg>
