<svg id="ethan-mason" xmlns="http://www.w3.org/2000/svg" width="214.131" height="83.996" viewBox="0 0 214.131 83.996">
  <path id="Контур_1223" data-name="Контур 1223" d="M1387.42,670.336c0,.585.39,1.4-.816,1.525s-1.285-.621-1.285-1.516V650.772l-.23-.062c-.762,1.773-1.56,3.546-2.26,5.319-1.9,4.831-3.759,9.671-5.629,14.511a1.72,1.72,0,0,1-1.773,1.33c-1.028,0-1.161-.7-1.445-1.409-2.553-6.427-5.124-12.845-7.978-19.236v19.209c0,1.037-.23,1.436-1.383,1.445s-1.17-.612-1.17-1.436V648.529c0-1.25.532-1.294,1.48-1.294,2.083,0,2.074,0,2.845,1.915,2.429,6.063,4.858,12.127,7.331,18.172.115.266-.062.957.612.833.443-.089.3-.541.417-.886,2.509-6.383,5.053-12.756,7.562-19.138.647-1.649,2.03-.762,3.076-.886s.692.833.7,1.339Q1387.464,659.477,1387.42,670.336Z" transform="translate(-1266.889 -588.304)" fill="#fefefe"/>
  <path id="Контур_1224" data-name="Контур 1224" d="M1493.054,671.757c-.886.053-1.879.585-2.659-.5-1.773-2.535-3.546-4.991-5.319-7.517-2.89-4.175-5.744-8.386-8.865-12.978v19.5c0,.514.434,1.294-.532,1.551s-1.613-.1-1.613-1.144v-22.33c0-.434-.213-1.064.576-1.073s1.844-.275,2.482.656,1.33,1.879,1.986,2.828l11.639,16.949a2.524,2.524,0,0,0,.222-1.587c0-5.842.044-11.692,0-17.534,0-1.144.381-1.33,1.418-1.365,1.241-.053,1.144.62,1.135,1.418v21.7C1493.506,670.852,1493.772,671.712,1493.054,671.757Z" transform="translate(-1279.447 -588.315)" fill="#fefefe"/>
  <path id="Контур_1225" data-name="Контур 1225" d="M1438.426,665.994a7.422,7.422,0,0,1-5.585,5.868,16.2,16.2,0,0,1-8.723-.452c-2.606-.949-4.485-2.659-4.672-5.647a2.955,2.955,0,0,0-.106-.612c-.381-1.6-.1-1.879,1.525-1.658.541.071.665.275.7.771.275,3.714,2.127,5.531,7.145,5.921a7.348,7.348,0,0,0,6.524-2.473,3.988,3.988,0,0,0,0-4.716c-1.285-1.489-3.094-1.924-4.866-2.394s-3.741-.762-5.558-1.312c-2.234-.683-3.989-1.773-4.583-4.432a6.64,6.64,0,0,1,4.379-7.65,9.043,9.043,0,0,1,3.838-.417,9.326,9.326,0,0,1,6.285,1.649,6.454,6.454,0,0,1,2.81,4.547c.062.425.417,1.232-.523,1.276-.718,0-1.773.346-1.9-.727-.257-2.278-1.667-3.5-3.608-4.282a8.5,8.5,0,0,0-6.205,0,4.131,4.131,0,0,0-1.551,6.976,5.845,5.845,0,0,0,2.411.984c2.518.815,5.141,1.188,7.659,2.039C1437.212,660.445,1438.727,662.785,1438.426,665.994Z" transform="translate(-1273.218 -588.261)" fill="#fefefe"/>
  <path id="Контур_1226" data-name="Контур 1226" d="M1466.278,654.952a10.805,10.805,0,0,0-5.017-6.746,12.615,12.615,0,0,0-6.968-1.383,9.9,9.9,0,0,0-6.7,2.659c-2.845,2.659-3.971,6.081-3.882,10.451a10.862,10.862,0,0,0,.425,3.546c1.055,3.484,2.952,6.347,6.409,7.774a11.781,11.781,0,0,0,7.251.683,10.548,10.548,0,0,0,7.34-5.319A15.069,15.069,0,0,0,1466.278,654.952Zm-3.652,11.471c-1.95,3-4.8,4.033-8.2,3.794a7.748,7.748,0,0,1-6.888-4.485c-2.234-4.716-2.225-9.423.886-13.82,1.773-2.517,4.432-3.147,7.4-3.129,5.319,0,8.421,4.964,8.545,9.006v1.587a11.186,11.186,0,0,1-1.747,7Z" transform="translate(-1276.001 -588.265)" fill="#fefefe"/>
  <path id="Контур_1227" data-name="Контур 1227" d="M1389.5,635.589c0,.886-.833.55-1.3.558h-23.358c-1.3,0-1.445-.514-1.436-1.587V598.872c0-1.285.31-1.631,1.622-1.622,7.508.071,15.016,0,22.525,0h.842c.364,0,.683.062.718.532s-.275.718-.762.709h-21.683c-2.234,0-1.959-.266-1.968,2.039v12.738c0,2.145-.222,1.924,1.87,1.932h19.369c.638,0,1.826-.55,1.844.585s-1.188.6-1.817.612h-19.573c-1.675,0-1.684,0-1.693,1.693v15.07c0,1.631,0,1.649,1.773,1.649h20.388a7.435,7.435,0,0,1,1.259,0C1388.62,635.013,1389.524,634.525,1389.5,635.589Z" transform="translate(-1266.883 -582.641)" fill="#cbfe17"/>
  <path id="Контур_1228" data-name="Контур 1228" d="M1414.676,670.116c-1.126-2.739-2.181-5.514-3.253-8.28-1.773-4.432-3.546-8.864-5.266-13.341a1.773,1.773,0,0,0-1.835-1.276c-1.436-.115-1.773.824-2.119,1.773q-2.819,7.021-5.647,14.05c-1.055,2.659-2.154,5.239-3.191,7.872-.142.372-.541.94.541.975a1.932,1.932,0,0,0,2.26-1.578c.346-1.383,1.037-2.659,1.463-4,.745-2.376.886-2.349,3.413-2.349h2.952c1.4,0,2.81.062,4.2,0,1.135-.062,1.853.239,2.03,1.436a4.527,4.527,0,0,0,.381.948l1.773,4.548a1.711,1.711,0,0,0,2.411.886C1415.837,671.392,1414.827,670.488,1414.676,670.116Zm-6.639-7.881h-8.643a95.318,95.318,0,0,1,3.439-9.13c.168-.443.426-.886.567-1.3.2-.638.4-1.773.771-1.773.78,0,.638,1.1.886,1.675,1.276,3.165,2.331,6.409,3.546,9.574.372.86.168.957-.568.957Z" transform="translate(-1270.265 -588.314)" fill="#fefefe"/>
  <path id="Контур_1229" data-name="Контур 1229" d="M1465.458,636.791c-.08-.718-.691-.488-1.152-.505-2.438-.106-2.446-.106-2.455-2.491V616.677a7.357,7.357,0,0,0-5.168-7.18c-1.7-.594-3.43-.3-5.15-.408a9.273,9.273,0,0,0-5.5,1.542,8.536,8.536,0,0,0-3.927,5.762c-.124.55-.523,1.6.372,1.773.665.124.683-.993.754-1.454a6.684,6.684,0,0,1,1.773-3.608c3.3-3.546,7.269-3.59,11.586-2.4a5.532,5.532,0,0,1,3.962,4.255,20.9,20.9,0,0,1,.08,2.908c.292,2.234-.709,3.227-3.36,3.776-3.209.665-6.524.222-9.751.842-2.526.5-4.92,1.188-6.374,3.608a8.271,8.271,0,0,0-.886,3.732c-.23,2.81.541,5.372,3.12,6.817a12.712,12.712,0,0,0,9.583,1.037,12.259,12.259,0,0,0,7.623-5.319,13.336,13.336,0,0,0,0,1.879c.381,2.659.957,3.413,3.679,3.271C1464.776,637.473,1465.547,637.721,1465.458,636.791Zm-6.613-4.432c-2.1,3.227-5.266,4.317-8.794,4.654a8.362,8.362,0,0,1-7.225-2.349c-2.092-2.225-1.959-4.858-.984-7.464.816-2.2,2.748-3.111,4.938-3.546,3.218-.585,6.506-.452,9.751-.886a6.506,6.506,0,0,0,3.1-.94c.771-.559.957-.2.957.541v3.306a9.956,9.956,0,0,1-1.746,6.719Z" transform="translate(-1275.607 -583.985)" fill="#cbfe17"/>
  <path id="Контур_1230" data-name="Контур 1230" d="M1493.26,635.588v1.463c0,.31-.284.425-.6.417s-.558-.115-.594-.426V618.267a8.129,8.129,0,0,0-5.629-7.819c-5.788-1.666-11.063,1.117-12.844,6.79a10.739,10.739,0,0,0-.5,3.422c.053,4.938,0,9.875,0,14.813v1.463c0,.487-.31.55-.709.523a.488.488,0,0,1-.514-.514c0-.408,0-.833,0-1.25V610.457c0-.5,0-1.019.727-.94.62.062.523.532.532.886v4.707a11.8,11.8,0,0,1,4.964-5.062c5.124-2.5,14.05-.94,14.919,6.808.248,2.145.284,4.264.319,6.391C1493.26,627.388,1493.26,631.492,1493.26,635.588Z" transform="translate(-1279.2 -583.97)" fill="#cbfe17"/>
  <path id="Контур_1231" data-name="Контур 1231" d="M1432.009,636.048c-.682,0-.355-.886-.355-1.4v-16.71a14,14,0,0,0-.727-4.007c-1.1-3.759-5.842-5.948-9.884-4.991-5.221,1.241-7.9,4.574-8.4,9.9-.47,5.008-.133,10.008-.284,15v1.675c0,.275-.053.558-.408.594s-.461-.23-.479-.523V598c0-.266,0-.585.372-.612.505,0,.514.355.523.7v16.08a3.338,3.338,0,0,0,.053.727c.346-.133.169-.479.284-.709,1.126-2.145,2.385-4.211,4.636-5.319,4.432-2.252,12.916-1.773,14.821,5.319a6.941,6.941,0,0,1,.328,1.773v18.793C1432.453,635.162,1432.816,636.093,1432.009,636.048Z" transform="translate(-1272.342 -582.657)" fill="#cbfe17"/>
  <path id="Контур_1232" data-name="Контур 1232" d="M1399.194,610.747c0,7.092-.071,14.183.071,21.275,0,2.163,1.135,3.422,3.36,3.147a14.922,14.922,0,0,1,1.888,0c.443,0,.6.248.585.665a.568.568,0,0,1-.479.558,5.621,5.621,0,0,1-5.682-1.773,6.2,6.2,0,0,1-.993-3.723V611.482c0-2.048.239-1.773-1.959-1.835h-2.314c-.487,0-.807-.133-.762-.709s.346-.532.709-.541c1.055,0,2.11-.053,3.156,0s1.214-.275,1.188-1.179c-.053-2.154,0-4.317,0-6.471,0-.425-.239-1.055.541-1.108.957-.071.692.674.7,1.161v5.842c0,1.941-.133,1.729,1.853,1.773h3.546c.426,0,.886,0,.886.594s-.372.647-.815.647h-4.432C1399.452,609.647,1399.194,609.931,1399.194,610.747Z" transform="translate(-1270.234 -582.912)" fill="#cbfe17"/>
  <rect id="Прямоугольник_277" data-name="Прямоугольник 277" width="20.725" height="41.025" transform="translate(61.139 15.912)" fill="#88796d"/>
  <rect id="Прямоугольник_278" data-name="Прямоугольник 278" width="40.919" height="24.661" transform="translate(40.954 57.681)" fill="#484130"/>
  <rect id="Прямоугольник_279" data-name="Прямоугольник 279" width="24.785" height="24.661" transform="translate(15.309 57.681)" fill="#fefefe"/>
  <path id="Контур_1233" data-name="Контур 1233" d="M1026.172,1520.552l-45.652-8.412L988,1471.93l45.661,8.412Z" transform="translate(-980.52 -1471.93)" fill="#cbfe17"/>
</svg>
