<svg id="forticrete" xmlns="http://www.w3.org/2000/svg" width="221.013" height="75.789" viewBox="0 0 221.013 75.789">
  <path id="path0" d="M44.038,22.243C43.7,22.427,41.669,23.594,32.3,29L25.62,32.849c-1.671.963-3.132,1.834-3.246,1.937l-.207.188V60.6l.207.19c.114.1,1.989,1.216,4.167,2.47s6.094,3.511,8.7,5.017c10.59,6.112,9.128,5.416,10.151,4.829.419-.24,3.29-1.9,6.38-3.679l10.29-5.938c4.511-2.6,4.677-2.707,4.77-3.03.066-.228.088-4.319.07-12.879l-.028-12.545-.23-.224c-.207-.2-1.826-1.147-11.235-6.568-1.494-.86-4.482-2.584-6.639-3.83-4.362-2.518-4.218-2.453-4.734-2.174m-.322,4.787V29.8l-.627-.352c-1.91-1.074-4.156-2.385-4.159-2.426s4.6-2.74,4.716-2.753c.038,0,.069,1.239.069,2.762m6.241-.129c10.128,5.84,14.435,8.334,14.5,8.394s-5.23,3.16-5.49,3.221c-.087.02-10.288-5.792-13.29-7.572l-.391-.232V27.485c0-1.774.022-3.225.049-3.225s2.109,1.188,4.627,2.641M36.533,31.166c0,1.519-.022,2.763-.049,2.763-.086,0-4.74-2.713-4.74-2.763s4.606-2.74,4.72-2.754c.038,0,.069,1.235.069,2.754m4.006-1.382,9.426,5.435c6.941,4,7.386,4.273,7.183,4.384-.119.065-1.393.8-2.832,1.626L51.7,42.737,46.58,39.778c-2.816-1.627-5.876-3.391-6.8-3.92L38.1,34.9l0-3.249,0-3.249.207.108c.114.06,1.119.635,2.233,1.279M29.35,35.31c0,1.519-.028,2.763-.061,2.763-.109,0-4.727-2.684-4.727-2.748s4.593-2.759,4.72-2.771c.038,0,.069,1.237.069,2.756m7.091.422c2.71,1.56,5.248,3.02,5.641,3.244a6.2,6.2,0,0,1,.755.473c.023.036-1.211.792-2.741,1.679l-2.781,1.613-.368-.217c-.2-.119-1.643-.948-3.2-1.841l-2.832-1.625V32.533l.3.181c.165.1,2.516,1.458,5.226,3.018m104.648.489a2.544,2.544,0,1,0,.865-.035,3.6,3.6,0,0,0-.865.035m-60.735.15c-.455.248-.447.036-.447,11.685,0,10.259.01,10.988.161,11.286.224.444.445.478,2.8.446L84.9,59.76l.222-.259.222-.258v-9.2h8.186l.258-.222.259-.223V46.161l-.259-.222-.258-.223H85.34V40.651h4.305c5.641,0,5.109.212,5.376-2.152.2-1.775.187-1.932-.193-2.128-.4-.2-14.1-.2-14.475,0m-54.77,1.405c1.033.6,2.3,1.326,2.822,1.622l.944.537V55.639l-1.174.672c-.646.37-1.913,1.1-2.816,1.623s-1.659.95-1.681.95-.039-4.994-.039-11.1.015-11.1.033-11.1.878.488,1.911,1.084M65.316,42.2c-.031.03-4.588-2.518-4.819-2.695-.014-.01,1.064-.647,2.394-1.414l2.418-1.4.024,2.731c.013,1.5,0,2.75-.018,2.774m65.653-3.69c-2.484.328-2.967.414-3.177.569l-.23.169-.025,1.993-.025,1.993h-.784c-1.476,0-1.638.2-1.591,1.962.041,1.533.045,1.538,1.326,1.538h.945l.041,4.673c.05,5.65.127,6.135,1.172,7.322,1.475,1.676,5.461,2.029,8.377.743.949-.419.939-.38.6-2.221-.316-1.711-.3-1.694-1.534-1.357-1.675.455-2.637.358-3.086-.31-.372-.552-.395-.838-.4-4.914V46.729h2.026c2.607,0,2.536.059,2.471-2.014-.046-1.5.071-1.432-2.474-1.469l-2.023-.029V38.893l-.226-.226c-.229-.229-.575-.269-1.386-.162m62.989.175c-2.3.323-2.164.154-2.164,2.705v1.827l-.929.031c-1.332.046-1.373.1-1.373,1.833,0,1.67-.014,1.653,1.329,1.653h.96l.035,4.811c.043,5.784.089,6.044,1.292,7.317,1.459,1.543,5.124,1.842,8.083.66,1.085-.433,1.09-.45.764-2.168-.332-1.751-.36-1.788-1.2-1.558-3.682,1.012-3.9.71-3.9-5.448V46.729h2.014c1.9,0,2.027-.011,2.256-.191l.243-.191V43.6l-.249-.164c-.215-.14-.52-.167-2.21-.193l-1.961-.029v-1.95c0-3.136.128-3.025-2.993-2.586M48.182,42.5l2.67,1.536v7.5l-3.174,1.828L44.5,55.2l-.371-.214-3.2-1.847L38.1,51.5V44.078l3.2-1.845,3.2-1.845.507.289c.279.159,1.709.981,3.178,1.826M61.734,42l2.813,1.627-.448.265c-.412.245-9.928,5.739-11.114,6.418l-.522.3V44.1l3.016-1.733c1.659-.953,3.1-1.789,3.2-1.855a1.63,1.63,0,0,1,.212-.128c.015,0,1.294.728,2.842,1.622M35.405,43.437l1.129.645-.024,7.872-.024,7.872-2.625,1.517c-1.443.834-2.7,1.556-2.785,1.6-.153.084-.161-.467-.161-11.008v-11.1l1.681.974c.924.536,2.189,1.265,2.809,1.619m67.155-.578c-5.14.666-8.02,4.758-7.28,10.342.675,5.1,4.895,7.879,10.365,6.834,4.188-.8,6.54-3.9,6.528-8.609-.014-5.863-3.883-9.31-9.613-8.567m19.016,0A4.588,4.588,0,0,0,118.9,44.29c-.639.639-.681.627-.684-.209,0-.775-.4-.894-2.813-.839l-1.44.033-.222.259-.222.258V59.313l.238.223c.237.223.244.223,2.31.223h2.073l.222-.259.223-.258V48.679l.345-.266a4.019,4.019,0,0,1,3.035-.974c.846.008,1.149-.021,1.228-.116a20.856,20.856,0,0,0,.631-4.113c-.179-.334-1.3-.509-2.246-.353m31.778,0a7.866,7.866,0,0,0-7.279,7.127c-1.083,7.293,4.054,11.735,11.451,9.9,2.307-.573,2.619-.873,2.274-2.192-.645-2.467-.582-2.411-2.128-1.878a6.938,6.938,0,0,1-4.3.093q-2.125-1.044-2.137-4.347c-.015-3.991,2.5-5.6,6.6-4.214,1.244.418,1.182.471,1.592-1.36.38-1.7.393-1.969.1-2.159-1.067-.7-4.3-1.207-6.18-.97m16.937-.033a4.578,4.578,0,0,0-2.773,1.434l-.656.633-.064-.65c-.094-.963-.109-.969-2.35-.969-1.937,0-2.148.043-2.311.472-.053.139-.088,3.253-.088,7.863v7.632l.222.258.222.259,1.827.029c3.144.05,2.794.769,2.794-5.734v-5.29l.3-.284a4.588,4.588,0,0,1,3.4-1.053c.769.059.8.054.937-.157a22.98,22.98,0,0,0,.664-4.032c-.1-.3-1.3-.535-2.121-.409m9.861.037c-4.519.71-7.158,3.856-7.182,8.561-.025,5.04,2.566,8.095,7.4,8.717a16.666,16.666,0,0,0,6.854-.8c1.46-.531,1.508-.669.941-2.658-.473-1.656-.451-1.643-1.844-1.165-4.011,1.373-7.2.462-7.951-2.274l-.094-.345h4.9c6.459,0,5.963.208,5.787-2.439-.364-5.457-3.76-8.386-8.8-7.594m29.737.007c-4.647.67-7.413,4.2-7.2,9.2.269,6.349,5.444,9.444,12.85,7.685,2.786-.661,2.953-.876,2.36-3.037-.465-1.7-.445-1.685-1.846-1.2-3.973,1.372-7.1.5-7.918-2.2l-.124-.414,4.945,0c6.411-.007,5.948.193,5.744-2.481-.417-5.468-3.7-8.277-8.81-7.541m-69.929.446a1.274,1.274,0,0,0-.507.274l-.2.2-.024,7.618c-.027,8.542-.054,8.164.609,8.332a13.959,13.959,0,0,0,4.27-.188l.209-.209.027-7.572c.029-8.22.034-8.1-.326-8.332a16.06,16.06,0,0,0-4.063-.118m-74.624,5.9-.025,1.369-2.416-1.395a14.057,14.057,0,0,1-2.3-1.459l2.415-1.4,2.3-1.337.025,1.427c.014.785.014,2.043,0,2.8m117.21-2.23a2.915,2.915,0,0,1,1.421,2.327v.365h-5.632l.062-.3c.414-2.007,2.525-3.225,4.149-2.392m29.747,0a2.818,2.818,0,0,1,1.393,2.192l.051.5h-5.666l.06-.3c.4-1.992,2.543-3.225,4.162-2.392m-107.24.084c2.636,1.177,2.574,7.715-.085,8.894-2.883,1.278-5.05-1.582-4.432-5.851.377-2.607,2.417-3.98,4.517-3.043M61.618,50.245c1.423.819,2.662,1.539,2.754,1.6.145.1-.163.3-2.395,1.589-10.257,5.921-16.638,9.595-16.664,9.595s-.03-1.461-.029-3.246l0-3.246,1.4-.8c.771-.441,3.805-2.191,6.743-3.887s5.4-3.085,5.47-3.088,1.293.666,2.717,1.486M41,54.971l2.718,1.566-.022,3.726-.022,3.726-2.21,1.276c-1.216.7-2.469,1.422-2.785,1.6l-.576.323V60.266c0-4.458.032-6.911.09-6.892s1.313.735,2.807,1.6m24.361,1.157a26.519,26.519,0,0,1-.069,2.731c-.038-.02-1.136-.65-2.441-1.4L60.475,56.1l2.372-1.368c1.3-.752,2.4-1.368,2.441-1.369s.069,1.244.069,2.767m-3.595,2.517,2.776,1.6-.534.32c-.294.176-2.689,1.563-5.323,3.081l-9.044,5.215c-2.341,1.35-4.278,2.454-4.306,2.454s-.04-1.458-.027-3.24l.024-3.24,3.822-2.2c2.1-1.211,5.127-2.962,6.723-3.889s2.949-1.691,3.007-1.7,1.356.714,2.883,1.6M29.35,60.266c0,1.519-.022,2.763-.049,2.763-.132,0-4.737-2.726-4.715-2.791.027-.081,4.578-2.73,4.695-2.733.038,0,.069,1.242.069,2.761m7.183,4.152a23.346,23.346,0,0,1-.08,2.739c-.234-.091-4.709-2.7-4.709-2.742s4.6-2.752,4.72-2.762c.038,0,.069,1.24.069,2.764m7.147,6.873c-.046.045-4.755-2.668-4.749-2.737,0-.026,1.069-.658,2.371-1.406l2.367-1.359.025,2.731c.013,1.5.007,2.748-.014,2.77" transform="translate(-9.919 -9.894)" fill="#fbfbfb" fill-rule="evenodd"/>
  <path id="path1" d="M1.387.217A2.646,2.646,0,0,0,.207,1.4L0,1.816v36.07C0,73.794,0,73.959.185,74.362a2.681,2.681,0,0,0,1.224,1.223l.407.2H219.181l.408-.186a2.626,2.626,0,0,0,1.238-1.238c.185-.407.186-.5.186-36.479V1.816l-.207-.42A2.583,2.583,0,0,0,219.589.186L219.181,0H1.793L1.387.217M38.853,14.523c2.157,1.245,5.145,2.969,6.639,3.83C54.9,23.774,56.52,24.72,56.727,24.921l.23.224.028,12.545c.018,8.56,0,12.651-.07,12.879-.093.323-.259.428-4.77,3.03l-10.29,5.938c-3.09,1.783-5.96,3.438-6.38,3.679-1.023.587.44,1.282-10.151-4.829-2.608-1.506-6.524-3.763-8.7-5.017S12.569,51,12.455,50.9l-.207-.19V25.08l.207-.188c.114-.1,1.575-.975,3.246-1.937l6.676-3.848c13.518-7.8,12.043-6.973,12.331-6.9.122.03,1.987,1.074,4.144,2.319m-7.52,1.207c-1.279.741-2.323,1.37-2.322,1.4s2.249,1.352,4.159,2.426l.627.352V17.136c0-1.523-.031-2.767-.069-2.762s-1.116.615-2.395,1.356m4.029,1.861v3.226l.391.232c3,1.78,13.2,7.592,13.29,7.572.26-.061,5.549-3.163,5.49-3.221-.1-.1-19.047-11.034-19.123-11.034-.027,0-.049,1.451-.049,3.225M24.15,19.875c-1.279.741-2.325,1.37-2.325,1.4,0,.05,4.654,2.763,4.74,2.763.027,0,.049-1.243.049-2.763s-.031-2.759-.069-2.754-1.116.616-2.395,1.357m4.031,1.878,0,3.249,1.679.963c.923.529,3.983,2.294,6.8,3.92l5.121,2.958L44.4,31.335c1.438-.83,2.712-1.561,2.832-1.626.2-.111-.242-.382-7.183-4.384L30.62,19.89c-1.114-.644-2.12-1.219-2.233-1.279l-.207-.108,0,3.249M16.967,24.018c-1.279.744-2.325,1.38-2.325,1.413,0,.064,4.618,2.748,4.727,2.748.034,0,.061-1.243.061-2.763s-.031-2.76-.069-2.756-1.116.614-2.395,1.358M21,25.9v3.263l2.832,1.625c1.558.893,3,1.722,3.2,1.841l.368.217,2.781-1.613c1.53-.887,2.763-1.643,2.741-1.679a6.2,6.2,0,0,0-.755-.473C30.837,28.327,21.6,23,21.3,22.82l-.3-.181V25.9m112.01.6a2.526,2.526,0,0,1,1.316,3.378c-1.187,2.508-5.213,1.713-5.213-1.03a2.727,2.727,0,0,1,3.9-2.348m-48.1-.028c.38.2.394.353.193,2.128-.267,2.364.265,2.151-5.376,2.152H75.421v5.065h8.186l.258.223.259.222v3.439l-.259.223-.258.222H75.421v9.2l-.222.258-.222.259-2.025.028c-2.358.032-2.578,0-2.8-.446-.151-.3-.161-1.027-.161-11.286,0-11.649-.008-11.437.447-11.685.376-.2,14.079-.2,14.475,0M13.721,37.894c0,6.1.018,11.1.039,11.1s.778-.428,1.681-.95,2.17-1.253,2.816-1.623l1.174-.672V30.041l-.944-.537c-.519-.3-1.789-1.025-2.822-1.622S13.772,26.8,13.754,26.8s-.033,4.994-.033,11.1m39.252-9.7c-1.33.767-2.408,1.4-2.394,1.414.231.177,4.788,2.725,4.819,2.695s.031-1.272.018-2.774L55.391,26.8l-2.418,1.4m69.463.581.226.226v4.324l2.023.029c2.546.037,2.428-.033,2.474,1.469.064,2.073.136,2.014-2.471,2.014h-2.026v3.937c0,4.077.023,4.362.4,4.914.45.668,1.412.765,3.086.31,1.238-.336,1.218-.354,1.534,1.357.34,1.84.35,1.8-.6,2.221-2.916,1.286-6.9.933-8.377-.743-1.045-1.187-1.122-1.672-1.172-7.322l-.041-4.673h-.945c-1.281,0-1.285,0-1.326-1.538-.047-1.761.115-1.962,1.591-1.962h.784l.025-1.993.025-1.993.23-.169c.211-.155.693-.241,3.177-.569.811-.107,1.157-.067,1.386.162m64.23-.133c.292.157.365.7.366,2.732v1.95l1.961.029c1.69.025,2,.052,2.21.193l.249.164v2.745l-.243.191c-.229.18-.359.191-2.256.191H186.94V40.45c0,6.158.217,6.46,3.9,5.448.837-.23.865-.193,1.2,1.558.326,1.718.32,1.735-.764,2.168-2.959,1.181-6.624.882-8.083-.66-1.2-1.273-1.249-1.533-1.292-7.317l-.035-4.811h-.96c-1.343,0-1.329.017-1.329-1.653,0-1.733.041-1.787,1.373-1.833l.929-.031V31.492c0-1.947.039-2.192.381-2.371a15.559,15.559,0,0,1,4.41-.48m-155.287,3.7-3.2,1.845v7.424l2.832,1.632,3.2,1.847.371.214,3.174-1.828,3.174-1.828v-7.5l-2.67-1.536c-1.469-.845-2.9-1.666-3.178-1.826l-.507-.289-3.2,1.845m17.382-1.726c-.1.067-1.542.9-3.2,1.855L42.545,34.2v6.514l.522-.3c1.186-.679,10.7-6.173,11.114-6.418l.448-.265-2.813-1.627c-1.548-.895-2.826-1.624-2.842-1.622a1.629,1.629,0,0,0-.212.128M21,42.045c0,10.54.008,11.092.161,11.008.088-.049,1.342-.771,2.785-1.6l2.625-1.517.024-7.872.024-7.872-1.129-.645c-.62-.355-1.885-1.084-2.809-1.619L21,30.949v11.1m75.25-8.9c3.9.851,6,3.775,6.008,8.382.012,4.706-2.341,7.809-6.528,8.609-5.47,1.045-9.69-1.737-10.365-6.834-.923-6.964,4.088-11.64,10.885-10.157m17.333-.094c.431.164.437.3.106,2.341-.378,2.335-.246,2.161-1.642,2.149a4.019,4.019,0,0,0-3.034.974l-.345.266V49.349l-.223.258-.222.259h-2.073c-2.066,0-2.073,0-2.31-.223l-.238-.223V33.9l.222-.258.222-.259,1.44-.033c2.411-.055,2.811.064,2.813.839,0,.835.045.848.684.209a4.728,4.728,0,0,1,4.6-1.341m33.5.059a10.939,10.939,0,0,1,2.531.823c.29.19.277.464-.1,2.159-.411,1.831-.349,1.778-1.592,1.36-4.1-1.382-6.617.222-6.6,4.214q.012,3.3,2.137,4.347a6.938,6.938,0,0,0,4.3-.093c1.547-.533,1.483-.59,2.128,1.878.345,1.319.034,1.619-2.274,2.192-7.4,1.835-12.534-2.606-11.451-9.9.783-5.272,5.168-8.072,10.929-6.979m15.063-.048c.422.147.429.277.111,2.272-.37,2.323-.339,2.273-1.366,2.195a4.588,4.588,0,0,0-3.4,1.053l-.3.284v5.29c0,6.5.35,5.783-2.794,5.734l-1.827-.029-.222-.259-.222-.258V41.717c0-4.61.035-7.724.088-7.863.163-.429.374-.472,2.311-.472,2.242,0,2.256.006,2.35.969l.064.65.656-.633a4.585,4.585,0,0,1,4.549-1.3m11.715.085c3.267.934,4.9,3.269,5.173,7.413.176,2.648.672,2.439-5.787,2.439h-4.9l.094.345c.753,2.736,3.94,3.647,7.951,2.274,1.393-.477,1.371-.491,1.844,1.165.567,1.99.519,2.127-.941,2.658-4.019,1.46-8.644,1.107-11.225-.857-3.888-2.959-4.168-9.98-.536-13.418a9.25,9.25,0,0,1,8.322-2.021m28.916-.178c3.651.592,5.664,3.122,6,7.545.2,2.675.667,2.475-5.744,2.481l-4.945,0,.124.414c.814,2.7,3.945,3.577,7.918,2.2,1.4-.483,1.381-.5,1.846,1.2.592,2.161.425,2.376-2.36,3.037-8.206,1.949-13.788-2.3-12.794-9.738a8.437,8.437,0,0,1,9.954-7.15m-68.675.569c.36.236.355.112.326,8.332l-.027,7.572-.209.209a13.959,13.959,0,0,1-4.27.188c-.664-.168-.636.21-.609-8.332l.024-7.618.2-.2c.4-.4,4.015-.519,4.569-.155M53.089,36.434l-2.415,1.4a14.056,14.056,0,0,0,2.3,1.459l2.416,1.395.025-1.369c.014-.753.014-2.011,0-2.8L55.391,35.1l-2.3,1.337m117.486.529a3.494,3.494,0,0,0-2.1,2.52l-.062.3h5.632v-.365a2.666,2.666,0,0,0-3.472-2.454m29.57.057a3.71,3.71,0,0,0-1.934,2.463l-.06.3h5.666l-.051-.5a2.627,2.627,0,0,0-3.621-2.263M92.752,37.1c-3.055,1.09-3.029,8.2.034,9.092,2.569.746,4.231-1.067,4.224-4.61C97,38.005,95.281,36.195,92.752,37.1m-49.24,4.857c-2.938,1.7-5.972,3.445-6.743,3.887l-1.4.8,0,3.246c0,1.785.012,3.246.029,3.246s6.407-3.674,16.664-9.595c2.232-1.288,2.539-1.492,2.395-1.589-.6-.4-5.366-3.09-5.471-3.086-.071,0-2.532,1.392-5.47,3.088M28.179,50.373v6.922l.576-.323c.317-.178,1.57-.9,2.785-1.6L33.75,54.1l.022-3.726.022-3.726-2.718-1.566c-1.495-.861-2.758-1.579-2.807-1.6s-.09,2.433-.09,6.892m24.748-5.536L50.556,46.2l2.372,1.362c1.3.749,2.4,1.379,2.441,1.4a26.52,26.52,0,0,0,.069-2.731c0-1.523-.031-2.768-.069-2.767s-1.136.617-2.441,1.369m-6.975,4.015c-1.6.928-4.621,2.678-6.723,3.889l-3.822,2.2-.024,3.24c-.014,1.782,0,3.24.027,3.24s1.965-1.1,4.306-2.454l9.044-5.215c2.634-1.518,5.029-2.9,5.323-3.081l.534-.32-2.776-1.6c-1.527-.881-2.824-1.6-2.883-1.6s-1.412.767-3.007,1.7m-28.96.09c-1.265.73-2.312,1.361-2.326,1.4-.022.065,4.583,2.791,4.715,2.791.027,0,.049-1.243.049-2.763s-.031-2.762-.069-2.761-1.1.6-2.369,1.329m7.157,4.175c-1.279.743-2.325,1.375-2.325,1.405,0,.046,4.476,2.652,4.709,2.742a23.345,23.345,0,0,0,.08-2.739c0-1.524-.031-2.768-.069-2.764s-1.116.614-2.395,1.356m7.233,4.139c-1.3.748-2.369,1.38-2.371,1.406-.006.069,4.7,2.782,4.749,2.737.021-.022.028-1.268.014-2.77L33.75,55.9l-2.367,1.359" fill="#646c6c" fill-rule="evenodd"/>
</svg>
