<svg id="global-stone" xmlns="http://www.w3.org/2000/svg"  viewBox="0 0 221.497 67.37">
  <path id="Контур_1496" data-name="Контур 1496" d="M1173.307,423.61H951.81V356.24h221.5ZM953.468,421.9h218.12V357.561H953.751c-.044,0-.089.053-.124.089l-.1.089Z" transform="translate(-951.81 -356.24)" fill="#fefefe"/>
  <path id="Контур_1497" data-name="Контур 1497" d="M953.7,422.069V357.907l.1-.089s.08-.089.124-.089h217.9v64.339Zm127.711-22.729-.16-.16c.319-1.046.222-1.551-.354-1.888a1.658,1.658,0,0,0-2.074.177,1.25,1.25,0,0,0-.426.824,5.6,5.6,0,0,0,.532,1.3,4.131,4.131,0,0,0-.532.337c-.886.8-.948,1.773,0,2.4a2.518,2.518,0,0,0,1.339.408c1.161-.053,2.314-.23,3.546-.372l-1.037-.807.151-1.542,1.206-.408A4.051,4.051,0,0,0,1081.411,399.34Zm-27.6-21.771c2.092.177,2.243.337,2.243,2.385v9.317a2.216,2.216,0,0,1-.665,1.853,13.284,13.284,0,0,1-1.87,0,1.9,1.9,0,0,1-1.117-.514,5.136,5.136,0,0,1-.886-1.507c-.488-1.17-.887-2.385-1.356-3.546-.94-2.19-1.835-4.388-2.659-6.622-.39-1.09-.975-2.1-1.454-3.111h-1.321c-1.152,2.89-2.3,5.726-3.4,8.581-.568,1.48-1.223,2.925-1.773,4.432a3.173,3.173,0,0,1-2.588,2.456l.124,1.463c1.906-.089,3.688.1,5.5-.115l-.062-1.409c-.39-.044-.718-.053-1.028-.115-.887-.16-1.055-.514-.709-1.365.222-.532.452-1.055.656-1.525h4.991c.053.984,1.09,1.675.718,2.73-1.675.381-1.675.381-1.445,1.693h23.048v-5.425h-1.037c-.231.541-.417,1.09-.674,1.6a3.643,3.643,0,0,1-3.732,2.3c-.488-.044-.984,0-1.472,0a1.436,1.436,0,0,1-1.542-1.312,4.266,4.266,0,0,1,0-.824v-9.21a4.613,4.613,0,0,1,0-.5c.106-1.161.514-1.542,1.711-1.64a4.131,4.131,0,0,0,.532-.115v-1.4h-8.749Zm-30.7.124a6.324,6.324,0,0,1,.461,1.188,13.472,13.472,0,0,1,.283,2.385c0,2.447.053,4.9,0,7.358,0,2.074-.31,2.358-2.181,2.659v1.409c3.413,0,6.737.053,10.061,0a8.1,8.1,0,0,0,2.961-.674,3.75,3.75,0,0,0,1.773-1.542c1.161-2.278.55-4.335-1.268-5.487a2.916,2.916,0,0,0-1.906-.789c-.151,0-.346-.284-.558-.47a10.341,10.341,0,0,0,1.471-.523c2.039-1.152,2.784-3.28,1.569-4.973a4.343,4.343,0,0,0-2.659-1.773,19.03,19.03,0,0,0-3.546-.381c-1.773-.053-3.608,0-5.407,0a21.12,21.12,0,0,0-2.438.275v1.268Zm-11.79,15.371c3.874,0,6.551-1.161,8.413-3.927a7.721,7.721,0,0,0,1.409-4.982,9.309,9.309,0,0,0-1.7-4.689c-1.773-2.491-4.3-3.4-7.145-3.705a9.61,9.61,0,0,0-5.15,1.117,7.979,7.979,0,0,0-4.3,5.319,8.687,8.687,0,0,0,.089,4.9,6.959,6.959,0,0,0,2.783,4.1A9.512,9.512,0,0,0,1011.319,393.064Zm103.44-.053a8.218,8.218,0,0,0,6.126-1.906c1.888-1.569,3.209-3.44,3.094-6.037v-2.119a3.035,3.035,0,0,0-.168-.931c-1.6-4.1-4.193-5.966-8.811-6.258a10.283,10.283,0,0,0-4.22.886,8.067,8.067,0,0,0-5.186,7.216,10.531,10.531,0,0,0,.886,4.5,6.968,6.968,0,0,0,3.475,3.6A7.63,7.63,0,0,0,1114.759,393.011Zm9.937-15.451c1.622.248,2.225.886,2.225,2.456v9.148a1.579,1.579,0,0,1-.63,1.409,12.312,12.312,0,0,1-1.6.78v1.285h6.152c0-.541-.053-.993-.08-1.436-1.773-.213-2.154-.541-2.216-2.012v-8.173l3.129,3.448c2.34,2.588,4.76,5.124,6.968,7.819a1.72,1.72,0,0,0,2.039.629c0-4.228,0-8.368,0-12.508a3.545,3.545,0,0,1,.753-2.243c.3-.4.984-.514,1.587-.8l-.133-1.232h-6.037c0,.266-.053.479-.053.683a2.85,2.85,0,0,0,.071.753c1.835.08,2.225.833,2.252,2.349v6.205c-1.507-1.711-2.783-3.173-4.086-4.627-1.472-1.631-2.969-3.244-4.432-4.867a1.578,1.578,0,0,0-1.294-.532h-4.264a1.843,1.843,0,0,0-.346.133Zm-147.018,8.776c1.773.381,1.906.541,1.906,2.252v.656a1.773,1.773,0,0,1-1.161,1.773,4.707,4.707,0,0,1-2.854.346,3.821,3.821,0,0,1-2.863-2.748c-.16-1.445-.266-2.9-.31-4.352,0-.683.293-1.374.266-2.057a4.432,4.432,0,0,1,6.205-4.228,5.85,5.85,0,0,1,2.659,2.872c.479.966.417.993,1.569.886v-5.664h-1.463c-.195.558.142,1.214-.532,1.507a8.626,8.626,0,0,0-5.514-1.862,10.141,10.141,0,0,0-3.227.887,7.739,7.739,0,0,0-4.512,4.955,8.59,8.59,0,0,0,.886,7.7,7.8,7.8,0,0,0,6.276,3.705,12.881,12.881,0,0,0,4.8-.55,24.2,24.2,0,0,1,4.352-.576V388.1a1.489,1.489,0,0,1,.824-1.6c.771-.319.434-.824.47-1.339h-7.783Zm166.36-8.749.754.053c1.436.106,1.489.142,1.489,1.507v10.637c0,1.135-.062,1.179-1.135,1.347-1.205.2-1.205.2-.931,1.516h15.123v-5.425c-1.223-.053-1.223,0-1.551.709-.213.488-.417.975-.674,1.436a2.765,2.765,0,0,1-2.207,1.675,26.658,26.658,0,0,1-2.792,0,1.126,1.126,0,0,1-1.214-1.055,37.2,37.2,0,0,1,0-5.168c1.037,0,2.048-.266,2.775.443a5,5,0,0,1,.718,1.578l.957-.115v-5.461h-1.028a1.129,1.129,0,0,0-.177.284c-.425,1.622-.452,1.649-2.03,1.649-.416,0-.886-.053-1.214-.08V377.64h3.546a1.773,1.773,0,0,1,1.666.807c.248.346.461.718.683,1.09.488.824.488.824,1.578.532v-3.111c0-.292-.275-.567-.417-.842-4.991-.2-13.616-.106-13.9.168Zm-65.455,13.589a6.693,6.693,0,0,0,5.319,1.879,5.823,5.823,0,0,0,3.3-1.534,5.283,5.283,0,0,0-1.232-8.209c-1.33-.842-2.872-1.347-4.29-2.057a3.5,3.5,0,0,1-1.1-.94c-.479-.612-.337-2.3.24-2.509a2.925,2.925,0,0,1,2.163-.346,3.8,3.8,0,0,1,2.358,2.021l.78,1.667h1.1a37.853,37.853,0,0,0,0-5.017c-1.09,0-1.09,0-1.649,1.019-.4-.213-.807-.39-1.17-.629a4.308,4.308,0,0,0-4.734-.151,4.822,4.822,0,0,0-.142,8.74c1.223.674,2.464,1.312,3.679,1.986a12.128,12.128,0,0,1,1.161.842,1.7,1.7,0,0,1,.523,2.181,1.932,1.932,0,0,1-2.057,1.276,4.024,4.024,0,0,1-3.377-1.888,25.209,25.209,0,0,1-1.241-2.659h-1.285c-.248,2.438-.2,5.212.071,5.487h1.294Zm10.336-10.4c1.285.115,1.285.115,1.578-.931.461-1.631,1.188-2.163,2.925-2.172h1.675v11.692c0,1.161-.426,1.622-1.418,1.773-1.214.177-1.214.177-.984,1.525,3.546.186,8.678.115,8.971-.168a4.592,4.592,0,0,0,0-.594,3.67,3.67,0,0,0-.133-.718l-1.826-.115a11.721,11.721,0,0,1-.31-1.9V377.8c3.244-.3,3.812.071,4.769,3.049h1.365v-4.672h-16.577ZM986.543,392.63h15.291v-5.478l-1.409.08a8.982,8.982,0,0,1-.683,1.888,3.892,3.892,0,0,1-3.617,1.995c-2.846-.062-3.076-.213-3.076-3v-8.661c.08-1.374.47-1.729,1.888-1.773a4.5,4.5,0,0,0,.6-.089c0-1.347,0-1.472-.762-1.472h-8.226v1.454a2.068,2.068,0,0,0,.364.106c1.622.106,1.861.337,1.861,1.941v9.636a2.252,2.252,0,0,1-.523,1.773C986.525,391.229,986.525,391.229,986.543,392.63Zm-17.011,9.831H971.9l-1.126-.425v-3.289c.408.47.692.78.949,1.108.62.807,1.2,1.649,1.861,2.411.186.2.612.2,1.046.319v-3.927a1.182,1.182,0,0,1,.886-1.294H972.98c1.232.816.514,1.9.488,2.925l-2.225-2.916h-1.684a4.1,4.1,0,0,1,.505,1.179,24.046,24.046,0,0,1,0,3.094C970.064,401.9,969.736,402.159,969.532,402.46Zm144.057,0c-1.2-.6-1.471-1.631-2.074-2.473,1.427-.381.886-1.392.886-2.2a6.4,6.4,0,0,0-4.432-.372c1.117.6.541,1.64.567,2.464s.39,1.826-.488,2.544h2.526c-.886-.665-.886-1.392-.487-2.447l1.631,2.482Zm-107.03-2.429s.053-.089.1-.106a1.41,1.41,0,0,0,.78-1.773,1.542,1.542,0,0,0-1.711-.966c-.887.053-1.826,0-3.076,0,1.418.78.824,1.817.886,2.659s.39,1.773-.5,2.526h2.526c-1.081-.6-.621-1.4-.585-2.411a7,7,0,0,1,.886,1.082c.709,1.418.691,1.427,2.252,1.259a5.256,5.256,0,0,1-1.56-2.234Zm40.954-.151c0,1.879.479,2.5,2.358,2.73a2.19,2.19,0,0,0,2.207-.833,3.369,3.369,0,0,0,.16-3.457,2.331,2.331,0,0,0-2.837-1.161c-1.472.47-1.879,1.1-1.888,2.757Zm51.848.16a3.689,3.689,0,0,0,.745,2.012,2.464,2.464,0,0,0,1.924.629c1.463.115,2.482-1.188,2.606-2.73a3.12,3.12,0,0,0-2.766-3,2.869,2.869,0,0,0-2.526,3.12Zm-41.388,2.4c-.239-.266-.567-.461-.576-.674-.062-.949,0-1.906,0-3.191,1.019,1.4,1.835,2.517,2.659,3.634.3.417.594.381.966.053,0-1.117.071-2.252,0-3.386-.062-.762.257-1.2,1.117-1.56h-2.385c1.259.948.5,2.119.727,3.439l-2.6-3.475h-1.569a3.851,3.851,0,0,1,.479,1.135,25.7,25.7,0,0,1,0,3.094c0,.31-.337.6-.523.886Zm96.384-5.15a3.892,3.892,0,0,1,.514,1.135c.071.966-.044,1.959,0,2.925,0,.576-.328.753-.886,1.09h2.092c-1.01-1.2-.425-2.526-.55-4.1.993,1.436,1.844,2.588,2.606,3.8.292.452.541.4.984.2v-3.4c0-.78.133-1.347.94-1.622h-2.216c1.073.842,1.2,1.5.735,3.413l-2.517-3.448Zm-121.2,3.36c-.31.39-.647.629-.7.886a.94.94,0,0,0,.408.789,3,3,0,0,0,2.73,0,1.383,1.383,0,0,0,0-2.482c-.452-.3-.886-.567-1.374-.886-.638-.443-.638-.452.062-1.48l1.268,1.454c.186-.408.461-.727.443-1.037s-.319-.558-.567-.727a1.773,1.773,0,0,0-2.66,1.4,6.424,6.424,0,0,0,.053,1.046c.364.23.62.426.886.567a6.067,6.067,0,0,1,.993.488,1.073,1.073,0,0,1,.4.789.949.949,0,0,1-.6.638,1.019,1.019,0,0,1-.886-.292,4,4,0,0,1-.452-1.117Zm60.341-.08a7.088,7.088,0,0,0,1.073-.08,2.128,2.128,0,0,0,1.472-1.72,1.95,1.95,0,0,0-1.658-1.516,13.116,13.116,0,0,0-2.775.044c.195.337.488.621.505.887.062,1.09,0,2.181.044,3.253,0,.523-.31.656-.753,1.028h1.454a10.583,10.583,0,0,0,1.463-.08c-1.135-.337-.842-.984-.824-1.782Zm26.337-1.773c.31-.23.966-.2.815-.78a1.445,1.445,0,0,0-.736-.753,2.411,2.411,0,0,0-3.492,2.057v1.3a1.488,1.488,0,0,0,.443,1.17,2.775,2.775,0,0,0,3.351.6.736.736,0,0,0,.337-1.135c-.629.886-1.5.647-2.269.585-.807-.886-.558-1.924-.532-2.881,0-.754.292-1.037.886-1.117s.878.1,1.2.966Zm3.847-1.5c.824.355,1.073.7,1.028,1.285a18.034,18.034,0,0,0,0,2.766c0,.567-.284.789-1.046,1.188,1.879-.08,3.377.053,4.973-.115-.106-.5-.177-.886-.283-1.374-.887,1.144-.887,1.144-2.349.984V399.96l1.773-.124v-.266h-1.773v-1.622a1.773,1.773,0,0,1,2.145.665V397.3ZM983.892,402.46c-1.081-1.09-1.179-2.5-1.7-3.732-.24-.55-.231-1.418-1.064-1.454s-.887.886-1.188,1.5c-.541,1.206-.975,2.464-1.436,3.67h1.87c-.656-.293-1.011-.576-.718-1.161.2-.408,1.188-.594,1.773-.355s.505.567.2,1.534Zm10.327-5.168a1.285,1.285,0,0,1,.8,1.489V400.9a1.684,1.684,0,0,0,.692,1.6h2.234c.762,0,.975-.319,1-1a21.435,21.435,0,0,0,0-2.615c-.062-.753.133-1.268.966-1.471a4.1,4.1,0,0,0-2.11-.071c1.019,1.409.222,2.934.532,4.326-.541.284-.886.683-1.533.292a1.586,1.586,0,0,1-.771-1.463v-1.3a2.853,2.853,0,0,1,.1-1.108c.124-.293.5-.47.887-.789Zm72.689,2.659,1.879-.124v-.2l-1.932-.151.071-1.463c.966-.425,1.6-.115,2.261.754l-.115-1.454h-4.086c.231.319.594.585.612.886a29.535,29.535,0,0,1,0,3.431c0,.266-.4.505-.621.78h4.583l-.23-1.223h-.284l-.39.886h-1.773Zm-53.621-2.659c-.984,1.6-.984,3.661-2.376,5.106h2.118a1.028,1.028,0,0,1-.487-1.534h1.7l.479,1.019-.789.559a17.448,17.448,0,0,0,2.491,0c-.381-.833-.753-1.578-1.081-2.349a23.613,23.613,0,0,1-.824-2.234c-.239-.762-.629-.727-1.223-.505Zm131.948,5.124c-.3-.337-.665-.585-.8-.886-.416-1.081-.771-2.181-1.108-3.289-.284-.94-.266-.957-1.533-.886l-1.9,5.195,1.489-.071a1.2,1.2,0,0,1-.151-1.587h1.285c.461,0,.656.284.8.665s-.355.594-.656.886ZM988.13,397.984c-.248,1.409.452,2.961-.488,4.432h2.367c-.222-.3-.55-.55-.558-.807-.062-1.241,0-2.482,0-3.732.886.08.886.089,1.347.727.044.053.133.071.213.115v-1.525a47.864,47.864,0,0,0-4.787.124l.08,1.472c.816.106.7-1.365,1.835-.727Zm54.96,4.432c-.886-1.454-.248-3.005-.47-4.432,1.161-.683.78.771,1.569.833l.071-1.578h-4.548v1.534c.372-1.019.887-1.126,1.6-.807v3.448c0,.319-.31.638-.488.984Zm90.711-.363c.283-1.667-.443-3.315.6-4.778h-2.571c1.223.709.682,1.773.709,2.659s.408,1.817-.541,2.509h4.362c.089-1.064.089-1.064-.266-1.551-.611,1.294-.611,1.294-2.331,1.223Zm-109.636.363v-1.631c-1.285,1.649-.807,1.489-2.659,1.117.4-1.507-.47-3.165.709-4.689a11.748,11.748,0,0,0-2.411.071c.177.346.443.629.452.931a30.6,30.6,0,0,1,0,3.253c0,.319-.3.621-.479.949Zm126.665,0c-.2-.31-.532-.567-.541-.886a28.159,28.159,0,0,1,0-3.236,3.385,3.385,0,0,1,.479-1.055h-2.384a1.471,1.471,0,0,1,.886,1.684,10.889,10.889,0,0,0,0,1.941,1.365,1.365,0,0,1-.886,1.516Z" transform="translate(-952.025 -356.409)" fill="#402955"/>
  <path id="Контур_1498" data-name="Контур 1498" d="M1064.474,379.88v-1.436h8.749v1.4a4.142,4.142,0,0,1-.532.115c-1.2.1-1.6.479-1.711,1.64a4.612,4.612,0,0,0,0,.5v9.148a4.267,4.267,0,0,0,0,.824,1.436,1.436,0,0,0,1.543,1.312h1.471a3.644,3.644,0,0,0,3.732-2.3c.257-.514.443-1.064.674-1.6h1.037V394.9h-23.048c-.23-1.312-.23-1.312,1.445-1.693.372-1.055-.665-1.773-.718-2.73h-4.991c-.2.47-.434.993-.656,1.525-.346.886-.16,1.206.709,1.365.31.062.638.071,1.028.115l.062,1.41c-1.773.213-3.6,0-5.5.115l-.124-1.463a3.173,3.173,0,0,0,2.589-2.455c.523-1.507,1.179-2.952,1.773-4.432,1.108-2.854,2.251-5.691,3.4-8.581h1.321c.479,1.011,1.064,2.021,1.454,3.111.807,2.234,1.7,4.432,2.659,6.622.5,1.161.886,2.376,1.356,3.546a5.14,5.14,0,0,0,.886,1.507,1.9,1.9,0,0,0,1.117.514,13.286,13.286,0,0,0,1.87,0,2.217,2.217,0,0,0,.665-1.853v-9.317C1066.716,380.216,1066.575,380.057,1064.474,379.88Zm-9.92,4.335-1.977,4.849h3.953C1055.937,387.53,1055.281,386.04,1054.554,384.214Z" transform="translate(-962.691 -358.72)" fill="#fefefe"/>
  <path id="Контур_1499" data-name="Контур 1499" d="M1031.809,380.038l-1.436-.062v-1.268c.771-.089,1.6-.248,2.438-.275,1.773-.053,3.608-.089,5.407,0a19.033,19.033,0,0,1,3.546.381,4.344,4.344,0,0,1,2.66,1.773c1.214,1.693.47,3.821-1.569,4.973a10.322,10.322,0,0,1-1.472.523c.213.186.408.488.558.47a2.916,2.916,0,0,1,1.906.789,3.972,3.972,0,0,1,1.268,5.487,3.751,3.751,0,0,1-1.773,1.542,8.1,8.1,0,0,1-2.961.674c-3.324.08-6.648,0-10.061,0v-1.409c1.87-.293,2.145-.576,2.181-2.659.053-2.455,0-4.911,0-7.357a13.46,13.46,0,0,0-.284-2.385,6.314,6.314,0,0,0-.408-1.2Zm5.044,6.852v5.221a1.232,1.232,0,0,0,.886,1.259,2.163,2.163,0,0,0,3.094-2,15.067,15.067,0,0,0,0-2.278,2,2,0,0,0-1.667-1.888c-.736-.133-1.427-.2-2.314-.293Zm.071-1.4c2.172.115,3.7-1.037,3.457-2.766s-.647-3.165-3.457-2.659Z" transform="translate(-960.725 -358.754)" fill="#fefefe"/>
  <path id="Контур_1500" data-name="Контур 1500" d="M1017.575,395.369a9.511,9.511,0,0,1-5.6-1.888,6.959,6.959,0,0,1-2.783-4.1,8.688,8.688,0,0,1-.089-4.9,7.978,7.978,0,0,1,4.3-5.319,9.609,9.609,0,0,1,5.15-1.117c2.845.3,5.319,1.214,7.145,3.705a9.309,9.309,0,0,1,1.7,4.689,7.721,7.721,0,0,1-1.409,4.982C1024.126,394.207,1021.449,395.378,1017.575,395.369Zm4.84-8.519c-.275-1.551-.452-3.1-.833-4.592a3.209,3.209,0,0,0-3.138-2.322h-.984a2.854,2.854,0,0,0-2.792,1.995,11,11,0,0,0-.886,4.68,14.949,14.949,0,0,0,.363,3.546c.408,1.569,1.09,3.058,2.943,3.448,2.119.434,3.758-.346,4.485-2.172a24.5,24.5,0,0,0,.842-4.565Z" transform="translate(-958.28 -358.714)" fill="#fefefe"/>
  <path id="Контур_1501" data-name="Контур 1501" d="M1134.214,395.322a7.721,7.721,0,0,1-4.813-1.037,6.967,6.967,0,0,1-3.475-3.6,10.528,10.528,0,0,1-.886-4.5,8.067,8.067,0,0,1,5.186-7.216,10.283,10.283,0,0,1,4.219-.886c4.619.292,7.207,2.154,8.811,6.258a3.031,3.031,0,0,1,.168.931v2.119c.115,2.6-1.205,4.432-3.094,6.037A8.218,8.218,0,0,1,1134.214,395.322Zm4.432-8.466a17.282,17.282,0,0,0-.886-4.432,4.607,4.607,0,0,0-.762-1.383c-.886-1.188-2.119-1.117-3.386-1.082a2.837,2.837,0,0,0-2.775,2.039,14.706,14.706,0,0,0-.665,2.447,12.312,12.312,0,0,0,.638,6.923,3.351,3.351,0,0,0,2.473,2.252c1.773.5,4.069-.6,4.432-2.2s.682-3.049.966-4.547Z" transform="translate(-971.48 -358.72)" fill="#fefefe"/>
  <path id="Контур_1502" data-name="Контур 1502" d="M1146.6,379.91v-1.347a1.855,1.855,0,0,1,.346-.133h4.264a1.578,1.578,0,0,1,1.294.532c1.48,1.622,2.979,3.236,4.432,4.867,1.3,1.454,2.58,2.917,4.087,4.627V382.25c0-1.516-.417-2.269-2.252-2.349,0-.239-.062-.5-.071-.753a2.557,2.557,0,0,1,.053-.683h6.037l.133,1.232c-.6.284-1.285.4-1.587.8a3.547,3.547,0,0,0-.753,2.243v12.508a1.72,1.72,0,0,1-2.039-.629c-2.207-2.659-4.627-5.23-6.967-7.819l-3.076-3.431v8.164c.062,1.471.408,1.773,2.216,2.012,0,.443.053.886.08,1.436h-6.152v-1.285a12.309,12.309,0,0,0,1.6-.78,1.578,1.578,0,0,0,.629-1.409q0-4.574,0-9.148C1148.825,380.823,1148.222,380.158,1146.6,379.91Z" transform="translate(-973.929 -358.759)" fill="#fefefe"/>
  <path id="Контур_1503" data-name="Контур 1503" d="M979.423,388.647V387.53h7.783c0,.514.3,1.019-.47,1.339a1.489,1.489,0,0,0-.824,1.6v3.741a24.2,24.2,0,0,0-4.352.576,12.882,12.882,0,0,1-4.8.55,7.8,7.8,0,0,1-6.276-3.705,8.59,8.59,0,0,1-.886-7.7,7.738,7.738,0,0,1,4.512-4.955,10.142,10.142,0,0,1,3.227-.887,8.625,8.625,0,0,1,5.514,1.862c.674-.292.337-.948.532-1.507h1.463v5.664c-1.152.071-1.09,0-1.569-.886a5.85,5.85,0,0,0-2.659-2.872,4.432,4.432,0,0,0-6.205,4.228c0,.683-.284,1.374-.266,2.057.044,1.454.151,2.908.31,4.352a3.82,3.82,0,0,0,2.863,2.748,4.707,4.707,0,0,0,2.854-.346,1.773,1.773,0,0,0,1.161-1.773v-.656C981.328,389.179,981.2,389.02,979.423,388.647Z" transform="translate(-953.769 -358.721)" fill="#fefefe"/>
  <path id="Контур_1504" data-name="Контур 1504" d="M1168.42,379.92v-1.285c.284-.275,8.864-.372,13.9-.168.142.275.4.55.417.842.053,1.028,0,2.065,0,3.111-1.09.293-1.09.293-1.578-.532-.221-.372-.434-.745-.682-1.09a1.773,1.773,0,0,0-1.667-.807c-1.144.053-2.287,0-3.546,0v5.478c.372,0,.8.071,1.214.08,1.578,0,1.6,0,2.03-1.649a1.141,1.141,0,0,1,.177-.284h1.028v5.461l-.957.115a5,5,0,0,0-.718-1.578c-.727-.709-1.773-.408-2.775-.443a37.236,37.236,0,0,0,0,5.168,1.126,1.126,0,0,0,1.214,1.055,26.666,26.666,0,0,0,2.792,0,2.766,2.766,0,0,0,2.207-1.675c.257-.461.461-.948.674-1.436.328-.754.328-.762,1.551-.709v5.39H1168.58c-.275-1.321-.275-1.321.931-1.516,1.073-.168,1.135-.213,1.135-1.347V381.462c0-1.365-.053-1.4-1.489-1.507Z" transform="translate(-976.406 -358.751)" fill="#fefefe"/>
  <path id="Контур_1505" data-name="Контур 1505" d="M1094.337,393.475l-.372,1.179h-1.294c-.275-.275-.319-3.049-.071-5.487h1.285a25.25,25.25,0,0,0,1.241,2.659,4.025,4.025,0,0,0,3.377,1.888,1.933,1.933,0,0,0,2.057-1.276,1.7,1.7,0,0,0-.523-2.181,12.12,12.12,0,0,0-1.161-.842c-1.214-.674-2.455-1.312-3.679-1.986a4.822,4.822,0,0,1,.142-8.74,4.308,4.308,0,0,1,4.734.151c.364.239.771.417,1.17.629.558-1.011.558-1.011,1.649-1.019a37.811,37.811,0,0,1,0,5.017h-1.09l-.78-1.667a3.8,3.8,0,0,0-2.358-2.021,2.925,2.925,0,0,0-2.163.346c-.576.213-.718,1.9-.239,2.509a3.5,3.5,0,0,0,1.1.94c1.419.709,2.961,1.214,4.291,2.057a4.835,4.835,0,0,1,2.659,4.308,4.92,4.92,0,0,1-1.427,3.9,5.824,5.824,0,0,1-3.3,1.534,6.692,6.692,0,0,1-5.248-1.9Z" transform="translate(-967.778 -358.717)" fill="#fefefe"/>
  <path id="Контур_1506" data-name="Контур 1506" d="M1106.24,383.13v-4.61h16.577v4.672h-1.365c-.958-2.978-1.525-3.351-4.769-3.049v11.373a11.679,11.679,0,0,0,.31,1.9l1.826.115c0,.222.106.47.133.718a4.549,4.549,0,0,1,0,.594c-.293.284-5.469.355-8.971.168-.23-1.347-.23-1.347.984-1.525.993-.142,1.4-.6,1.418-1.773V380.018h-1.675c-1.773,0-2.464.541-2.925,2.172C1107.525,383.245,1107.525,383.245,1106.24,383.13Z" transform="translate(-969.346 -358.77)" fill="#fefefe"/>
  <path id="Контур_1507" data-name="Контур 1507" d="M990.75,394.983c0-1.4,0-1.4,1.72-1.613a2.252,2.252,0,0,0,.523-1.773v-9.636c0-1.6-.239-1.835-1.862-1.941a2.067,2.067,0,0,1-.363-.106V378.46h8.226c.727,0,.762.124.762,1.471-.195,0-.4.071-.6.089-1.418.08-1.773.434-1.888,1.773v8.669c0,2.784.231,2.934,3.076,3a3.891,3.891,0,0,0,3.617-1.995,8.98,8.98,0,0,0,.683-1.888l1.409-.08v5.478Z" transform="translate(-956.232 -358.763)" fill="#fefefe"/>
  <path id="Контур_1508" data-name="Контур 1508" d="M1097.3,404.371a4.051,4.051,0,0,1,2.163.275l-1.206.408-.151,1.542,1.037.807c-1.232.142-2.384.319-3.546.372a2.519,2.519,0,0,1-1.339-.408,1.415,1.415,0,0,1,0-2.4,4.137,4.137,0,0,1,.532-.337,5.612,5.612,0,0,1-.532-1.3,1.25,1.25,0,0,1,.425-.824,1.658,1.658,0,0,1,2.074-.177c.576.337.674.842.355,1.888l-.6.39.647.771Zm-1.959.833-.452.1c.168.567-.284,1.17.319,1.693s1.09,0,1.507-.177Zm.416-2.535a.886.886,0,0,0,.133,1.374c.727-.8.727-.8-.16-1.374Z" transform="translate(-967.909 -361.441)" fill="#fefefe"/>
  <path id="Контур_1509" data-name="Контур 1509" d="M971.56,407.535c.2-.3.532-.558.55-.833a24.024,24.024,0,0,0,0-3.094,4.1,4.1,0,0,0-.505-1.179h1.684l2.225,2.916c0-1.028.745-2.11-.488-2.925h2.535c-.833.328-.931.762-.887,1.294v3.927c-.434-.124-.886-.115-1.046-.319-.665-.762-1.241-1.6-1.862-2.411-.257-.328-.541-.638-.948-1.108v3.306l1.126.426Z" transform="translate(-954.053 -361.484)" fill="#fefefe"/>
  <path id="Контур_1510" data-name="Контур 1510" d="M1133.354,407.554h-1.835l-1.631-2.482c-.355,1.055-.39,1.773.488,2.447h-2.526c.886-.718.523-1.693.488-2.544s.55-1.862-.567-2.464a6.4,6.4,0,0,1,4.432.372c0,.807.5,1.817-.887,2.2C1131.883,405.923,1132.158,406.951,1133.354,407.554Zm-3.634-4.929V404.9c1.3-.133,1.3-.133,1.117-1.835Z" transform="translate(-971.79 -361.467)" fill="#fefefe"/>
  <path id="Контур_1511" data-name="Контур 1511" d="M1012.824,405.13a5.257,5.257,0,0,0,1.516,2.331c-1.56.168-1.542.16-2.251-1.259a6.989,6.989,0,0,0-.886-1.082c0,1.011-.5,1.773.585,2.411h-2.526c.886-.718.532-1.684.5-2.526s.558-1.9-.886-2.659c1.25,0,2.163.044,3.076,0a1.542,1.542,0,0,1,1.711.966,1.409,1.409,0,0,1-.78,1.773C1012.877,405.042,1012.85,405.095,1012.824,405.13Zm-1.649-.142c.355-.08.745-.044.886-.222a1.666,1.666,0,0,0,.346-1,1.169,1.169,0,0,0-.337-.824c-.177-.168-.532-.16-.887-.248Z" transform="translate(-958.289 -361.473)" fill="#fefefe"/>
  <path id="Контур_1512" data-name="Контур 1512" d="M1059.53,404.955c0-1.658.443-2.287,1.888-2.721a2.331,2.331,0,0,1,2.837,1.161,3.369,3.369,0,0,1-.16,3.457,2.189,2.189,0,0,1-2.207.833C1060.009,407.455,1059.53,406.835,1059.53,404.955Zm1.2.044h.115v.656a1.416,1.416,0,0,0,1.126,1.551c.6.044.957-.434,1.294-1.144a3.689,3.689,0,0,0-.1-2.659.958.958,0,0,0-.966-.7,1.338,1.338,0,0,0-1.011.594A6.908,6.908,0,0,0,1060.727,405Z" transform="translate(-964.042 -361.448)" fill="#fefefe"/>
  <path id="Контур_1513" data-name="Контур 1513" d="M1118,405.1a2.821,2.821,0,0,1,2.509-3.085,3.12,3.12,0,0,1,2.766,3c-.124,1.542-1.143,2.845-2.606,2.73a2.465,2.465,0,0,1-1.924-.629A3.687,3.687,0,0,1,1118,405.1Zm1.2-.222h.115a9.763,9.763,0,0,0,0,1.143,1.383,1.383,0,0,0,1.188,1.161c.612,0,.886-.239,1.144-.886a4.087,4.087,0,0,0,0-2.81,1.1,1.1,0,0,0-.886-.8.975.975,0,0,0-1.161.621c-.142.541-.248,1.055-.381,1.569Z" transform="translate(-970.681 -361.438)" fill="#fefefe"/>
  <path id="Контур_1514" data-name="Контур 1514" d="M1071.1,407.555h-1.773c.186-.328.5-.621.523-.886a25.7,25.7,0,0,0,0-3.094,3.838,3.838,0,0,0-.479-1.135h1.569l2.6,3.475c-.231-1.321.532-2.491-.727-3.439h2.385c-.887.363-1.179.8-1.117,1.56.1,1.135,0,2.269,0,3.386-.372.328-.665.363-.966-.053-.8-1.117-1.613-2.234-2.659-3.634v3.191C1070.536,407.094,1070.864,407.289,1071.1,407.555Z" transform="translate(-965.155 -361.486)" fill="#fefefe"/>
  <path id="Контур_1515" data-name="Контур 1515" d="M1180.018,402.4h1.649l2.517,3.448c.461-1.915.337-2.571-.736-3.413h2.216c-.807.275-.975.842-.94,1.622.062,1.126,0,2.26,0,3.4-.443.2-.692.248-.984-.2-.762-1.214-1.613-2.367-2.606-3.8.124,1.578-.461,2.908.55,4.1h-1.995c.541-.337.886-.514.886-1.09-.089-.966,0-1.959,0-2.925a3.893,3.893,0,0,0-.558-1.135Z" transform="translate(-977.686 -361.481)" fill="#fefefe"/>
  <path id="Контур_1516" data-name="Контур 1516" d="M1043.251,405.716a4,4,0,0,0,.461,1.179,1.019,1.019,0,0,0,.886.293.948.948,0,0,0,.6-.638,1.073,1.073,0,0,0-.4-.789,6.063,6.063,0,0,0-.993-.487,8.883,8.883,0,0,1-.886-.567c0-.3-.062-.674-.053-1.046a1.773,1.773,0,0,1,2.659-1.4c.248.168.558.47.567.727a3.483,3.483,0,0,1-.443,1.037l-1.268-1.454c-.7,1.028-.7,1.037-.062,1.48.443.3.886.567,1.374.886a1.383,1.383,0,0,1,0,2.482,3,3,0,0,1-2.73,0,.941.941,0,0,1-.408-.789C1042.6,406.346,1042.95,406.106,1043.251,405.716Z" transform="translate(-962.115 -361.438)" fill="#fefefe"/>
  <path id="Контур_1517" data-name="Контур 1517" d="M1111.142,405.671c0,.753-.31,1.445.824,1.835-.665.044-1.064.071-1.463.08s-.886,0-1.454,0c.443-.372.789-.505.754-1.028-.071-1.073,0-2.163-.044-3.253,0-.293-.31-.576-.505-.886a13.107,13.107,0,0,1,2.775-.044,1.95,1.95,0,0,1,1.658,1.516,2.128,2.128,0,0,1-1.471,1.72A7.107,7.107,0,0,1,1111.142,405.671Zm.089-.417c.957-.16.887-.833.887-1.463s-.151-1.046-.958-1.028A6.556,6.556,0,0,0,1111.231,405.254Z" transform="translate(-969.665 -361.472)" fill="#fefefe"/>
  <path id="Контур_1518" data-name="Контур 1518" d="M1140.682,403.851c-.319-.886-.541-1.037-1.2-.949s-.886.363-.886,1.117c0,.957-.275,1.968.532,2.881.771.062,1.64.284,2.269-.585a.736.736,0,0,1-.337,1.135,2.775,2.775,0,0,1-3.351-.6,1.489,1.489,0,0,1-.443-1.17v-1.3a2.411,2.411,0,0,1,3.493-2.057,1.446,1.446,0,0,1,.736.754C1141.649,403.656,1140.993,403.62,1140.682,403.851Z" transform="translate(-972.869 -361.443)" fill="#fefefe"/>
  <path id="Контур_1519" data-name="Контур 1519" d="M1145.46,402.39h4.485V403.7a1.773,1.773,0,0,0-2.145-.665V404.7h1.773v.266l-1.773.124v2.074c1.489.16,1.489.16,2.349-.984.106.505.177.886.284,1.374-1.6.168-3.094,0-4.973.115.762-.4,1.09-.62,1.046-1.188a18,18,0,0,1,0-2.766C1146.533,403.09,1146.284,402.745,1145.46,402.39Z" transform="translate(-973.799 -361.48)" fill="#fefefe"/>
  <path id="Контур_1520" data-name="Контур 1520" d="M987.07,407.546H984.8c.31-.966.257-1.347-.2-1.534s-1.569-.053-1.773.355c-.293.585.062.886.718,1.161h-1.87c.461-1.206.886-2.464,1.436-3.67.257-.585.239-1.534,1.188-1.5s.824.886,1.064,1.454C985.891,405.046,985.988,406.473,987.07,407.546Zm-3.085-4.158c-.08.762-.886,1.365-.47,2.11h1.25Z" transform="translate(-955.202 -361.477)" fill="#fefefe"/>
  <path id="Контур_1521" data-name="Контур 1521" d="M999.41,402.372h2.757c-.364.319-.736.5-.886.789a2.853,2.853,0,0,0-.1,1.108q0,.656,0,1.3a1.587,1.587,0,0,0,.771,1.463c.629.39.993,0,1.534-.293-.31-1.392.487-2.916-.532-4.326a4.1,4.1,0,0,1,2.11.071c-.833.2-1.028.718-.966,1.471a21.484,21.484,0,0,1,0,2.615c0,.683-.293.957-1,1s-1.525,0-2.234,0a1.684,1.684,0,0,1-.692-1.6v-2.119a1.285,1.285,0,0,0-.762-1.48Z" transform="translate(-957.215 -361.472)" fill="#fefefe"/>
  <path id="Контур_1522" data-name="Контур 1522" d="M1081.176,405.053v2.127h1.773l.39-.886h.284l.23,1.223h-4.583c.222-.275.6-.514.621-.78a29.59,29.59,0,0,0,0-3.431c0-.284-.381-.55-.612-.886h4.087l.115,1.454c-.656-.887-1.294-1.179-2.26-.754l-.071,1.463,1.932.151v.186Z" transform="translate(-966.283 -361.484)" fill="#fefefe"/>
  <path id="Контур_1523" data-name="Контур 1523" d="M1020.626,402.416c.594-.222,1.02-.124,1.241.55s.523,1.5.824,2.234.7,1.516,1.081,2.349a17.452,17.452,0,0,1-2.491,0l.789-.559-.479-1.019h-1.711a1.028,1.028,0,0,0,.488,1.534h-2.119C1019.642,406.077,1019.642,404.012,1020.626,402.416Zm-.567,3.049h1.622l-.833-2.136Z" transform="translate(-959.354 -361.471)" fill="#fefefe"/>
  <path id="Контур_1524" data-name="Контур 1524" d="M1169.1,407.558h-2.571c.3-.337.833-.426.656-.886s-.337-.674-.8-.665H1165.1a1.2,1.2,0,0,0,.151,1.587l-1.489.071,1.9-5.195c1.268,0,1.25,0,1.533.887.337,1.108.692,2.207,1.108,3.289C1168.405,406.973,1168.8,407.221,1169.1,407.558Zm-2.464-1.959-.567-2.367-.886,2.3Z" transform="translate(-975.877 -361.489)" fill="#fefefe"/>
  <path id="Контур_1525" data-name="Контур 1525" d="M992.3,403.125c-1.135-.638-1.019.833-1.853.789l-.08-1.471a47.844,47.844,0,0,1,4.787-.124v1.489c-.08-.044-.168-.062-.213-.115-.452-.638-.452-.647-1.347-.727V406.7c0,.257.337.505.558.807h-2.34C992.755,406.086,992.054,404.534,992.3,403.125Z" transform="translate(-956.189 -361.471)" fill="#fefefe"/>
  <path id="Контур_1526" data-name="Контур 1526" d="M1054.064,407.549h-2.287c.177-.346.479-.665.488-.984.062-1.135,0-2.278,0-3.448-.718-.319-1.232-.213-1.6.807V402.39h4.547l-.071,1.578c-.789-.062-.408-1.516-1.569-.833C1053.816,404.544,1053.151,406.1,1054.064,407.549Z" transform="translate(-963.034 -361.48)" fill="#fefefe"/>
  <path id="Контур_1527" data-name="Контур 1527" d="M1156.578,407.183c1.72.071,1.72.071,2.3-1.2.354.488.354.488.266,1.551h-4.362c.949-.691.558-1.667.541-2.509s.514-1.915-.709-2.659h2.571C1156.135,403.868,1156.862,405.517,1156.578,407.183Z" transform="translate(-974.838 -361.478)" fill="#fefefe"/>
  <path id="Контур_1528" data-name="Контур 1528" d="M1032.592,407.539h-4.352c.177-.328.461-.629.479-.948a30.636,30.636,0,0,0,0-3.253c0-.3-.275-.585-.452-.931a11.753,11.753,0,0,1,2.411-.071c-1.179,1.525-.31,3.182-.709,4.689,1.773.372,1.339.532,2.659-1.117Z" transform="translate(-960.489 -361.471)" fill="#fefefe"/>
  <path id="Контур_1529" data-name="Контур 1529" d="M1175.683,407.541h-2.473a1.365,1.365,0,0,0,.886-1.516,10.924,10.924,0,0,1,0-1.941,1.472,1.472,0,0,0-.886-1.684h2.473a3.391,3.391,0,0,0-.479,1.055,28.215,28.215,0,0,0,0,3.236C1175.187,406.974,1175.515,407.231,1175.683,407.541Z" transform="translate(-976.95 -361.481)" fill="#fefefe"/>
  <path id="Контур_1530" data-name="Контур 1530" d="M1055.187,385c.727,1.773,1.338,3.289,1.977,4.849h-3.953Z" transform="translate(-963.324 -359.506)" fill="#402955"/>
  <path id="Контур_1531" data-name="Контур 1531" d="M1037.683,388c.886.115,1.578.177,2.26.31a2,2,0,0,1,1.667,1.888,15.066,15.066,0,0,1,0,2.278,2.163,2.163,0,0,1-3.094,2,1.232,1.232,0,0,1-.886-1.259C1037.71,391.546,1037.683,389.844,1037.683,388Z" transform="translate(-961.555 -359.846)" fill="#402955"/>
  <path id="Контур_1532" data-name="Контур 1532" d="M1037.77,385.693v-5.4c2.81-.532,3.191.807,3.457,2.659S1039.942,385.809,1037.77,385.693Z" transform="translate(-961.571 -358.958)" fill="#402955"/>
  <path id="Контур_1533" data-name="Контур 1533" d="M1023.048,387.111a24.514,24.514,0,0,1-.886,4.556c-.727,1.826-2.367,2.606-4.486,2.172-1.853-.39-2.535-1.879-2.943-3.448a14.936,14.936,0,0,1-.363-3.546,11,11,0,0,1,.886-4.68,2.854,2.854,0,0,1,2.792-1.995h.984a3.209,3.209,0,0,1,3.138,2.322A45.689,45.689,0,0,1,1023.048,387.111Z" transform="translate(-958.913 -358.957)" fill="#402955"/>
  <path id="Контур_1534" data-name="Контур 1534" d="M1139.32,387.114c-.284,1.516-.488,3.058-.886,4.547s-2.659,2.659-4.432,2.2a3.351,3.351,0,0,1-2.473-2.252,12.311,12.311,0,0,1-.638-6.923,14.657,14.657,0,0,1,.665-2.447,2.837,2.837,0,0,1,2.775-2.039c1.268,0,2.535-.106,3.386,1.081a4.611,4.611,0,0,1,.762,1.383A17.266,17.266,0,0,1,1139.32,387.114Z" transform="translate(-972.118 -358.96)" fill="#402955"/>
  <path id="Контур_1535" data-name="Контур 1535" d="M1095.5,405.61l1.374,1.613c-.417.2-.887.736-1.507.177s-.151-1.126-.319-1.693Z" transform="translate(-968.073 -361.846)" fill="#402955"/>
  <path id="Контур_1536" data-name="Контур 1536" d="M1095.966,402.75c.825.576.825.576.133,1.374a.887.887,0,0,1-.133-1.374Z" transform="translate(-968.149 -361.521)" fill="#402955"/>
  <path id="Контур_1537" data-name="Контур 1537" d="M1097.672,404.65l-.115,1-.647-.771.6-.39Z" transform="translate(-968.286 -361.719)" fill="#402955"/>
  <path id="Контур_1538" data-name="Контур 1538" d="M1130,402.67l1.117.443c.186,1.7.186,1.7-1.117,1.835Z" transform="translate(-972.043 -361.512)" fill="#402955"/>
  <path id="Контур_1539" data-name="Контур 1539" d="M1011.47,405.036v-2.3c.363.089.718.08.886.248a1.17,1.17,0,0,1,.337.824,1.667,1.667,0,0,1-.346,1C1012.215,404.992,1011.825,404.956,1011.47,405.036Z" transform="translate(-958.585 -361.52)" fill="#402955"/>
  <path id="Контур_1540" data-name="Контур 1540" d="M1060.88,405.08a6.907,6.907,0,0,1,.461-1.667,1.338,1.338,0,0,1,1.01-.594.957.957,0,0,1,.967.7,3.689,3.689,0,0,1,.1,2.659c-.337.709-.762,1.179-1.294,1.144a1.542,1.542,0,0,1-1.126-1.551v-.656Z" transform="translate(-964.195 -361.529)" fill="#402955"/>
  <path id="Контур_1541" data-name="Контур 1541" d="M1119.37,404.971c.133-.514.239-1.028.408-1.525a.975.975,0,0,1,1.161-.621,1.1,1.1,0,0,1,.886.8,4.086,4.086,0,0,1,0,2.81,1.084,1.084,0,0,1-1.144.886,1.383,1.383,0,0,1-1.188-1.161,9.765,9.765,0,0,1,0-1.144Z" transform="translate(-970.836 -361.526)" fill="#402955"/>
  <path id="Контур_1542" data-name="Контур 1542" d="M1111.491,405.311a6.561,6.561,0,0,1-.062-2.491c.807,0,.958.452.958,1.028S1112.448,405.151,1111.491,405.311Z" transform="translate(-969.924 -361.529)" fill="#402955"/>
  <path id="Контур_1543" data-name="Контур 1543" d="M984.2,403.52l.78,2.11h-1.25C983.309,404.885,984.125,404.282,984.2,403.52Z" transform="translate(-955.421 -361.609)" fill="#402955"/>
  <path id="Контур_1544" data-name="Контур 1544" d="M1020.29,405.6l.789-2.136.833,2.136Z" transform="translate(-959.586 -361.602)" fill="#402955"/>
  <path id="Контур_1545" data-name="Контур 1545" d="M1166.808,405.7l-1.5-.071.886-2.3Z" transform="translate(-976.053 -361.587)" fill="#402955"/>
</svg>
