<svg id="ibstock" xmlns="http://www.w3.org/2000/svg" width="221.01" height="90.37" viewBox="0 0 221.01 90.37">
  <g id="Ibstock_grey" data-name="Ibstock grey" transform="translate(-3.348 -3.348)" opacity="0.75">
    <path id="path0" d="M111.678,28c-2.455.327-2.917.43-3.151.7l-.211.245v13.59c0,11.923.017,13.624.142,13.864.217.421.646.49,2.8.454l1.872-.032.274-.307a.94.94,0,0,0,.276-.612c0-.533.1-.559.616-.168a8.081,8.081,0,0,0,11.064-1.39c3.219-4.051,2.943-11.931-.543-15.479a7.847,7.847,0,0,0-9.8-1.091,6.615,6.615,0,0,1-.635.376c-.024,0-.043-2.236-.043-4.969V28.214l-.218-.2c-.267-.251-.622-.253-2.439-.011m95.206-.088c-3.48.471-3.732.533-3.932.973-.224.492-.154,27.114.072,27.485.279.458.647.515,3.1.481,3.092-.043,2.829.421,2.83-5.011,0-3.337.02-3.925.129-3.809.07.076,1.007,1.722,2.081,3.657,2.893,5.213,2.675,4.907,3.627,5.088a40.1,40.1,0,0,0,5.473-.006c.785-.218.691-.494-1.285-3.757-3.4-5.615-4.475-7.418-4.475-7.5s.735-1.132,3.649-5.16c2.45-3.388,2.511-3.251-1.421-3.211-3.143.033-2.81-.091-3.715,1.379-1.889,3.07-3.894,6.277-3.971,6.355-.058.058-.091-2.838-.091-8.1,0-8.455-.01-8.678-.38-8.876a4.025,4.025,0,0,0-1.689.014M53.811,29.254c-.466.275-2.92,1.7-5.455,3.159l-8.277,4.778-6.913,3.993c-4.345,2.509-4.493,2.6-4.706,2.87-.245.311-.3,30.195-.053,30.664a4.373,4.373,0,0,0,1.293.922c.639.367,1.691.976,2.337,1.352s2.149,1.244,3.339,1.93c2.124,1.223,3.586,2.069,5.831,3.372.621.36,1.912,1.107,2.868,1.658,4.439,2.56,6.322,3.648,8.371,4.84,2.714,1.58,2.347,1.562,4.656.22,1.625-.945,8.607-4.98,15.143-8.751,1.707-.985,3.337-1.928,3.621-2.1s1.6-.925,2.915-1.681a28.1,28.1,0,0,0,2.61-1.613l.211-.237V59.423c0-13.333-.017-15.235-.14-15.411a4.366,4.366,0,0,0-.917-.646c-.427-.245-2.66-1.533-4.962-2.863s-5.6-3.234-7.336-4.233-3.384-1.954-3.668-2.123c-.479-.285-4.332-2.509-5.079-2.932-.181-.1-.9-.518-1.6-.922-3.19-1.849-2.861-1.766-4.091-1.039m44.563-.282-.264.228-.024,13.473c-.028,14.976-.079,13.781.606,14.068a10.18,10.18,0,0,0,2.823.11L104,56.82l.217-.252c.328-.382.345-1.17.312-14.921l-.029-12.353-.307-.274-.307-.275H98.638l-.264.227m-44.328,5.6a21.353,21.353,0,0,1-.1,3.292c-.1,0-5.431-3.056-5.577-3.194a5.646,5.646,0,0,1,1.27-.854c.741-.43,1.805-1.049,2.366-1.376s1.035-.595,1.054-.595a4.363,4.363,0,0,0,.481-.283,5.456,5.456,0,0,1,.474-.282c.016,0,.029,1.481.029,3.292M151.387,31.6c-2.974.437-2.723.142-2.723,3.2v2.31h-1.029c-1.714,0-1.793.09-1.793,2.05,0,2.04.039,2.088,1.7,2.088h1.029v4.538c0,7.532.174,8.561,1.681,10.029,1.8,1.75,6.126,2.044,9.63.654,1.229-.488,1.222-.463.788-2.826-.347-1.884-.361-1.9-1.578-1.546-2.492.722-3.684.5-4.191-.789-.149-.379-.169-.9-.2-5.237l-.03-4.816,2.458-.028,2.459-.028.227-.263c.219-.254.226-.317.226-1.712,0-2.227.159-2.115-3.014-2.115h-2.347V34.488c0-3.567.2-3.4-3.3-2.883m-95.127-.14c.049.047.511.327,1.026.623.935.537,9.759,5.631,11.808,6.817l3.292,1.9c1.216.7,2.739,1.583,3.386,1.958s1.588.92,2.092,1.209a7.476,7.476,0,0,1,.916.574c0,.026-.858.54-1.9,1.143s-2.536,1.461-3.309,1.908a7.967,7.967,0,0,1-1.526.766c-.066-.025-.873-.486-1.793-1.023s-2.56-1.487-3.647-2.11-2.758-1.587-3.715-2.141c-3.674-2.127-6.176-3.571-6.56-3.788l-.4-.225V35.227c0-3.92.013-4.069.334-3.763m-10.774,8.1A31.1,31.1,0,0,1,45.4,42.8a12.536,12.536,0,0,1-1.81-.945l-2.784-1.607a7.586,7.586,0,0,1-1.058-.672,15.524,15.524,0,0,1,1.528-.935c.841-.48,2.1-1.2,2.8-1.61a8.673,8.673,0,0,1,1.34-.7c.039.022.071,1.474.071,3.227m6.772-.463c2.354,1.36,5.211,3.008,6.349,3.664s2.641,1.523,3.339,1.928c1.927,1.118,4.558,2.634,6.443,3.713.931.533,1.728,1,1.772,1.038.077.068-.357.338-2.924,1.818l-2.466,1.423-1.22.706-.9-.517-1.79-1.035-1.81-1.048c-.963-.557-6.725-3.884-8.818-5.092-.672-.388-1.614-.935-2.092-1.215l-.87-.51V40.183c0-4.1-.012-3.993.414-3.734.16.1,2.217,1.29,4.571,2.649m83.072-2.406c-4.338.786-6.664,3.827-5.715,7.471.617,2.369,1.81,3.345,5.985,4.895,3.016,1.12,3.376,1.362,3.376,2.269,0,1.712-2.786,1.874-6.876.4-1.591-.574-1.516-.62-2.149,1.336-.847,2.616-.882,2.531,1.359,3.3,7.342,2.514,13.487.044,13.5-5.424,0-2.995-1.15-4.278-5.32-5.918-3.508-1.379-3.895-1.626-3.9-2.487,0-1.437,2.852-1.644,6.03-.436.627.238,1.132.249,1.33.028a22.066,22.066,0,0,0,1.1-3.6c0-1.183-5.7-2.38-8.725-1.832m34.5,0c-5.267.866-8.238,4.606-8.225,10.349.015,6.4,3.363,10.051,9.415,10.272,7.345.268,11.7-4.8,10.7-12.454-.762-5.839-5.649-9.2-11.894-8.168m22.35-.034c-5.122.748-8.26,4.412-8.5,9.924-.234,5.421,2.24,9.276,6.652,10.368a15.123,15.123,0,0,0,9.288-.75c.949-.425.969-.7.224-3.092-.471-1.509-.577-1.61-1.384-1.314-3.425,1.254-5.817,1.059-7.233-.589-1.777-2.069-1.693-6.658.157-8.536,1.414-1.437,4.038-1.677,6.7-.612,1.166.466,1.165.467,1.661-1.7.557-2.433.553-2.453-.557-2.9a15.724,15.724,0,0,0-7.008-.8M36.834,44.55v3.3l-.212-.112c-.116-.061-.613-.344-1.1-.627L33.072,45.7c-1.937-1.116-1.886-1.085-1.855-1.177.025-.076,5.411-3.234,5.547-3.254.039-.005.071,1.473.071,3.286M40.5,42.208c.909.525,1.842,1.07,2.075,1.211s1.481.861,2.775,1.6,3.367,1.935,4.608,2.656,2.437,1.414,2.657,1.54c.521.3.527.286-.426.825-.451.255-1.862,1.066-3.136,1.8s-2.4,1.381-2.5,1.434c-.152.081-.8-.26-3.986-2.1l-3.8-2.2-.024-3.864c-.014-2.125,0-3.864.041-3.864s.809.429,1.717.954m132.81-.554c2.618,1.192,3.177,7.6.866,9.912a3.932,3.932,0,0,1-4.041.7c-3.051-1.367-3.143-9-.127-10.538a4.335,4.335,0,0,1,3.3-.076m-54.237.336c1.8.8,2.728,4.189,2.008,7.33-.708,3.086-3.8,3.961-6.39,1.808l-.352-.294V43.044l.494-.327a4.783,4.783,0,0,1,4.241-.725m-87.644,4.9L34.6,48.727l2.234,1.293V68.806l-1.1.649c-.608.357-2.016,1.17-3.128,1.806s-2.117,1.218-2.233,1.294l-.212.137V59.455c0-12.567.008-13.232.165-13.173.09.034.588.308,1.1.608m48.391,2.579c0,1.776-.023,3.252-.052,3.281a25.416,25.416,0,0,1-2.328-1.265c-1.252-.725-2.519-1.45-2.815-1.612-.685-.374-.721-.322.825-1.216.722-.418,1.948-1.13,2.724-1.581a16.026,16.026,0,0,1,1.528-.829c.092-.006.117.7.117,3.222m-21.4,3.1c1.707.983,3.347,1.933,3.646,2.11l.542.324-.024,4.43-.025,4.429-1.364.793L59.219,65.8c-.336.2-1.428.83-2.426,1.407L54.978,68.26l-.4-.225c-.415-.236-3.942-2.271-6.039-3.483l-1.222-.707L47.3,59.486c-.013-2.4.008-4.4.047-4.458s1.128-.707,2.421-1.449,2.584-1.487,2.869-1.655c2.147-1.268,2.3-1.343,2.491-1.243.1.054,1.586.9,3.293,1.886m16.459-.4c1.19.684,2.534,1.455,2.988,1.714a7.42,7.42,0,0,1,.87.544c.044.072-.608.459-5.927,3.523-1.5.864-2.96,1.709-3.245,1.878-1.34.795-4.975,2.874-5.025,2.874-.031,0-.046-1.739-.032-3.865l.025-3.865,3.8-2.2,3.8-2.2.29.176c.16.1,1.263.735,2.453,1.42M40.22,51.978c.233.141,1.482.862,2.775,1.6s2.382,1.391,2.421,1.447c.131.191.086,18.642-.045,18.747-.065.052-1.176.7-2.469,1.452-3.674,2.122-4.046,2.333-4.118,2.333-.037,0-.067-5.95-.067-13.222V51.117l.54.3c.3.166.731.417.964.559m39.6,7.43c0,3.159-.028,3.445-.31,3.216-.112-.091-1.038-.63-3.946-2.3a14.911,14.911,0,0,1-1.48-.908,15.509,15.509,0,0,1,1.472-.906c.809-.466,2.065-1.193,2.794-1.615a8.556,8.556,0,0,1,1.4-.724c.04.025.074,1.48.074,3.232m-5.14,2.547c1.353.781,2.693,1.558,2.977,1.728s.66.381.835.47c.447.227.825-.023-5.105,3.385-.832.479-2.085,1.2-2.783,1.6L67.543,70.9c-.983.566-2.062,1.19-2.4,1.386-3.54,2.067-9.109,5.269-9.162,5.269-.031,0-.046-1.741-.033-3.868l.025-3.868,1.222-.707L60.16,67.4l3.292-1.9,2.8-1.616,2.492-1.439c2.651-1.532,3.318-1.907,3.395-1.91.044,0,1.186.635,2.54,1.416m91.482-.667c-.595.089-1.521.216-2.058.281-.844.1-1.016.154-1.27.381l-.294.262-.025,13.5c-.028,15.007-.067,14.036.594,14.312a8.871,8.871,0,0,0,2.635.114l2.294-.028.261-.261.261-.261.047-4.207c.052-4.691-.011-4.388.66-3.172.92,1.668,3.455,6.2,3.776,6.75a2.728,2.728,0,0,0,.759.894l.387.256,2.829.025c3.733.034,3.886-.056,2.895-1.7-.255-.424-1.513-2.5-2.795-4.626-3.281-5.426-3-4.924-2.873-5.16.06-.111,1.272-1.81,2.694-3.775,3.441-4.758,3.466-4.467-.384-4.461a16.731,16.731,0,0,0-2.774.116c-.4.138-.249-.1-4.344,6.545-.877,1.422-.775,2.306-.829-7.217l-.047-8.4-.222-.18c-.27-.219-.675-.217-2.176.008m-28.781.786a3.021,3.021,0,0,0-.592,5.663,3.6,3.6,0,0,0,3.991-.689c2.133-2.314-.3-5.874-3.4-4.974m-38.819.071c-.633.183-.594-.777-.567,14.045l.025,13.4.261.261.261.261,4.724.029c6.1.037,7.987-.117,10.062-.82,3.668-1.242,5.353-3.563,5.37-7.392a6.568,6.568,0,0,0-5.336-6.91l-1-.258.551-.2a5.688,5.688,0,0,0,3.623-5.7c-.021-4.191-2.736-6.3-8.637-6.723-1.644-.117-8.921-.11-9.333.01M50.273,67.693c1.532.885,3.009,1.74,3.281,1.9l.495.293-.025,4.423L54,78.735l-3.292,1.9c-1.81,1.047-3.323,1.9-3.362,1.9s-.071-3.7-.071-8.229c0-6.061.028-8.229.106-8.229.059,0,1.361.724,2.892,1.608m29.544,1.621c0,1.776-.024,3.253-.053,3.282a46.39,46.39,0,0,1-4.589-2.587,3.621,3.621,0,0,1-1.035-.73c.154-.152,5.442-3.188,5.559-3.191.092,0,.117.7.117,3.226m27.846-2.248c1.772.375,2.533,1.249,2.533,2.907,0,2.373-1.263,3.253-4.679,3.258l-1.152,0v-6.3l1.34,0a12.043,12.043,0,0,1,1.958.133M131.17,69.9l-.8.143a5.432,5.432,0,0,0-2.636,1.514c-.863.817-.887.814-.889-.14,0-.933-.335-1.036-3.185-.99l-1.911.03-.275.307-.274.307v9.2c0,10.108-.038,9.442.566,9.755a20.509,20.509,0,0,0,4.932.007c.538-.225.522-.022.522-6.778V76.986l.258-.244a4.694,4.694,0,0,1,3.677-1.308c1.124-.011,1.473-.044,1.58-.151a24.255,24.255,0,0,0,.793-4.9c-.134-.352-1.5-.631-2.358-.48m21.444,0a9.931,9.931,0,0,0-6.331,2.664c-4.064,3.864-3.928,12.686.246,15.977,3.055,2.409,8.62,2.856,12.622,1.013,1.082-.5,1.1-.639.419-2.922-.566-1.888-.5-1.85-2.207-1.257-4.76,1.65-7.713-.3-7.708-5.092s3.1-6.715,8-4.944c.833.3,1.119.307,1.293.03a18.772,18.772,0,0,0,.819-3.957c-.317-.834-4.826-1.787-7.155-1.513m-79,1.364c2.1,1.22,4.271,2.471,4.717,2.713.584.316.619.265-.7,1.021-.634.362-1.935,1.112-2.892,1.666-5.913,3.424-10.3,5.959-16.6,9.587-.88.507-1.737,1-1.9,1.107l-.306.185V79.765l1.951-1.121c1.073-.616,2.248-1.3,2.61-1.511s2.372-1.379,4.467-2.586c7.709-4.442,7.155-4.139,7.363-4.028.1.056.689.392,1.3.747m62.445-.759c-.8.189-.771-.254-.736,10.207.026,8.14.04,8.769.193,9,.269.41.658.463,3.112.43l2.242-.031.274-.307.275-.307V80.259c0-10.269.046-9.56-.638-9.749a32.685,32.685,0,0,0-4.721,0M36.8,77.534c-.056.057-5.542-3.123-5.578-3.233a7.812,7.812,0,0,1,1.406-.91c.789-.451,2.049-1.175,2.8-1.609l1.364-.789.025,3.25c.013,1.788.007,3.269-.016,3.291m8.691,1.718c0,1.753-.032,3.207-.071,3.231a15.67,15.67,0,0,1-1.858-.985l-2.8-1.609c-1.2-.687-1.166-.6-.376-1.056.349-.2.868-.5,1.153-.669a36.623,36.623,0,0,1,3.869-2.148c.044.028.081,1.484.081,3.236m63.746-1.373a3.68,3.68,0,0,1,2.758,4.969c-.6,1.8-1.708,2.279-5.534,2.392l-2.092.062V81.541c0-2.069.031-3.795.07-3.834a27.5,27.5,0,0,1,4.8.172M54.046,84.24v3.3l-.211-.111c-.117-.061-.91-.513-1.764-1.006l-2.611-1.5c-1.29-.74-1.264-.7-.658-1.032.272-.15,1.066-.606,1.764-1.013,2.513-1.464,3.331-1.927,3.4-1.927.042,0,.075,1.483.075,3.3" transform="translate(-10.913 -10.725)" fill="#f9fafb" fill-rule="evenodd" style="mix-blend-mode: luminosity;isolation: isolate"/>
    <path id="path1" d="M4.969,3.635a2.83,2.83,0,0,0-1.4,1.458l-.221.484L3.372,48.6c.024,42.5.026,43.025.208,43.4a3.607,3.607,0,0,0,1.668,1.519c.788.275,216.351.273,217.139,0a3.361,3.361,0,0,0,1.764-1.764c.274-.787.276-85.713,0-86.5a3.61,3.61,0,0,0-1.519-1.668c-.372-.183-1.363-.184-108.734-.208L5.542,3.348l-.574.287M103.2,17.285l.218.2v4.969c0,2.733.019,4.969.043,4.969a6.615,6.615,0,0,0,.635-.376,7.847,7.847,0,0,1,9.8,1.091c3.486,3.548,3.762,11.427.543,15.479a8.081,8.081,0,0,1-11.064,1.39c-.513-.392-.613-.365-.616.168a.94.94,0,0,1-.276.612l-.274.307-1.872.032c-2.153.037-2.582-.033-2.8-.454-.124-.24-.142-1.941-.142-13.864V18.219l.211-.245c.445-.515,5.157-1.1,5.59-.69m94.456-.112c.37.2.38.421.38,8.876,0,5.258.033,8.155.091,8.1.078-.078,2.082-3.286,3.971-6.355.9-1.47.571-1.346,3.715-1.379,3.932-.04,3.871-.177,1.421,3.211-2.914,4.028-3.649,5.067-3.649,5.16s1.075,1.89,4.475,7.5c1.976,3.263,2.07,3.539,1.285,3.757a40.1,40.1,0,0,1-5.473.006c-.952-.181-.733.126-3.627-5.088-1.074-1.936-2.011-3.582-2.081-3.657-.109-.116-.129.472-.129,3.809,0,5.433.262,4.969-2.83,5.011-2.451.034-2.819-.022-3.1-.481-.226-.371-.3-26.994-.072-27.485.2-.44.452-.5,3.932-.973a4.025,4.025,0,0,1,1.689-.014M45.014,18.427c.388.223,1.277.736,1.975,1.141s1.418.82,1.6.922c.748.423,4.6,2.646,5.079,2.932.284.169,1.935,1.125,3.668,2.123s5.034,2.9,7.336,4.233,4.535,2.618,4.962,2.863a4.366,4.366,0,0,1,.917.646c.123.176.14,2.078.14,15.411V63.909l-.211.237a28.094,28.094,0,0,1-2.61,1.613c-1.319.756-2.631,1.513-2.915,1.681s-1.914,1.112-3.621,2.1C54.8,73.308,47.815,77.343,46.19,78.287c-2.308,1.342-1.941,1.359-4.656-.22-2.049-1.192-3.932-2.281-8.371-4.84-.957-.552-2.248-1.3-2.868-1.658-2.245-1.3-3.707-2.149-5.831-3.372-1.19-.685-2.692-1.554-3.339-1.93s-1.7-.984-2.337-1.352a4.373,4.373,0,0,1-1.293-.922c-.244-.469-.192-30.353.053-30.664.213-.271.361-.361,4.706-2.87l6.913-3.993,8.277-4.778c2.535-1.462,4.989-2.884,5.455-3.159,1.041-.615,1.209-.624,2.116-.1M93.286,18.3l.307.274.029,12.353c.033,13.751.016,14.539-.312,14.921l-.217.252-2.49.029a10.18,10.18,0,0,1-2.823-.11c-.685-.286-.634.908-.606-14.068L87.2,18.475l.264-.228.264-.227h5.253l.307.275M42.631,20.842a4.363,4.363,0,0,1-.481.283c-.02,0-.494.267-1.054.595s-1.625.947-2.366,1.376a5.646,5.646,0,0,0-1.27.854c.145.138,5.48,3.194,5.577,3.194a21.353,21.353,0,0,0,.1-3.292c0-1.81-.013-3.292-.029-3.292a5.456,5.456,0,0,0-.474.282m100.928.054c.209.236.212.275.212,2.867v2.628h2.347c3.173,0,3.014-.111,3.014,2.115,0,1.395-.008,1.458-.226,1.712l-.227.263-2.459.028-2.458.028.03,4.816c.027,4.334.047,4.858.2,5.236.507,1.287,1.7,1.512,4.191.789,1.217-.352,1.231-.338,1.578,1.546.434,2.362.441,2.338-.788,2.826-3.5,1.39-7.833,1.1-9.63-.654-1.507-1.468-1.679-2.5-1.681-10.029V30.53h-1.029c-1.66,0-1.7-.048-1.7-2.088,0-1.96.079-2.05,1.793-2.05h1.029v-2.31c0-3.06-.251-2.764,2.723-3.2,2.35-.345,2.766-.343,3.084.016M45.014,24.5v3.848l.4.225c.384.217,2.886,1.661,6.56,3.788.957.554,2.629,1.517,3.715,2.141s2.727,1.573,3.647,2.11,1.727,1,1.793,1.023a7.968,7.968,0,0,0,1.526-.766c.773-.447,2.262-1.305,3.309-1.908s1.9-1.117,1.9-1.143a7.477,7.477,0,0,0-.916-.574c-.5-.289-1.446-.834-2.092-1.209s-2.171-1.257-3.386-1.958l-3.292-1.9c-2.049-1.186-10.874-6.28-11.808-6.817-.515-.3-.976-.576-1.026-.623-.321-.306-.334-.157-.334,3.763M33.163,26.308c-.7.406-1.957,1.13-2.8,1.61a15.524,15.524,0,0,0-1.528.935,7.586,7.586,0,0,0,1.058.672l2.784,1.607a12.536,12.536,0,0,0,1.81.945c.1-.063.116-6.408.014-6.466a8.672,8.672,0,0,0-1.34.7m3.259-.7c-.034.034-.061,1.766-.061,3.85v3.788l.87.51c.479.28,1.42.827,2.092,1.215,2.093,1.207,7.855,4.534,8.818,5.092l1.81,1.048,1.79,1.035.9.517,1.22-.706,2.466-1.423c2.567-1.48,3-1.75,2.924-1.818-.043-.038-.84-.506-1.772-1.038-1.885-1.079-4.516-2.595-6.443-3.713-.7-.405-2.2-1.272-3.339-1.928-3.988-2.3-10.631-6.137-10.92-6.313-.16-.1-.319-.149-.353-.116m91.782.315c2.484.281,4.938,1.213,4.938,1.876a22.065,22.065,0,0,1-1.1,3.6c-.2.221-.7.21-1.33-.028-3.178-1.208-6.031-1-6.03.436,0,.861.388,1.108,3.9,2.487,4.17,1.64,5.325,2.924,5.32,5.918-.008,5.468-6.154,7.938-13.5,5.424-2.242-.768-2.206-.683-1.359-3.3.634-1.957.558-1.91,2.149-1.336,4.09,1.474,6.876,1.312,6.876-.4,0-.907-.36-1.149-3.376-2.269-4.174-1.55-5.367-2.526-5.985-4.895-1.252-4.808,3.086-8.24,9.5-7.515m35.511.171a8.866,8.866,0,0,1,7.092,8.037c1,7.652-3.36,12.722-10.7,12.454-6.052-.221-9.4-3.874-9.415-10.272-.012-5.145,2.28-8.59,6.626-9.965a14.225,14.225,0,0,1,6.4-.253m21.253-.172a11.147,11.147,0,0,1,4.075,1.216c.25.243.22.586-.215,2.489-.5,2.167-.5,2.167-1.661,1.7-2.661-1.064-5.285-.825-6.7.612-1.85,1.878-1.934,6.467-.157,8.536,1.416,1.649,3.808,1.844,7.233.589.806-.3.912-.194,1.384,1.314.745,2.388.725,2.667-.224,3.092a15.123,15.123,0,0,1-9.288.75c-4.412-1.091-6.886-4.947-6.652-10.368.3-6.844,5.14-10.786,12.2-9.931M23.055,32.132c-1.5.871-2.737,1.618-2.751,1.66-.031.093-.081.061,1.855,1.177L24.6,36.381c.492.284.989.566,1.1.627l.212.112v-3.3c0-1.812-.032-3.291-.071-3.286s-1.3.722-2.8,1.593m4.77,2.261.024,3.864,3.8,2.2c3.186,1.839,3.834,2.18,3.986,2.1.1-.053,1.224-.7,2.5-1.434s2.685-1.545,3.136-1.8c.953-.539.947-.527.426-.825-.22-.126-1.416-.818-2.657-1.54s-3.315-1.917-4.608-2.656-2.542-1.461-2.775-1.6c-.991-.6-3.732-2.164-3.792-2.164-.037,0-.055,1.739-.041,3.864m132-3.673c-1.893.477-2.891,2.349-2.891,5.42,0,3.862,1.191,5.622,3.809,5.627s3.9-1.834,3.9-5.594c0-4.069-1.878-6.194-4.817-5.453M106,31.09a7.422,7.422,0,0,0-2.086.9l-.494.327V40.11l.352.294c2.141,1.784,4.912,1.482,5.994-.652a10.246,10.246,0,0,0-.077-7.03A3.352,3.352,0,0,0,106,31.09M19.243,48.73V61.966l.212-.137c.116-.075,1.121-.657,2.233-1.294s2.519-1.449,3.128-1.806l1.1-.649V39.3L23.687,38l-3.174-1.837c-.517-.3-1.014-.574-1.1-.608-.156-.06-.165.606-.165,13.173M67.258,36.351c-.776.451-2,1.163-2.724,1.581-1.545.894-1.51.842-.825,1.216.3.162,1.563.887,2.815,1.612a25.418,25.418,0,0,0,2.328,1.265,58.619,58.619,0,0,0-.066-6.5,16.028,16.028,0,0,0-1.528.829M43.132,40.376c-.491.285-1.125.656-1.409.824s-1.576.913-2.869,1.655-2.383,1.394-2.421,1.449-.06,2.06-.047,4.458l.022,4.359,1.222.707c2.1,1.212,5.625,3.247,6.039,3.483l.4.225,1.815-1.049c1-.577,2.09-1.211,2.426-1.407l1.975-1.15,1.364-.793.025-4.429.024-4.43-.542-.324c-.688-.411-6.686-3.865-6.939-4-.157-.081-.343-.01-1.081.42m14.289,1.668-3.8,2.2L53.6,48.109c-.013,2.126,0,3.865.032,3.865.05,0,3.684-2.08,5.025-2.874.284-.169,1.745-1.014,3.245-1.878,5.319-3.063,5.971-3.451,5.927-3.523a7.421,7.421,0,0,0-.87-.544c-1.674-.956-5.16-2.964-5.441-3.134l-.29-.176-3.8,2.2M27.8,53.613c0,7.272.03,13.222.067,13.222.072,0,.444-.211,4.118-2.333,1.294-.747,2.4-1.4,2.469-1.452.131-.105.176-18.556.045-18.747-.038-.056-1.127-.707-2.421-1.447s-2.542-1.461-2.775-1.6-.666-.393-.964-.559l-.54-.3V53.613m39.631-7.44c-.728.422-1.985,1.149-2.794,1.615a15.508,15.508,0,0,0-1.472.906,14.912,14.912,0,0,0,1.48.908c2.909,1.667,3.834,2.205,3.946,2.3a.2.2,0,0,0,.211.031,60.224,60.224,0,0,0,.025-6.48,8.556,8.556,0,0,0-1.4.724M60.11,50.411c-.569.326-1.6.917-2.281,1.313l-2.492,1.439-2.8,1.616-3.292,1.9-2.963,1.712-1.222.707-.025,3.868c-.013,2.127,0,3.868.033,3.868.054,0,5.622-3.2,9.162-5.269.336-.2,1.415-.82,2.4-1.386l3.057-1.763c.7-.4,1.951-1.125,2.783-1.6,5.93-3.408,5.552-3.158,5.105-3.385-.175-.089-.55-.3-.835-.47-1.505-.9-5.448-3.147-5.517-3.144a12.061,12.061,0,0,0-1.114.6m97.312.144.222.18.047,8.4c.053,9.523-.048,8.638.829,7.217,4.1-6.641,3.939-6.407,4.344-6.545a16.732,16.732,0,0,1,2.774-.116c3.851-.006,3.825-.3.384,4.461-1.422,1.966-2.634,3.665-2.694,3.775-.128.236-.407-.266,2.873,5.16,1.282,2.121,2.54,4.2,2.795,4.626.991,1.645.839,1.735-2.895,1.7l-2.829-.025-.387-.256a2.728,2.728,0,0,1-.759-.894c-.321-.55-2.856-5.082-3.776-6.75-.671-1.216-.608-1.519-.66,3.172l-.047,4.207-.261.261-.261.261-2.294.028a8.871,8.871,0,0,1-2.635-.114c-.661-.276-.621.7-.594-14.312l.025-13.5.294-.262c.254-.227.426-.278,1.27-.381.536-.066,1.463-.193,2.058-.281,1.5-.225,1.906-.227,2.176-.008m-28.575.976a3.041,3.041,0,0,1,1.6,3.94c-1.385,3.051-6.242,2.162-6.274-1.149a3.24,3.24,0,0,1,4.677-2.791m-31.867-.12c5.9.42,8.616,2.533,8.637,6.723a5.688,5.688,0,0,1-3.623,5.7l-.551.2,1,.258a6.568,6.568,0,0,1,5.336,6.91c-.016,3.829-1.7,6.15-5.37,7.392-2.075.7-3.957.856-10.062.82l-4.724-.029-.261-.261-.261-.261-.025-13.4c-.027-14.823-.066-13.863.567-14.045.412-.119,7.689-.126,9.333-.01M36.361,63.59c0,4.526.032,8.229.071,8.229s1.552-.858,3.362-1.9l3.292-1.9.024-4.424.025-4.423-.495-.293c-2.06-1.221-6.086-3.51-6.173-3.51s-.106,2.169-.106,8.229m29.627-6.669c-1.475.855-2.717,1.59-2.761,1.634a3.621,3.621,0,0,0,1.035.73,46.391,46.391,0,0,0,4.589,2.587,58.473,58.473,0,0,0-.065-6.508c-.065,0-1.324.7-2.8,1.558m27.464,2.437v3.151l1.152,0c3.416-.005,4.679-.885,4.679-3.258,0-2.174-1.272-3.036-4.491-3.04l-1.34,0v3.151m28.714-.043c.584.165.591.283.167,2.845-.457,2.76-.269,2.531-2.091,2.549a4.694,4.694,0,0,0-3.677,1.308l-.258.244v6.265c0,6.757.016,6.554-.522,6.778a20.509,20.509,0,0,1-4.932-.007c-.6-.312-.566.353-.566-9.755v-9.2l.274-.307.275-.307,1.911-.03c2.85-.046,3.182.057,3.185.99,0,.954.026.958.889.14a5.432,5.432,0,0,1,2.636-1.514l.8-.143a7.126,7.126,0,0,1,1.909.138m23.207.046a14.3,14.3,0,0,1,3.179.968c.413.268.413.462,0,2.344-.527,2.413-.524,2.409-1.81,1.945-4.9-1.771-8,.143-8,4.944s2.948,6.742,7.708,5.092c1.709-.593,1.641-.631,2.207,1.257.684,2.283.664,2.423-.419,2.922-3.333,1.535-8.611,1.457-11.381-.167-3.007-1.764-4.409-4.553-4.41-8.775q0-6.715,4.8-9.439a11.358,11.358,0,0,1,4.455-1.275,22.615,22.615,0,0,1,3.672.183m-85.839,1.3c-4.479,2.576-9.367,5.4-9.958,5.748-.362.215-1.537.895-2.61,1.511L45.014,69.04V76.82l.306-.185c.168-.1,1.025-.6,1.9-1.107,6.3-3.627,10.687-6.163,16.6-9.587.957-.554,2.258-1.3,2.892-1.666,1.324-.757,1.289-.7.7-1.021-.445-.242-2.622-1.493-4.717-2.713-.61-.355-1.194-.691-1.3-.747-.161-.087-.444.045-1.872.866m70.337-.876c.684.19.638-.52.638,9.749v9.242l-.275.307-.274.307-2.242.031c-2.454.033-2.843-.02-3.112-.43-.153-.233-.166-.862-.193-9-.035-10.461-.067-10.018.736-10.207a32.686,32.686,0,0,1,4.721,0M24.51,61.058c-.75.434-2.01,1.158-2.8,1.609a7.811,7.811,0,0,0-1.406.91c.037.11,5.522,3.29,5.578,3.233.022-.022.029-1.5.016-3.291l-.025-3.25-1.364.789m8.266,5.13c-.9.521-1.868,1.084-2.153,1.251s-.8.468-1.153.669c-.79.453-.82.368.376,1.056l2.8,1.609a15.67,15.67,0,0,0,1.858.985c.1-.061.089-6.405-.01-6.467a11.761,11.761,0,0,0-1.717.9m60.746.793c-.039.04-.07,1.766-.07,3.834v3.761l2.092-.062c3.827-.113,4.935-.593,5.534-2.392a3.68,3.68,0,0,0-2.758-4.969,27.5,27.5,0,0,0-4.8-.172m-51.57,3.833c-.566.326-1.6.927-2.3,1.334s-1.492.863-1.764,1.013c-.606.334-.632.293.658,1.032l2.611,1.5c.854.492,1.647.944,1.764,1.006l.211.111v-3.3c0-1.812-.034-3.3-.075-3.3a11.59,11.59,0,0,0-1.1.594" fill="#0454a4" fill-rule="evenodd" style="mix-blend-mode: luminosity;isolation: isolate"/>
  </g>
  <g id="Ibstock_colour" data-name="Ibstock colour" transform="translate(-3.348 -3.348)">
    <path id="path0-2" data-name="path0" d="M111.678,28c-2.455.327-2.917.43-3.151.7l-.211.245v13.59c0,11.923.017,13.624.142,13.864.217.421.646.49,2.8.454l1.872-.032.274-.307a.94.94,0,0,0,.276-.612c0-.533.1-.559.616-.168a8.081,8.081,0,0,0,11.064-1.39c3.219-4.051,2.943-11.931-.543-15.479a7.847,7.847,0,0,0-9.8-1.091,6.615,6.615,0,0,1-.635.376c-.024,0-.043-2.236-.043-4.969V28.214l-.218-.2c-.267-.251-.622-.253-2.439-.011m95.206-.088c-3.48.471-3.732.533-3.932.973-.224.492-.154,27.114.072,27.485.279.458.647.515,3.1.481,3.092-.043,2.829.421,2.83-5.011,0-3.337.02-3.925.129-3.809.07.076,1.007,1.722,2.081,3.657,2.893,5.213,2.675,4.907,3.627,5.088a40.1,40.1,0,0,0,5.473-.006c.785-.218.691-.494-1.285-3.757-3.4-5.615-4.475-7.418-4.475-7.5s.735-1.132,3.649-5.16c2.45-3.388,2.511-3.251-1.421-3.211-3.143.033-2.81-.091-3.715,1.379-1.889,3.07-3.894,6.277-3.971,6.355-.058.058-.091-2.838-.091-8.1,0-8.455-.01-8.678-.38-8.876a4.025,4.025,0,0,0-1.689.014M53.811,29.254c-.466.275-2.92,1.7-5.455,3.159l-8.277,4.778-6.913,3.993c-4.345,2.509-4.493,2.6-4.706,2.87-.245.311-.3,30.195-.053,30.664a4.373,4.373,0,0,0,1.293.922c.639.367,1.691.976,2.337,1.352s2.149,1.244,3.339,1.93c2.124,1.223,3.586,2.069,5.831,3.372.621.36,1.912,1.107,2.868,1.658,4.439,2.56,6.322,3.648,8.371,4.84,2.714,1.58,2.347,1.562,4.656.22,1.625-.945,8.607-4.98,15.143-8.751,1.707-.985,3.337-1.928,3.621-2.1s1.6-.925,2.915-1.681a28.1,28.1,0,0,0,2.61-1.613l.211-.237V59.423c0-13.333-.017-15.235-.14-15.411a4.366,4.366,0,0,0-.917-.646c-.427-.245-2.66-1.533-4.962-2.863s-5.6-3.234-7.336-4.233-3.384-1.954-3.668-2.123c-.479-.285-4.332-2.509-5.079-2.932-.181-.1-.9-.518-1.6-.922-3.19-1.849-2.861-1.766-4.091-1.039m44.563-.282-.264.228-.024,13.473c-.028,14.976-.079,13.781.606,14.068a10.18,10.18,0,0,0,2.823.11L104,56.82l.217-.252c.328-.382.345-1.17.312-14.921l-.029-12.353-.307-.274-.307-.275H98.638l-.264.227m-44.328,5.6a21.353,21.353,0,0,1-.1,3.292c-.1,0-5.431-3.056-5.577-3.194a5.646,5.646,0,0,1,1.27-.854c.741-.43,1.805-1.049,2.366-1.376s1.035-.595,1.054-.595a4.363,4.363,0,0,0,.481-.283,5.456,5.456,0,0,1,.474-.282c.016,0,.029,1.481.029,3.292M151.387,31.6c-2.974.437-2.723.142-2.723,3.2v2.31h-1.029c-1.714,0-1.793.09-1.793,2.05,0,2.04.039,2.088,1.7,2.088h1.029v4.538c0,7.532.174,8.561,1.681,10.029,1.8,1.75,6.126,2.044,9.63.654,1.229-.488,1.222-.463.788-2.826-.347-1.884-.361-1.9-1.578-1.546-2.492.722-3.684.5-4.191-.789-.149-.379-.169-.9-.2-5.237l-.03-4.816,2.458-.028,2.459-.028.227-.263c.219-.254.226-.317.226-1.712,0-2.227.159-2.115-3.014-2.115h-2.347V34.488c0-3.567.2-3.4-3.3-2.883m-95.127-.14c.049.047.511.327,1.026.623.935.537,9.759,5.631,11.808,6.817l3.292,1.9c1.216.7,2.739,1.583,3.386,1.958s1.588.92,2.092,1.209a7.476,7.476,0,0,1,.916.574c0,.026-.858.54-1.9,1.143s-2.536,1.461-3.309,1.908a7.967,7.967,0,0,1-1.526.766c-.066-.025-.873-.486-1.793-1.023s-2.56-1.487-3.647-2.11-2.758-1.587-3.715-2.141c-3.674-2.127-6.176-3.571-6.56-3.788l-.4-.225V35.227c0-3.92.013-4.069.334-3.763m-10.774,8.1A31.1,31.1,0,0,1,45.4,42.8a12.536,12.536,0,0,1-1.81-.945l-2.784-1.607a7.586,7.586,0,0,1-1.058-.672,15.524,15.524,0,0,1,1.528-.935c.841-.48,2.1-1.2,2.8-1.61a8.673,8.673,0,0,1,1.34-.7c.039.022.071,1.474.071,3.227m6.772-.463c2.354,1.36,5.211,3.008,6.349,3.664s2.641,1.523,3.339,1.928c1.927,1.118,4.558,2.634,6.443,3.713.931.533,1.728,1,1.772,1.038.077.068-.357.338-2.924,1.818l-2.466,1.423-1.22.706-.9-.517-1.79-1.035-1.81-1.048c-.963-.557-6.725-3.884-8.818-5.092-.672-.388-1.614-.935-2.092-1.215l-.87-.51V40.183c0-4.1-.012-3.993.414-3.734.16.1,2.217,1.29,4.571,2.649m83.072-2.406c-4.338.786-6.664,3.827-5.715,7.471.617,2.369,1.81,3.345,5.985,4.895,3.016,1.12,3.376,1.362,3.376,2.269,0,1.712-2.786,1.874-6.876.4-1.591-.574-1.516-.62-2.149,1.336-.847,2.616-.882,2.531,1.359,3.3,7.342,2.514,13.487.044,13.5-5.424,0-2.995-1.15-4.278-5.32-5.918-3.508-1.379-3.895-1.626-3.9-2.487,0-1.437,2.852-1.644,6.03-.436.627.238,1.132.249,1.33.028a22.066,22.066,0,0,0,1.1-3.6c0-1.183-5.7-2.38-8.725-1.832m34.5,0c-5.267.866-8.238,4.606-8.225,10.349.015,6.4,3.363,10.051,9.415,10.272,7.345.268,11.7-4.8,10.7-12.454-.762-5.839-5.649-9.2-11.894-8.168m22.35-.034c-5.122.748-8.26,4.412-8.5,9.924-.234,5.421,2.24,9.276,6.652,10.368a15.123,15.123,0,0,0,9.288-.75c.949-.425.969-.7.224-3.092-.471-1.509-.577-1.61-1.384-1.314-3.425,1.254-5.817,1.059-7.233-.589-1.777-2.069-1.693-6.658.157-8.536,1.414-1.437,4.038-1.677,6.7-.612,1.166.466,1.165.467,1.661-1.7.557-2.433.553-2.453-.557-2.9a15.724,15.724,0,0,0-7.008-.8M36.834,44.55v3.3l-.212-.112c-.116-.061-.613-.344-1.1-.627L33.072,45.7c-1.937-1.116-1.886-1.085-1.855-1.177.025-.076,5.411-3.234,5.547-3.254.039-.005.071,1.473.071,3.286M40.5,42.208c.909.525,1.842,1.07,2.075,1.211s1.481.861,2.775,1.6,3.367,1.935,4.608,2.656,2.437,1.414,2.657,1.54c.521.3.527.286-.426.825-.451.255-1.862,1.066-3.136,1.8s-2.4,1.381-2.5,1.434c-.152.081-.8-.26-3.986-2.1l-3.8-2.2-.024-3.864c-.014-2.125,0-3.864.041-3.864s.809.429,1.717.954m132.81-.554c2.618,1.192,3.177,7.6.866,9.912a3.932,3.932,0,0,1-4.041.7c-3.051-1.367-3.143-9-.127-10.538a4.335,4.335,0,0,1,3.3-.076m-54.237.336c1.8.8,2.728,4.189,2.008,7.33-.708,3.086-3.8,3.961-6.39,1.808l-.352-.294V43.044l.494-.327a4.783,4.783,0,0,1,4.241-.725m-87.644,4.9L34.6,48.727l2.234,1.293V68.806l-1.1.649c-.608.357-2.016,1.17-3.128,1.806s-2.117,1.218-2.233,1.294l-.212.137V59.455c0-12.567.008-13.232.165-13.173.09.034.588.308,1.1.608m48.391,2.579c0,1.776-.023,3.252-.052,3.281a25.416,25.416,0,0,1-2.328-1.265c-1.252-.725-2.519-1.45-2.815-1.612-.685-.374-.721-.322.825-1.216.722-.418,1.948-1.13,2.724-1.581a16.026,16.026,0,0,1,1.528-.829c.092-.006.117.7.117,3.222m-21.4,3.1c1.707.983,3.347,1.933,3.646,2.11l.542.324-.024,4.43-.025,4.429-1.364.793L59.219,65.8c-.336.2-1.428.83-2.426,1.407L54.978,68.26l-.4-.225c-.415-.236-3.942-2.271-6.039-3.483l-1.222-.707L47.3,59.486c-.013-2.4.008-4.4.047-4.458s1.128-.707,2.421-1.449,2.584-1.487,2.869-1.655c2.147-1.268,2.3-1.343,2.491-1.243.1.054,1.586.9,3.293,1.886m16.459-.4c1.19.684,2.534,1.455,2.988,1.714a7.42,7.42,0,0,1,.87.544c.044.072-.608.459-5.927,3.523-1.5.864-2.96,1.709-3.245,1.878-1.34.795-4.975,2.874-5.025,2.874-.031,0-.046-1.739-.032-3.865l.025-3.865,3.8-2.2,3.8-2.2.29.176c.16.1,1.263.735,2.453,1.42M40.22,51.978c.233.141,1.482.862,2.775,1.6s2.382,1.391,2.421,1.447c.131.191.086,18.642-.045,18.747-.065.052-1.176.7-2.469,1.452-3.674,2.122-4.046,2.333-4.118,2.333-.037,0-.067-5.95-.067-13.222V51.117l.54.3c.3.166.731.417.964.559m39.6,7.43c0,3.159-.028,3.445-.31,3.216-.112-.091-1.038-.63-3.946-2.3a14.911,14.911,0,0,1-1.48-.908,15.509,15.509,0,0,1,1.472-.906c.809-.466,2.065-1.193,2.794-1.615a8.556,8.556,0,0,1,1.4-.724c.04.025.074,1.48.074,3.232m-5.14,2.547c1.353.781,2.693,1.558,2.977,1.728s.66.381.835.47c.447.227.825-.023-5.105,3.385-.832.479-2.085,1.2-2.783,1.6L67.543,70.9c-.983.566-2.062,1.19-2.4,1.386-3.54,2.067-9.109,5.269-9.162,5.269-.031,0-.046-1.741-.033-3.868l.025-3.868,1.222-.707L60.16,67.4l3.292-1.9,2.8-1.616,2.492-1.439c2.651-1.532,3.318-1.907,3.395-1.91.044,0,1.186.635,2.54,1.416m91.482-.667c-.595.089-1.521.216-2.058.281-.844.1-1.016.154-1.27.381l-.294.262-.025,13.5c-.028,15.007-.067,14.036.594,14.312a8.871,8.871,0,0,0,2.635.114l2.294-.028.261-.261.261-.261.047-4.207c.052-4.691-.011-4.388.66-3.172.92,1.668,3.455,6.2,3.776,6.75a2.728,2.728,0,0,0,.759.894l.387.256,2.829.025c3.733.034,3.886-.056,2.895-1.7-.255-.424-1.513-2.5-2.795-4.626-3.281-5.426-3-4.924-2.873-5.16.06-.111,1.272-1.81,2.694-3.775,3.441-4.758,3.466-4.467-.384-4.461a16.731,16.731,0,0,0-2.774.116c-.4.138-.249-.1-4.344,6.545-.877,1.422-.775,2.306-.829-7.217l-.047-8.4-.222-.18c-.27-.219-.675-.217-2.176.008m-28.781.786a3.021,3.021,0,0,0-.592,5.663,3.6,3.6,0,0,0,3.991-.689c2.133-2.314-.3-5.874-3.4-4.974m-38.819.071c-.633.183-.594-.777-.567,14.045l.025,13.4.261.261.261.261,4.724.029c6.1.037,7.987-.117,10.062-.82,3.668-1.242,5.353-3.563,5.37-7.392a6.568,6.568,0,0,0-5.336-6.91l-1-.258.551-.2a5.688,5.688,0,0,0,3.623-5.7c-.021-4.191-2.736-6.3-8.637-6.723-1.644-.117-8.921-.11-9.333.01M50.273,67.693c1.532.885,3.009,1.74,3.281,1.9l.495.293-.025,4.423L54,78.735l-3.292,1.9c-1.81,1.047-3.323,1.9-3.362,1.9s-.071-3.7-.071-8.229c0-6.061.028-8.229.106-8.229.059,0,1.361.724,2.892,1.608m29.544,1.621c0,1.776-.024,3.253-.053,3.282a46.39,46.39,0,0,1-4.589-2.587,3.621,3.621,0,0,1-1.035-.73c.154-.152,5.442-3.188,5.559-3.191.092,0,.117.7.117,3.226m27.846-2.248c1.772.375,2.533,1.249,2.533,2.907,0,2.373-1.263,3.253-4.679,3.258l-1.152,0v-6.3l1.34,0a12.043,12.043,0,0,1,1.958.133M131.17,69.9l-.8.143a5.432,5.432,0,0,0-2.636,1.514c-.863.817-.887.814-.889-.14,0-.933-.335-1.036-3.185-.99l-1.911.03-.275.307-.274.307v9.2c0,10.108-.038,9.442.566,9.755a20.509,20.509,0,0,0,4.932.007c.538-.225.522-.022.522-6.778V76.986l.258-.244a4.694,4.694,0,0,1,3.677-1.308c1.124-.011,1.473-.044,1.58-.151a24.255,24.255,0,0,0,.793-4.9c-.134-.352-1.5-.631-2.358-.48m21.444,0a9.931,9.931,0,0,0-6.331,2.664c-4.064,3.864-3.928,12.686.246,15.977,3.055,2.409,8.62,2.856,12.622,1.013,1.082-.5,1.1-.639.419-2.922-.566-1.888-.5-1.85-2.207-1.257-4.76,1.65-7.713-.3-7.708-5.092s3.1-6.715,8-4.944c.833.3,1.119.307,1.293.03a18.772,18.772,0,0,0,.819-3.957c-.317-.834-4.826-1.787-7.155-1.513m-79,1.364c2.1,1.22,4.271,2.471,4.717,2.713.584.316.619.265-.7,1.021-.634.362-1.935,1.112-2.892,1.666-5.913,3.424-10.3,5.959-16.6,9.587-.88.507-1.737,1-1.9,1.107l-.306.185V79.765l1.951-1.121c1.073-.616,2.248-1.3,2.61-1.511s2.372-1.379,4.467-2.586c7.709-4.442,7.155-4.139,7.363-4.028.1.056.689.392,1.3.747m62.445-.759c-.8.189-.771-.254-.736,10.207.026,8.14.04,8.769.193,9,.269.41.658.463,3.112.43l2.242-.031.274-.307.275-.307V80.259c0-10.269.046-9.56-.638-9.749a32.685,32.685,0,0,0-4.721,0M36.8,77.534c-.056.057-5.542-3.123-5.578-3.233a7.812,7.812,0,0,1,1.406-.91c.789-.451,2.049-1.175,2.8-1.609l1.364-.789.025,3.25c.013,1.788.007,3.269-.016,3.291m8.691,1.718c0,1.753-.032,3.207-.071,3.231a15.67,15.67,0,0,1-1.858-.985l-2.8-1.609c-1.2-.687-1.166-.6-.376-1.056.349-.2.868-.5,1.153-.669a36.623,36.623,0,0,1,3.869-2.148c.044.028.081,1.484.081,3.236m63.746-1.373a3.68,3.68,0,0,1,2.758,4.969c-.6,1.8-1.708,2.279-5.534,2.392l-2.092.062V81.541c0-2.069.031-3.795.07-3.834a27.5,27.5,0,0,1,4.8.172M54.046,84.24v3.3l-.211-.111c-.117-.061-.91-.513-1.764-1.006l-2.611-1.5c-1.29-.74-1.264-.7-.658-1.032.272-.15,1.066-.606,1.764-1.013,2.513-1.464,3.331-1.927,3.4-1.927.042,0,.075,1.483.075,3.3" transform="translate(-10.913 -10.725)" fill="#f9fafb" fill-rule="evenodd"/>
    <path id="path1-2" data-name="path1" d="M4.969,3.635a2.83,2.83,0,0,0-1.4,1.458l-.221.484L3.372,48.6c.024,42.5.026,43.025.208,43.4a3.607,3.607,0,0,0,1.668,1.519c.788.275,216.351.273,217.139,0a3.361,3.361,0,0,0,1.764-1.764c.274-.787.276-85.713,0-86.5a3.61,3.61,0,0,0-1.519-1.668c-.372-.183-1.363-.184-108.734-.208L5.542,3.348l-.574.287M103.2,17.285l.218.2v4.969c0,2.733.019,4.969.043,4.969a6.615,6.615,0,0,0,.635-.376,7.847,7.847,0,0,1,9.8,1.091c3.486,3.548,3.762,11.427.543,15.479a8.081,8.081,0,0,1-11.064,1.39c-.513-.392-.613-.365-.616.168a.94.94,0,0,1-.276.612l-.274.307-1.872.032c-2.153.037-2.582-.033-2.8-.454-.124-.24-.142-1.941-.142-13.864V18.219l.211-.245c.445-.515,5.157-1.1,5.59-.69m94.456-.112c.37.2.38.421.38,8.876,0,5.258.033,8.155.091,8.1.078-.078,2.082-3.286,3.971-6.355.9-1.47.571-1.346,3.715-1.379,3.932-.04,3.871-.177,1.421,3.211-2.914,4.028-3.649,5.067-3.649,5.16s1.075,1.89,4.475,7.5c1.976,3.263,2.07,3.539,1.285,3.757a40.1,40.1,0,0,1-5.473.006c-.952-.181-.733.126-3.627-5.088-1.074-1.936-2.011-3.582-2.081-3.657-.109-.116-.129.472-.129,3.809,0,5.433.262,4.969-2.83,5.011-2.451.034-2.819-.022-3.1-.481-.226-.371-.3-26.994-.072-27.485.2-.44.452-.5,3.932-.973a4.025,4.025,0,0,1,1.689-.014M45.014,18.427c.388.223,1.277.736,1.975,1.141s1.418.82,1.6.922c.748.423,4.6,2.646,5.079,2.932.284.169,1.935,1.125,3.668,2.123s5.034,2.9,7.336,4.233,4.535,2.618,4.962,2.863a4.366,4.366,0,0,1,.917.646c.123.176.14,2.078.14,15.411V63.909l-.211.237a28.094,28.094,0,0,1-2.61,1.613c-1.319.756-2.631,1.513-2.915,1.681s-1.914,1.112-3.621,2.1C54.8,73.308,47.815,77.343,46.19,78.287c-2.308,1.342-1.941,1.359-4.656-.22-2.049-1.192-3.932-2.281-8.371-4.84-.957-.552-2.248-1.3-2.868-1.658-2.245-1.3-3.707-2.149-5.831-3.372-1.19-.685-2.692-1.554-3.339-1.93s-1.7-.984-2.337-1.352a4.373,4.373,0,0,1-1.293-.922c-.244-.469-.192-30.353.053-30.664.213-.271.361-.361,4.706-2.87l6.913-3.993,8.277-4.778c2.535-1.462,4.989-2.884,5.455-3.159,1.041-.615,1.209-.624,2.116-.1M93.286,18.3l.307.274.029,12.353c.033,13.751.016,14.539-.312,14.921l-.217.252-2.49.029a10.18,10.18,0,0,1-2.823-.11c-.685-.286-.634.908-.606-14.068L87.2,18.475l.264-.228.264-.227h5.253l.307.275M42.631,20.842a4.363,4.363,0,0,1-.481.283c-.02,0-.494.267-1.054.595s-1.625.947-2.366,1.376a5.646,5.646,0,0,0-1.27.854c.145.138,5.48,3.194,5.577,3.194a21.353,21.353,0,0,0,.1-3.292c0-1.81-.013-3.292-.029-3.292a5.456,5.456,0,0,0-.474.282m100.928.054c.209.236.212.275.212,2.867v2.628h2.347c3.173,0,3.014-.111,3.014,2.115,0,1.395-.008,1.458-.226,1.712l-.227.263-2.459.028-2.458.028.03,4.816c.027,4.334.047,4.858.2,5.236.507,1.287,1.7,1.512,4.191.789,1.217-.352,1.231-.338,1.578,1.546.434,2.362.441,2.338-.788,2.826-3.5,1.39-7.833,1.1-9.63-.654-1.507-1.468-1.679-2.5-1.681-10.029V30.53h-1.029c-1.66,0-1.7-.048-1.7-2.088,0-1.96.079-2.05,1.793-2.05h1.029v-2.31c0-3.06-.251-2.764,2.723-3.2,2.35-.345,2.766-.343,3.084.016M45.014,24.5v3.848l.4.225c.384.217,2.886,1.661,6.56,3.788.957.554,2.629,1.517,3.715,2.141s2.727,1.573,3.647,2.11,1.727,1,1.793,1.023a7.968,7.968,0,0,0,1.526-.766c.773-.447,2.262-1.305,3.309-1.908s1.9-1.117,1.9-1.143a7.477,7.477,0,0,0-.916-.574c-.5-.289-1.446-.834-2.092-1.209s-2.171-1.257-3.386-1.958l-3.292-1.9c-2.049-1.186-10.874-6.28-11.808-6.817-.515-.3-.976-.576-1.026-.623-.321-.306-.334-.157-.334,3.763M33.163,26.308c-.7.406-1.957,1.13-2.8,1.61a15.524,15.524,0,0,0-1.528.935,7.586,7.586,0,0,0,1.058.672l2.784,1.607a12.536,12.536,0,0,0,1.81.945c.1-.063.116-6.408.014-6.466a8.672,8.672,0,0,0-1.34.7m3.259-.7c-.034.034-.061,1.766-.061,3.85v3.788l.87.51c.479.28,1.42.827,2.092,1.215,2.093,1.207,7.855,4.534,8.818,5.092l1.81,1.048,1.79,1.035.9.517,1.22-.706,2.466-1.423c2.567-1.48,3-1.75,2.924-1.818-.043-.038-.84-.506-1.772-1.038-1.885-1.079-4.516-2.595-6.443-3.713-.7-.405-2.2-1.272-3.339-1.928-3.988-2.3-10.631-6.137-10.92-6.313-.16-.1-.319-.149-.353-.116m91.782.315c2.484.281,4.938,1.213,4.938,1.876a22.065,22.065,0,0,1-1.1,3.6c-.2.221-.7.21-1.33-.028-3.178-1.208-6.031-1-6.03.436,0,.861.388,1.108,3.9,2.487,4.17,1.64,5.325,2.924,5.32,5.918-.008,5.468-6.154,7.938-13.5,5.424-2.242-.768-2.206-.683-1.359-3.3.634-1.957.558-1.91,2.149-1.336,4.09,1.474,6.876,1.312,6.876-.4,0-.907-.36-1.149-3.376-2.269-4.174-1.55-5.367-2.526-5.985-4.895-1.252-4.808,3.086-8.24,9.5-7.515m35.511.171a8.866,8.866,0,0,1,7.092,8.037c1,7.652-3.36,12.722-10.7,12.454-6.052-.221-9.4-3.874-9.415-10.272-.012-5.145,2.28-8.59,6.626-9.965a14.225,14.225,0,0,1,6.4-.253m21.253-.172a11.147,11.147,0,0,1,4.075,1.216c.25.243.22.586-.215,2.489-.5,2.167-.5,2.167-1.661,1.7-2.661-1.064-5.285-.825-6.7.612-1.85,1.878-1.934,6.467-.157,8.536,1.416,1.649,3.808,1.844,7.233.589.806-.3.912-.194,1.384,1.314.745,2.388.725,2.667-.224,3.092a15.123,15.123,0,0,1-9.288.75c-4.412-1.091-6.886-4.947-6.652-10.368.3-6.844,5.14-10.786,12.2-9.931M23.055,32.132c-1.5.871-2.737,1.618-2.751,1.66-.031.093-.081.061,1.855,1.177L24.6,36.381c.492.284.989.566,1.1.627l.212.112v-3.3c0-1.812-.032-3.291-.071-3.286s-1.3.722-2.8,1.593m4.77,2.261.024,3.864,3.8,2.2c3.186,1.839,3.834,2.18,3.986,2.1.1-.053,1.224-.7,2.5-1.434s2.685-1.545,3.136-1.8c.953-.539.947-.527.426-.825-.22-.126-1.416-.818-2.657-1.54s-3.315-1.917-4.608-2.656-2.542-1.461-2.775-1.6c-.991-.6-3.732-2.164-3.792-2.164-.037,0-.055,1.739-.041,3.864m132-3.673c-1.893.477-2.891,2.349-2.891,5.42,0,3.862,1.191,5.622,3.809,5.627s3.9-1.834,3.9-5.594c0-4.069-1.878-6.194-4.817-5.453M106,31.09a7.422,7.422,0,0,0-2.086.9l-.494.327V40.11l.352.294c2.141,1.784,4.912,1.482,5.994-.652a10.246,10.246,0,0,0-.077-7.03A3.352,3.352,0,0,0,106,31.09M19.243,48.73V61.966l.212-.137c.116-.075,1.121-.657,2.233-1.294s2.519-1.449,3.128-1.806l1.1-.649V39.3L23.687,38l-3.174-1.837c-.517-.3-1.014-.574-1.1-.608-.156-.06-.165.606-.165,13.173M67.258,36.351c-.776.451-2,1.163-2.724,1.581-1.545.894-1.51.842-.825,1.216.3.162,1.563.887,2.815,1.612a25.418,25.418,0,0,0,2.328,1.265,58.619,58.619,0,0,0-.066-6.5,16.028,16.028,0,0,0-1.528.829M43.132,40.376c-.491.285-1.125.656-1.409.824s-1.576.913-2.869,1.655-2.383,1.394-2.421,1.449-.06,2.06-.047,4.458l.022,4.359,1.222.707c2.1,1.212,5.625,3.247,6.039,3.483l.4.225,1.815-1.049c1-.577,2.09-1.211,2.426-1.407l1.975-1.15,1.364-.793.025-4.429.024-4.43-.542-.324c-.688-.411-6.686-3.865-6.939-4-.157-.081-.343-.01-1.081.42m14.289,1.668-3.8,2.2L53.6,48.109c-.013,2.126,0,3.865.032,3.865.05,0,3.684-2.08,5.025-2.874.284-.169,1.745-1.014,3.245-1.878,5.319-3.063,5.971-3.451,5.927-3.523a7.421,7.421,0,0,0-.87-.544c-1.674-.956-5.16-2.964-5.441-3.134l-.29-.176-3.8,2.2M27.8,53.613c0,7.272.03,13.222.067,13.222.072,0,.444-.211,4.118-2.333,1.294-.747,2.4-1.4,2.469-1.452.131-.105.176-18.556.045-18.747-.038-.056-1.127-.707-2.421-1.447s-2.542-1.461-2.775-1.6-.666-.393-.964-.559l-.54-.3V53.613m39.631-7.44c-.728.422-1.985,1.149-2.794,1.615a15.508,15.508,0,0,0-1.472.906,14.912,14.912,0,0,0,1.48.908c2.909,1.667,3.834,2.205,3.946,2.3a.2.2,0,0,0,.211.031,60.224,60.224,0,0,0,.025-6.48,8.556,8.556,0,0,0-1.4.724M60.11,50.411c-.569.326-1.6.917-2.281,1.313l-2.492,1.439-2.8,1.616-3.292,1.9-2.963,1.712-1.222.707-.025,3.868c-.013,2.127,0,3.868.033,3.868.054,0,5.622-3.2,9.162-5.269.336-.2,1.415-.82,2.4-1.386l3.057-1.763c.7-.4,1.951-1.125,2.783-1.6,5.93-3.408,5.552-3.158,5.105-3.385-.175-.089-.55-.3-.835-.47-1.505-.9-5.448-3.147-5.517-3.144a12.061,12.061,0,0,0-1.114.6m97.312.144.222.18.047,8.4c.053,9.523-.048,8.638.829,7.217,4.1-6.641,3.939-6.407,4.344-6.545a16.732,16.732,0,0,1,2.774-.116c3.851-.006,3.825-.3.384,4.461-1.422,1.966-2.634,3.665-2.694,3.775-.128.236-.407-.266,2.873,5.16,1.282,2.121,2.54,4.2,2.795,4.626.991,1.645.839,1.735-2.895,1.7l-2.829-.025-.387-.256a2.728,2.728,0,0,1-.759-.894c-.321-.55-2.856-5.082-3.776-6.75-.671-1.216-.608-1.519-.66,3.172l-.047,4.207-.261.261-.261.261-2.294.028a8.871,8.871,0,0,1-2.635-.114c-.661-.276-.621.7-.594-14.312l.025-13.5.294-.262c.254-.227.426-.278,1.27-.381.536-.066,1.463-.193,2.058-.281,1.5-.225,1.906-.227,2.176-.008m-28.575.976a3.041,3.041,0,0,1,1.6,3.94c-1.385,3.051-6.242,2.162-6.274-1.149a3.24,3.24,0,0,1,4.677-2.791m-31.867-.12c5.9.42,8.616,2.533,8.637,6.723a5.688,5.688,0,0,1-3.623,5.7l-.551.2,1,.258a6.568,6.568,0,0,1,5.336,6.91c-.016,3.829-1.7,6.15-5.37,7.392-2.075.7-3.957.856-10.062.82l-4.724-.029-.261-.261-.261-.261-.025-13.4c-.027-14.823-.066-13.863.567-14.045.412-.119,7.689-.126,9.333-.01M36.361,63.59c0,4.526.032,8.229.071,8.229s1.552-.858,3.362-1.9l3.292-1.9.024-4.424.025-4.423-.495-.293c-2.06-1.221-6.086-3.51-6.173-3.51s-.106,2.169-.106,8.229m29.627-6.669c-1.475.855-2.717,1.59-2.761,1.634a3.621,3.621,0,0,0,1.035.73,46.391,46.391,0,0,0,4.589,2.587,58.473,58.473,0,0,0-.065-6.508c-.065,0-1.324.7-2.8,1.558m27.464,2.437v3.151l1.152,0c3.416-.005,4.679-.885,4.679-3.258,0-2.174-1.272-3.036-4.491-3.04l-1.34,0v3.151m28.714-.043c.584.165.591.283.167,2.845-.457,2.76-.269,2.531-2.091,2.549a4.694,4.694,0,0,0-3.677,1.308l-.258.244v6.265c0,6.757.016,6.554-.522,6.778a20.509,20.509,0,0,1-4.932-.007c-.6-.312-.566.353-.566-9.755v-9.2l.274-.307.275-.307,1.911-.03c2.85-.046,3.182.057,3.185.99,0,.954.026.958.889.14a5.432,5.432,0,0,1,2.636-1.514l.8-.143a7.126,7.126,0,0,1,1.909.138m23.207.046a14.3,14.3,0,0,1,3.179.968c.413.268.413.462,0,2.344-.527,2.413-.524,2.409-1.81,1.945-4.9-1.771-8,.143-8,4.944s2.948,6.742,7.708,5.092c1.709-.593,1.641-.631,2.207,1.257.684,2.283.664,2.423-.419,2.922-3.333,1.535-8.611,1.457-11.381-.167-3.007-1.764-4.409-4.553-4.41-8.775q0-6.715,4.8-9.439a11.358,11.358,0,0,1,4.455-1.275,22.615,22.615,0,0,1,3.672.183m-85.839,1.3c-4.479,2.576-9.367,5.4-9.958,5.748-.362.215-1.537.895-2.61,1.511L45.014,69.04V76.82l.306-.185c.168-.1,1.025-.6,1.9-1.107,6.3-3.627,10.687-6.163,16.6-9.587.957-.554,2.258-1.3,2.892-1.666,1.324-.757,1.289-.7.7-1.021-.445-.242-2.622-1.493-4.717-2.713-.61-.355-1.194-.691-1.3-.747-.161-.087-.444.045-1.872.866m70.337-.876c.684.19.638-.52.638,9.749v9.242l-.275.307-.274.307-2.242.031c-2.454.033-2.843-.02-3.112-.43-.153-.233-.166-.862-.193-9-.035-10.461-.067-10.018.736-10.207a32.686,32.686,0,0,1,4.721,0M24.51,61.058c-.75.434-2.01,1.158-2.8,1.609a7.811,7.811,0,0,0-1.406.91c.037.11,5.522,3.29,5.578,3.233.022-.022.029-1.5.016-3.291l-.025-3.25-1.364.789m8.266,5.13c-.9.521-1.868,1.084-2.153,1.251s-.8.468-1.153.669c-.79.453-.82.368.376,1.056l2.8,1.609a15.67,15.67,0,0,0,1.858.985c.1-.061.089-6.405-.01-6.467a11.761,11.761,0,0,0-1.717.9m60.746.793c-.039.04-.07,1.766-.07,3.834v3.761l2.092-.062c3.827-.113,4.935-.593,5.534-2.392a3.68,3.68,0,0,0-2.758-4.969,27.5,27.5,0,0,0-4.8-.172m-51.57,3.833c-.566.326-1.6.927-2.3,1.334s-1.492.863-1.764,1.013c-.606.334-.632.293.658,1.032l2.611,1.5c.854.492,1.647.944,1.764,1.006l.211.111v-3.3c0-1.812-.034-3.3-.075-3.3a11.59,11.59,0,0,0-1.1.594" fill="#0454a4" fill-rule="evenodd"/>
  </g>
</svg>
