<svg id="Ibstock_element" data-name="Ibstock element" xmlns="http://www.w3.org/2000/svg" width="246.606" height="67.069" viewBox="0 0 246.606 67.069">
  <g id="Ibstock_grey" data-name="Ibstock grey" opacity="0.75">
    <path id="Контур_1718" data-name="Контур 1718" d="M1273.552,717.74c-9.813,5.673-19.422,11.143-28.792,16.727v33.685l28.765,16.656,28.863-16.727V734.458Zm10.425,37.027v-8.3l8.111-4.742,7.171,4.157Zm8.084-2.26,6.755,3.856c-1.25,1.418-21.124,13.111-24.235,14.263v-7.978Zm2.163-11.994,5.993-3.546v6.959Zm-19.644-19.706,24.688,14.3-7.171,4.157-17.516-10.141Zm-2.278.115v6.9l-5.975-3.546Zm-6.879,5.319,24.546,14.183-7.145,4.193-17.4-10.1Zm-2.323,0v6.994l-6.125-3.546Zm-9.334,5.39v6.9l-6.054-3.422Zm0,39.208-6.072-3.422,6.072-3.448Zm.071-9.432-7.092,4.122V736.994l7.092,4.06Zm9.37,14.848-6.161-3.422,6.161-3.661Zm0-9.521-7.171,4.131V742.383l7.171,4.157Zm-7.18-26.851v-8.315l15.371,8.865-7.145,4.157Zm16.231,41.61c-1.232-.656-2.154-1.135-3.058-1.658s-1.658-.993-2.8-1.675l5.859-3.44Zm.053-9.272-6.817,3.936v-17.49l6.817,3.918Zm-6.906-16.133V746.47l8.12-4.734,8.217,4.778v9.494l-8.182,4.8Zm9.175,25.707v-8.324l17.507-10.141,7.216,4.122Zm25.707-16.222-6.019-3.466,6.019-3.546Zm0-10.761-6.063-3.493,6.063-3.546Z" transform="translate(-1244.76 -717.74)" fill="#414141"/>
    <path id="Контур_1719" data-name="Контур 1719" d="M1361.377,739.52a7.978,7.978,0,0,0-9.361-3.6c-.975.284-1.906.691-3.041,1.108,0-1.906.062-3.661,0-5.416s.417-3.67-.346-5.407a12.541,12.541,0,0,0-6.134,1.081c-.461,4.5-.284,28.233.239,30.042,3.041.753,4.432.567,5.895-.94.5.3.886.532,1.241.745a8.731,8.731,0,0,0,12.339-4.432,14.255,14.255,0,0,0-.833-13.182Zm-5.266,9.99c-.585,2.908-2.872,3.892-5.594,2.659a15.46,15.46,0,0,1-1.463-.887V742.6a14.713,14.713,0,0,1,1.374-.789c2.9-1.294,5.15-.3,5.726,2.775A13.167,13.167,0,0,1,1356.112,749.51Z" transform="translate(-1255.828 -718.697)" fill="#fff"/>
    <path id="Контур_1720" data-name="Контур 1720" d="M1477.457,757.272a16.214,16.214,0,0,1-6.719.222c-.665-.08-1.374-1.037-1.773-1.773-1.214-2.039-2.287-4.166-3.422-6.205-.2-.363-.434-.709-.993-1.613v9.068a8.732,8.732,0,0,1-6.4.248V726.875l6.276-.975c.24,3.306.1,6.276.115,9.246s0,5.992,0,9.6l5.319-8.545c2.278,0,4.432-.434,6.888.39l-6.205,8.661C1472.59,749.347,1475.48,752.919,1477.457,757.272Z" transform="translate(-1268.991 -718.667)" fill="#fff"/>
    <path id="Контур_1721" data-name="Контур 1721" d="M1429.133,744.645c-.683-2.553-1.773-4.867-4.166-6.205a12.136,12.136,0,0,0-12.144-.319c-3.918,2.03-5.372,5.611-5.416,9.875a14.348,14.348,0,0,0,0,1.853c.434,3.386,1.649,6.4,4.8,8.084a12.012,12.012,0,0,0,12.579-.346C1428.743,755.159,1430.472,749.654,1429.133,744.645Zm-7.242,7.216a3.617,3.617,0,0,1-3.546,2.314,3.431,3.431,0,0,1-3.457-2.34,27.464,27.464,0,0,1-.887-3.856,25.638,25.638,0,0,1,.842-3.546,3.857,3.857,0,0,1,7.136.027A9.556,9.556,0,0,1,1421.891,751.861Z" transform="translate(-1263.225 -719.887)" fill="#fff"/>
    <path id="Контур_1722" data-name="Контур 1722" d="M1384.843,752.456a6.2,6.2,0,0,1-4.175,6.108,11.161,11.161,0,0,1-6.462.754c-2.119-.4-4.353-.594-6.205-2.19l1.365-4.3c1.374.381,2.438.753,3.546.966a22.233,22.233,0,0,0,3.892.479c1.064,0,1.861-.523,1.658-2.128a21.722,21.722,0,0,0-2.074-1.135c-1.374-.576-2.81-1.01-4.175-1.613a6.347,6.347,0,0,1,.825-12.1,14.547,14.547,0,0,1,10.948,1.2c-.177,1.773-.39,3.306-1.507,4.5-6.117-1.25-6.117-1.25-7.8.487a7.637,7.637,0,0,0,1.489,1.232c1.507.709,3.076,1.294,4.618,1.915A5.8,5.8,0,0,1,1384.843,752.456Z" transform="translate(-1258.754 -719.897)" fill="#fff"/>
    <path id="Контур_1723" data-name="Контур 1723" d="M1404.735,756.664c-2.659,2.322-8.244,2.757-10.974.886a5.212,5.212,0,0,1-2.385-4.477c-.053-3,0-5.992-.062-8.989v-2.73l-2.854-.363v-4.157l2.863-.487v-5.23l5.833-.886c1.445,1.915.16,4.166.886,6.205l5.434.31v4.237l-5.656.319c0,3.236-.089,6.471,0,9.7.08,1.853,1.223,2.615,3.076,2.323.886-.142,1.826-.4,2.97-.665C1404.239,754.208,1404.5,755.467,1404.735,756.664Z" transform="translate(-1261.077 -719.158)" fill="#fff"/>
    <path id="Контур_1724" data-name="Контур 1724" d="M1452.744,757.28c-4.042,2.987-11.116,2.9-14.75-.1-3.262-2.659-3.936-6.409-3.546-10.3.691-6.728,5.319-10.558,12.1-10.1a43.429,43.429,0,0,1,5.833,1.188c-.319,1.773-.585,3.218-.886,4.911a7.091,7.091,0,0,1-1.445,0c-.762-.177-1.489-.55-2.26-.691a5.363,5.363,0,0,0-4.5.886c-2.774,2.119-2.659,7.8-.231,10,1.543,1.365,3.422,1.25,5.266.886a25.027,25.027,0,0,0,3-.975Z" transform="translate(-1266.288 -719.898)" fill="#fff"/>
    <path id="Контур_1725" data-name="Контур 1725" d="M1336.958,756.275a7.006,7.006,0,0,1-.417,1.516h-5.221a4.671,4.671,0,0,1-.966-.2c-.594-1.773-.727-27.294-.142-30.139a24.894,24.894,0,0,1,6.258-.133,5.46,5.46,0,0,1,.479,1.489Q1336.993,742.526,1336.958,756.275Z" transform="translate(-1254.42 -718.813)" fill="#fff"/>
    <path id="Контур_1726" data-name="Контур 1726" d="M1521.82,775.544a8.487,8.487,0,0,0-.355-1.622c-1.125.4-2.1.692-3.076,0a2.1,2.1,0,0,0-1.294-.08c-2.482.328-4.149,3.032-3.6,5.789.612,3.129,2.3,4.237,5.265,3.466.373-.1.727-.231,1.268-.4-.071,4.352-2.748,3.4-5.2,2.881-.1.434-.16.753-.23,1.046,3.945,2.163,7.038.567,7.224-3.7C1521.909,780.481,1521.856,778.008,1521.82,775.544Zm-1.826,5.319a3.076,3.076,0,0,1-3.546.727c-1.472-2.11-1.622-4.246-.408-5.531,1.011-1.064,2.1-.975,3.962.363Z" transform="translate(-1275.263 -724.103)" fill="#414141"/>
    <path id="Контур_1727" data-name="Контур 1727" d="M1333.93,769.79h-1.658c-1.64,4.3-3.262,8.572-4.982,13.1l1.835-.124c.558-1.321,1.055-2.509,1.507-3.546h4.7c.541,1.259,1.055,2.438,1.6,3.723l1.87-.239Zm-2.748,7.677c.585-1.693,1.108-3.182,1.844-5.319l1.853,5.319Z" transform="translate(-1254.131 -723.65)" fill="#414141"/>
    <path id="Контур_1728" data-name="Контур 1728" d="M1495.272,769.09c-2.1,1.135-.514,3.244-1.144,4.388-1.507.08-3.014-.2-4.166.3-3.067,1.365-3.448,6.471-.762,8.528a2.969,2.969,0,0,0,2.961.629,3.785,3.785,0,0,1,3.342-.089C1496.1,779.754,1495.955,770.783,1495.272,769.09Zm-1.135,11.338c-2.172,1.48-3.067,1.542-4.1.434s-.957-4.317.106-5.4a2.322,2.322,0,0,1,2.659-.532,1.941,1.941,0,0,1,1.339,2.056Z" transform="translate(-1272.312 -723.571)" fill="#414141"/>
    <path id="Контур_1729" data-name="Контур 1729" d="M1465.8,775.636a3.643,3.643,0,0,0-4.282-2.243,14.584,14.584,0,0,0-1.986.816V769.13c-1.294.142-1.542.745-1.534,1.658v11.781c1.5.133,2.659.275,3.865.337a3.6,3.6,0,0,0,4.14-2.872A6.2,6.2,0,0,0,1465.8,775.636Zm-3.147,5.886c-1.135.488-2.012-.168-2.961-1.055v-4.361a2.482,2.482,0,0,1,3.191-1.179c1.543.647,1.587,2.145,1.587,3.608a2.934,2.934,0,0,1-1.817,2.987Z" transform="translate(-1268.974 -723.575)" fill="#414141"/>
    <path id="Контур_1730" data-name="Контур 1730" d="M1392.592,782.672l-1.312.115a3.714,3.714,0,0,1-.275-.824c0-1.321,0-2.659,0-3.962,0-1.144.151-2.42-1.117-3s-2.216,0-3.227,1.064v6.551l-1.861.2V770.847c0-.887.2-1.543,1.285-1.667,1.223,1.365.1,3.1.833,4.689a20.155,20.155,0,0,1,2.127-.523c2.163-.266,3.439.718,3.546,2.854S1392.592,780.4,1392.592,782.672Z" transform="translate(-1260.662 -723.581)" fill="#414141"/>
    <path id="Контур_1731" data-name="Контур 1731" d="M1367.006,782.649l-1.312.16a2.893,2.893,0,0,1-.3-.807c0-1.409-.044-2.819,0-4.237,0-1.081.08-2.225-1.081-2.757s-2.19.053-3.227.957V782.6l-1.48.293a8.466,8.466,0,0,1-.355-1.578V770.983c0-.948.071-1.773,1.489-1.773.886,1.5,0,3.244.55,4.884a15.874,15.874,0,0,1,1.879-.683c2.136-.5,3.723.594,3.847,2.775S1367.006,780.388,1367.006,782.649Z" transform="translate(-1257.76 -723.584)" fill="#414141"/>
    <path id="Контур_1732" data-name="Контур 1732" d="M1413.549,774.287a26.526,26.526,0,0,1-3.005-.293,3.607,3.607,0,0,0-4.485,2.243,9.378,9.378,0,0,0-.373,4.37,3.431,3.431,0,0,0,5.009,2.659c.47-.195.886-.452,1.356-.665.753.807,1.489,1.073,2.438.4C1413.044,780.191,1414.453,777.124,1413.549,774.287Zm-4.184,7.978a3.514,3.514,0,0,1-2.181-3.927,3.156,3.156,0,0,1,1.658-2.819,2.393,2.393,0,0,1,3,.886c.4,4.388.319,4.672-2.473,5.868Z" transform="translate(-1263.021 -724.114)" fill="#414141"/>
    <path id="Контур_1733" data-name="Контур 1733" d="M1510.985,783.229h-1.649v-4.246a11.146,11.146,0,0,0-.1-2.11,1.773,1.773,0,0,0-2.376-1.427,13,13,0,0,0-1.924.886V782.9c-.815.647-1.356.567-1.675-.142-.417-.887-.151-7.26.354-8.723a6.125,6.125,0,0,0,3.129,0c2.341-.807,3.963.31,4.193,2.8C1511.127,778.912,1510.985,781.066,1510.985,783.229Z" transform="translate(-1274.09 -724.103)" fill="#414141"/>
    <path id="Контур_1734" data-name="Контур 1734" d="M1439.474,773.84c-2.589,0-4.432,2-4.494,4.858s1.773,4.955,4.344,4.946,4.388-1.968,4.432-4.893C1443.782,775.666,1442.2,773.84,1439.474,773.84Zm1.773,7.42a2.278,2.278,0,0,1-3.936-.293,4.149,4.149,0,0,1,.062-4.547,2.278,2.278,0,0,1,3.776-.328,4.574,4.574,0,0,1,.133,5.168Z" transform="translate(-1266.359 -724.11)" fill="#414141"/>
    <path id="Контур_1735" data-name="Контур 1735" d="M1374.769,773.9a4.432,4.432,0,0,0-5.079,3.165c-.612,1.959,0,4.521,1.321,5.558,1.773,1.365,3.759,1.179,5.718.425.213-.08.275-.541.541-1.117a11.585,11.585,0,0,0-1.711,0c-2.73.434-3.227.142-4.388-2.943h6.205C1377.739,776,1376.879,774.388,1374.769,773.9Zm-3.377,3.927c.709-2.092,1.232-2.659,2.509-2.544s1.95.948,2.154,2.544Z" transform="translate(-1258.919 -724.109)" fill="#414141"/>
    <path id="Контур_1736" data-name="Контур 1736" d="M1400.012,773.855c-2.34-.293-4.237,1.25-4.8,3.847a4.725,4.725,0,0,0,1.773,5.142c1.7,1.25,3.643.886,5.487.151.186-.08.2-.558.372-1.108-2.5.089-5.319,1.046-5.877-2.846h6.108C1403.3,775.877,1402.193,774.121,1400.012,773.855Zm-2.952,3.98c.638-2.066,1.17-2.659,2.473-2.553s1.95.886,2.145,2.553Z" transform="translate(-1261.823 -724.108)" fill="#414141"/>
    <path id="Контур_1737" data-name="Контур 1737" d="M1448.414,773.113l2.553.727c-.346,1.489-1.6.576-2.482,1.392v5.975c0,.966-.195,1.773-1.7,1.5-.284-2.509,0-5.035-.16-7.508l-1.454-1.028,1.392-1.1c.292-2.881,1.046-3.9,2.925-4.042,1.48-.115,1.773.062,2.207,1.4l-2.819.213Z" transform="translate(-1267.516 -723.56)" fill="#414141"/>
    <path id="Контур_1738" data-name="Контур 1738" d="M1476.17,774.24v9.175a7.42,7.42,0,0,0-3.546,0c-2.659.505-3.785-.523-3.847-3.236-.053-1.915,0-3.838,0-5.824l1.33-.08c.62,1.578.248,3.174.292,4.716.08,3.271,1.063,3.812,4.317,2.012v-6.569Z" transform="translate(-1270.195 -724.156)" fill="#414141"/>
    <path id="Контур_1739" data-name="Контур 1739" d="M1345.97,782.116c-1.268,1.6-2.234,1.631-4.6.062q-.195-3.12-.452-6.746l-.957-.771,1.631-3.271h1.223c.106.745.2,1.418.284,2.074l2.154.62c-.222,1.542-1.551.567-2.145,1.268v6.329Z" transform="translate(-1255.57 -723.832)" fill="#414141"/>
    <path id="Контур_1740" data-name="Контур 1740" d="M1357.21,781.821c-.231,1.631-.612,1.773-3.767,1.011-1.383-2.4-.31-5.035-.833-7.553-.4-.177-.842-.381-1.569-.727l1.6-1.3c.053-.434.142-1.117.222-1.773l1.205-.5c.16.886.3,1.6.461,2.456l2.376.771v.505l-2.517.621V779.2C1354.417,781.706,1354.621,781.883,1357.21,781.821Z" transform="translate(-1256.828 -723.785)" fill="#414141"/>
    <path id="Контур_1741" data-name="Контур 1741" d="M1429.392,782.144c-1.064,1.427-2.234,1.206-3.4.948s-1.5-1.108-1.507-2.163v-5.4l-1.161-.975a8.862,8.862,0,0,0,1.073-2.021c.168-.789.275-1.383,1.436-1.17.133.674.283,1.4.425,2.128l2.411.612a2.188,2.188,0,0,0,.044.541l-2.659.718c.248,2.207-.425,4.352.594,6.383Z" transform="translate(-1265.036 -723.824)" fill="#414141"/>
    <path id="Контур_1742" data-name="Контур 1742" d="M1485.195,782.741h-1.445c.186-4.432-.275-8.8.3-13.164,0-.186.55-.319.887-.488C1485.5,770.916,1485.656,778.283,1485.195,782.741Z" transform="translate(-1271.897 -723.571)" fill="#414141"/>
    <path id="Контур_1743" data-name="Контур 1743" d="M1418.454,776.651v6.6H1417V774.5l4.432-.567C1421.548,776.182,1418.693,774.879,1418.454,776.651Z" transform="translate(-1264.318 -724.12)" fill="#414141"/>
    <path id="Контур_1744" data-name="Контур 1744" d="M1500.788,782.969c-.886.6-1.631.47-1.64-.248-.053-2.783.071-5.576.16-8.359,0-.106.266-.2.55-.381.275.151.47.2.567.328a1.24,1.24,0,0,1,.346.665C1500.788,777.694,1500.788,780.407,1500.788,782.969Z" transform="translate(-1273.644 -724.126)" fill="#414141"/>
    <path id="Контур_1745" data-name="Контур 1745" d="M1481.191,774.26v9h-1.4v-8.865Z" transform="translate(-1271.448 -724.158)" fill="#414141"/>
    <path id="Контур_1746" data-name="Контур 1746" d="M1501,771.416c-.576,1.3-1.25,1.259-2.074.558C1499.444,770.574,1499.444,770.574,1501,771.416Z" transform="translate(-1273.621 -723.77)" fill="#414141"/>
    <path id="Контур_1747" data-name="Контур 1747" d="M1481.338,771.186c-.053,1.055-.523,1.436-1.321,1.108a1.108,1.108,0,0,1-.408-1.01C1479.955,770.468,1480.62,770.548,1481.338,771.186Z" transform="translate(-1271.426 -723.752)" fill="#414141"/>
  </g>
</svg>
