<svg id="kilsaran" xmlns="http://www.w3.org/2000/svg" width="242.051" height="46.97" viewBox="0 0 242.051 46.97">
  <path id="Контур_3197" data-name="Контур 3197" d="M1999.1,506.19l20.75,23.08H2006.3l-22.03-23.08,22.03-23.09h13.55Z" transform="translate(-1974.32 -483.09)" fill="#8c959c"/>
  <path id="Контур_3198" data-name="Контур 3198" d="M1985.55,498.91l-6.94,7.28,6.94,7.27v15.81h-11.23V483.1h11.23Z" transform="translate(-1974.32 -483.09)" fill="#005693"/>
  <path id="Контур_3199" data-name="Контур 3199" d="M2023.43,491.28v-8.19h8.86v8.19Zm0,38V495.82h8.86v33.47Z" transform="translate(-1974.32 -483.09)" fill="#005693"/>
  <path id="Контур_3200" data-name="Контур 3200" d="M2040.05,529.29v-46.2h8.86v46.2Z" transform="translate(-1974.32 -483.09)" fill="#005693"/>
  <path id="Контур_3201" data-name="Контур 3201" d="M2054.09,519.74l8.88-1.36a6.53,6.53,0,0,0,2.3,3.93,7.82,7.82,0,0,0,4.86,1.34,8.72,8.72,0,0,0,5.16-1.26,2.82,2.82,0,0,0,1.17-2.37,2.33,2.33,0,0,0-.63-1.67,7,7,0,0,0-3-1.16q-10.73-2.37-13.58-4.32a8.63,8.63,0,0,1-4-7.53,9.28,9.28,0,0,1,3.44-7.31q3.43-3,10.65-3,6.87,0,10.21,2.24a11.421,11.421,0,0,1,4.6,6.62l-8.35,1.54a5.152,5.152,0,0,0-2-3,7.461,7.461,0,0,0-4.27-1,9.63,9.63,0,0,0-5,1,2.1,2.1,0,0,0-1,1.79,2,2,0,0,0,.88,1.61q1.2.88,8.27,2.49t9.88,3.94a8.181,8.181,0,0,1,2.78,6.59,10.109,10.109,0,0,1-3.85,7.91q-3.84,3.3-11.37,3.3-6.84,0-10.83-2.77a12.73,12.73,0,0,1-5.2-7.55Z" transform="translate(-1974.32 -483.09)" fill="#005693"/>
  <path id="Контур_3202" data-name="Контур 3202" d="M2118.8,504.37a11.657,11.657,0,0,0-1-4.34,8.79,8.79,0,0,0-4.08-3.56q-2.89-1.41-8.82-1.41-6.53,0-9.84,2.33a12.57,12.57,0,0,0-4.66,7.19l8,1.45a6.48,6.48,0,0,1,2.15-3.26,6.329,6.329,0,0,1,3.69-.93c2.33,0,3.91.36,4.75,1.09a4.571,4.571,0,0,1,1.27,3.64v.88a48.078,48.078,0,0,1-8.61,2.17,29.582,29.582,0,0,0-7,2.07,8.78,8.78,0,0,0-3.8,3.4,9.562,9.562,0,0,0-1.36,5.06,9.34,9.34,0,0,0,3,7.09,11.427,11.427,0,0,0,8.15,2.8,13.882,13.882,0,0,0,5.52-1.1,15.343,15.343,0,0,0,4.16-2.68h0v3h8.53V504.52A.508.508,0,0,1,2118.8,504.37ZM2110.25,515a17.553,17.553,0,0,1-.35,4.32,5.6,5.6,0,0,1-2.11,2.93,7.691,7.691,0,0,1-4.57,1.58,4.85,4.85,0,0,1-3.53-1.36,4.33,4.33,0,0,1-1.39-3.22,3.691,3.691,0,0,1,1.73-3.11,16.259,16.259,0,0,1,4.83-1.55c2.45-.52,4.25-1,5.39-1.35Z" transform="translate(-1974.32 -483.09)" fill="#005693"/>
  <path id="Контур_3203" data-name="Контур 3203" d="M2135.3,529.29h-8.85V495.82h8.22v4.76a14.476,14.476,0,0,1,3.8-4.45,7,7,0,0,1,3.83-1.07,11.26,11.26,0,0,1,5.83,1.67l-2.74,7.72a7.831,7.831,0,0,0-4.16-1.45,4.93,4.93,0,0,0-3.15,1,7,7,0,0,0-2,3.7q-.75,2.68-.75,11.22Z" transform="translate(-1974.32 -483.09)" fill="#005693"/>
  <path id="Контур_3204" data-name="Контур 3204" d="M2216.36,529.29h-8.86V512.21c0-3.62-.18-6-.56-7a4.929,4.929,0,0,0-1.85-2.48,5.24,5.24,0,0,0-3.07-.88,7.12,7.12,0,0,0-4.13,1.26,6.309,6.309,0,0,0-2.5,3.34,28.5,28.5,0,0,0-.68,7.69V529.3h-8.86V495.82h8.23v4.92a13.7,13.7,0,0,1,16.39-4.62,9,9,0,0,1,3.67,2.69,9.769,9.769,0,0,1,1.73,3.72,27.374,27.374,0,0,1,.49,6Z" transform="translate(-1974.32 -483.09)" fill="#005693"/>
  <path id="Контур_3205" data-name="Контур 3205" d="M2178.13,504.39a11.764,11.764,0,0,0-1-4.34,8.84,8.84,0,0,0-4.08-3.56q-2.9-1.39-8.82-1.4-6.53,0-9.84,2.33a12.509,12.509,0,0,0-4.66,7.19l8,1.45a6.509,6.509,0,0,1,2.15-3.27,6.322,6.322,0,0,1,3.68-.93c2.34,0,3.92.37,4.76,1.09a4.6,4.6,0,0,1,1.27,3.64v.88a47.846,47.846,0,0,1-8.61,2.18,29.639,29.639,0,0,0-7,2.06,8.869,8.869,0,0,0-3.8,3.41,9.52,9.52,0,0,0-1.36,5,9.359,9.359,0,0,0,3,7.1,11.427,11.427,0,0,0,8.15,2.8,14,14,0,0,0,5.51-1.1,15.482,15.482,0,0,0,4.17-2.68h0v3h8.53V504.55A.255.255,0,0,1,2178.13,504.39ZM2169.58,515a17.4,17.4,0,0,1-.35,4.31,5.52,5.52,0,0,1-2.11,2.93,7.63,7.63,0,0,1-4.57,1.58,4.84,4.84,0,0,1-3.53-1.35,4.35,4.35,0,0,1-1.39-3.22,3.7,3.7,0,0,1,1.73-3.12,16.333,16.333,0,0,1,4.83-1.54q3.67-.79,5.39-1.36Z" transform="translate(-1974.32 -483.09)" fill="#005693"/>
</svg>
