<svg id="kingscourt" xmlns="http://www.w3.org/2000/svg" width="252.408" height="54.505" viewBox="0 0 252.408 54.505">
  <rect id="Прямоугольник_280" data-name="Прямоугольник 280" width="22.604" height="0.824" transform="translate(57.495 49.044)" fill="#f2f2f2"/>
  <path id="Контур_1296" data-name="Контур 1296" d="M1415.3,424.8Zm-48.648,0Z" transform="translate(-1267.022 -370.295)" fill="#f2f2f2"/>
  <path id="Контур_1297" data-name="Контур 1297" d="M1536.724,363.87v4.955c-1.853.886-3.9.106-6,.576v19.768a13.694,13.694,0,0,1-5.726.106V369.481c-1.968-.505-3.812,0-5.647-.372-.55-1.667,0-3.306-.4-5.239Z" transform="translate(-1284.316 -363.376)" fill="#f2f2f2"/>
  <path id="Контур_1298" data-name="Контур 1298" d="M1412.84,421.649c-.346.984-1.711,1.241-2.278,1.5h-3.041a3.659,3.659,0,0,1-1.6-.886,5.62,5.62,0,0,1-.887-7.934c2.021-2.411,5.319-2.544,7.827-.293-.168.683-.771.993-1.214,1.436-2.571-.957-3.679-.886-4.663.505a2.907,2.907,0,0,0,0,3.661c.966,1.347,2.119,1.48,4.432.541A2.509,2.509,0,0,1,1412.84,421.649Z" transform="translate(-1271.239 -368.89)" fill="#f2f2f2"/>
  <path id="Контур_1299" data-name="Контур 1299" d="M1323.247,363.816v25.645c-1.144.8-1.773-.1-2.473-.789-3.785-3.829-7.552-7.668-11.346-11.48a5.142,5.142,0,0,0-2.03-1.666v13.518a12.9,12.9,0,0,1-5.647.222V363.638c1.214-.816,1.853.08,2.544.753l12.331,11.94c.275.266.434.727,1.152.6V363.922a20.067,20.067,0,0,1,5.469-.106Z" transform="translate(-1259.653 -363.313)" fill="#f2f2f2"/>
  <path id="Контур_1300" data-name="Контур 1300" d="M1505.145,378.488c3.457-2.181,4.849-5.5,3.812-9.077-1-3.422-3.945-5.558-7.88-5.647q-3.111-.062-6.205,0c-1.613.044-3.271-.239-4.831.2-.39,3.289-.275,23.526.151,25.379,1.773.124,3.546.417,5.461-.31v-9.68c.957.177,1.72-.2,2.491.39,1.773,3.129,3.085,6.6,5.053,9.751,2.021-.177,3.989.381,6.072-.461l-5.257-9.875C1504.444,378.887,1504.808,378.7,1505.145,378.488Zm-4.379-3.821c-1.64.089-3.3,0-5.141,0a35.224,35.224,0,0,1,0-5.638c1.826,0,3.546-.1,5.319,0a2.659,2.659,0,0,1,2.659,2.713,2.837,2.837,0,0,1-2.837,2.925Z" transform="translate(-1281.006 -363.359)" fill="#f2f2f2"/>
  <path id="Контур_1301" data-name="Контур 1301" d="M1347.449,376.335h8.439v10.957c-4.565,2.491-9.485,3.5-14.573,1.188-4.707-2.145-7.092-6.054-7.508-11.152a13.226,13.226,0,0,1,7.65-12.836c4.929-2.234,10.513-1.2,14.715,2.934l-3.546,3.794c-4.636-2.659-7.632-2.6-10.354.1a7.26,7.26,0,0,0-1.2,8.864,7.582,7.582,0,0,0,1.161,1.525l.239.239q.177.16.346.293a4.059,4.059,0,0,0,.39.293l.337.222.292.16.4.2.2.089.31.115.213.062h0l.434.115h0a9.335,9.335,0,0,0,4.734-.257l.089-.071a.957.957,0,0,0,.248-.8c0-.319-.053-.629-.071-.886-.825-.621-1.773-.071-2.6-.505-.638-.594-.248-1.472-.31-2.252S1347.449,377.293,1347.449,376.335Z" transform="translate(-1263.29 -363.316)" fill="#f2f2f2"/>
  <path id="Контур_1302" data-name="Контур 1302" d="M1477.241,365.607v13.846a10.2,10.2,0,0,1-9.911,10.336,10.017,10.017,0,0,1-10.638-9.494c-.266-5.407-.062-10.841-.062-16.293a24.834,24.834,0,0,1,5.638-.2,41.48,41.48,0,0,1,.177,6.329c0,3.049-.071,6.1,0,9.148a4.459,4.459,0,1,0,8.909-.133c.071-4.2,0-8.412,0-12.614v-2.562a25.333,25.333,0,0,1,5.319-.213,1.9,1.9,0,0,1,.567,1.853Z" transform="translate(-1277.231 -363.359)" fill="#f2f2f2"/>
  <path id="Контур_1303" data-name="Контур 1303" d="M1275.3,388.79c-2.4,1.17-4.5.3-6.657.78l-8.3-11.293-.417.124v10.735c-2.012.656-3.785.257-5.673.293V363.9a17.383,17.383,0,0,1,5.655.133v9.556l.417.133,7.872-9.848c1.932-.062,3.883-.443,6.205.363-2.659,4.2-5.984,7.641-8.865,11.675Z" transform="translate(-1254.26 -363.36)" fill="#f2f2f2"/>
  <path id="Контур_1304" data-name="Контур 1304" d="M1415.989,385.522c-2.535,3.652-7.9,5.159-12.809,3.705a13.057,13.057,0,0,1-9.361-12.118,13.3,13.3,0,0,1,8.563-12.969c4.734-1.773,11.284-.443,13.616,3.271a20.745,20.745,0,0,1-3.4,3.608c-2.189-1.339-4.432-2.659-7.145-1.879a7.232,7.232,0,0,0-3.847,2.58,7.827,7.827,0,0,0,.257,9.636c2.535,2.943,5.93,3.147,10.752.505a21.587,21.587,0,0,1,3.377,3.661Z" transform="translate(-1270.106 -363.319)" fill="#f2f2f2"/>
  <path id="Контур_1305" data-name="Контур 1305" d="M1384.457,383.825c-.931,3.546-4.051,5.868-8.209,5.913-3.324,0-6.391-.674-8.758-3.271a17.818,17.818,0,0,1,2.2-3.821c.825-.328,1.25.151,1.773.4a22.451,22.451,0,0,0,2.659,1.232c1.906.647,3.315.257,3.954-.975s0-2.553-1.773-3.608c-.993-.585-2.092-.993-3.129-1.516a10.372,10.372,0,0,1-4.911-4.388,7.092,7.092,0,0,1,2.358-8.989c3.785-2.6,10.3-1.658,13.536,2.127-.745,1.135-1.409,2.172-2.11,3.182a3.462,3.462,0,0,1-.7.6c-2.659-.7-5.07-4.255-8.022-.886.08,1.915,1.356,2.6,2.606,3.253,1.4.727,2.9,1.259,4.255,2.048C1383.818,377.266,1385.334,380.457,1384.457,383.825Z" transform="translate(-1267.117 -363.316)" fill="#f2f2f2"/>
  <path id="Контур_1306" data-name="Контур 1306" d="M1435.668,363.34a10.3,10.3,0,1,0,10.2,10.247,10.132,10.132,0,0,0-10.2-10.247Zm.071,15.274a5.088,5.088,0,0,1-4.937-5.141,5.017,5.017,0,0,1,5.017-4.787,4.964,4.964,0,1,1-.08,9.928Z" transform="translate(-1273.678 -363.316)" fill="#f2f2f2"/>
  <path id="Контур_1307" data-name="Контур 1307" d="M1290.514,363.972v25.211a13.339,13.339,0,0,1-5.514.186v-25.45A20.15,20.15,0,0,1,1290.514,363.972Z" transform="translate(-1257.751 -363.363)" fill="#f2f2f2"/>
  <path id="Контур_1308" data-name="Контур 1308" d="M1370.4,417.728c1.055-.948,1.835-1.906,1.188-3.3a3.471,3.471,0,0,0-3.475-1.87h-3.173V423a3.474,3.474,0,0,0,1.516.408H1368c1.64,0,3.156-.434,3.883-2.1S1371.509,418.694,1370.4,417.728Zm-1.082-2.012c-.2,1.1-.886,1.347-1.906,1.055-.488-.523-.177-1.081-.31-1.72,1.1-.239,1.808-.266,2.216.665Zm-1.9,5.2a1.631,1.631,0,0,1-.062-1.844c.957-.293,1.773-.231,2.225.886-.523,1.143-1.321,1.1-2.163.966Z" transform="translate(-1266.828 -368.905)" fill="#f2f2f2"/>
  <path id="Контур_1309" data-name="Контур 1309" d="M1386.223,418.258a3.04,3.04,0,0,0,.887-3.59,3.1,3.1,0,0,0-3.058-2.127,15.07,15.07,0,0,0-4.672.213v10.061a1.676,1.676,0,0,0,2.048.266c.638-1.374-.293-2.872.656-4.166,1.667,1.1,1.551,3.227,3.014,4.326.682.1,1.409.346,2.083-.461l-1.906-3.723A6.555,6.555,0,0,0,1386.223,418.258Zm-4.432-1.117v-2.3c1.188.08,2.411-.576,3.3.886-.5,1.932-2.021,1.117-3.342,1.445Z" transform="translate(-1268.468 -368.894)" fill="#f2f2f2"/>
  <path id="Контур_1310" data-name="Контур 1310" d="M1428.9,422.783c-.94.683-1.773.319-2.659.443l-3.28-4.432c-.576,1.463,0,2.854-.39,4.078a1.285,1.285,0,0,1-.886.505h-.328a4.9,4.9,0,0,1-1.028-.284V412.81c.558-.541,1.294-.2,2.074-.23.568,1.214,0,2.482.426,4.024l3.147-3.892a3.378,3.378,0,0,1,2.659.151l-3.643,4.716Z" transform="translate(-1273.117 -368.898)" fill="#f2f2f2"/>
  <path id="Контур_1311" data-name="Контур 1311" d="M1442.614,391.984c-1.72.505-9.618.612-12.614.142a14.194,14.194,0,0,1-.089-3.546H1442.6A13.029,13.029,0,0,1,1442.614,391.984Z" transform="translate(-1274.197 -366.182)" fill="#f2f2f2"/>
  <path id="Контур_1312" data-name="Контур 1312" d="M1397.178,412.807v10.105a1.773,1.773,0,0,1-2.2.106V412.851A2.278,2.278,0,0,1,1397.178,412.807Z" transform="translate(-1270.239 -368.904)" fill="#f2f2f2"/>
  <rect id="Прямоугольник_281" data-name="Прямоугольник 281" width="22.604" height="0.824" transform="translate(172.166 49.044)" fill="#f2f2f2"/>
</svg>
