<svg xmlns="http://www.w3.org/2000/svg" viewBox="0 0 151.704 32">
  <path id="bloc-tek-logo" d="M119.7,128H97.186A1.185,1.185,0,0,1,96,126.815V111.408a1.185,1.185,0,0,1,1.185-1.185h9.482v3.556H99.556v10.667h17.778V113.778h-5.926a1.185,1.185,0,0,1-1.185-1.185V97.185A1.185,1.185,0,0,1,111.408,96h22.519a1.185,1.185,0,0,1,1.185,1.185v15.407a1.185,1.185,0,0,1-1.185,1.185h-9.481v-3.556h7.111V99.556H113.778v10.667H119.7a1.185,1.185,0,0,1,1.185,1.185v15.407A1.185,1.185,0,0,1,119.7,128Zm128-10.074H237.037a1.185,1.185,0,0,1-1.185-1.185V107.26a1.185,1.185,0,0,1,1.185-1.185H247.7v2.37h-9.481v7.111H247.7v2.37Zm-14.222,0H222.815a1.185,1.185,0,0,1-1.185-1.185V107.26a1.185,1.185,0,0,1,1.185-1.185h10.667v2.37H224v2.37h9.481v2.37H224v2.37h9.481v2.37Zm-18.963,0h-2.37v-9.481h-4.741v-2.37H219.26v2.37h-4.741Zm-21.333,0H182.519a1.185,1.185,0,0,1-1.185-1.185V107.26a1.185,1.185,0,0,1,1.185-1.185h10.667v2.37H183.7v7.111h9.481v2.37Zm-15.407,0H168.3a1.185,1.185,0,0,1-1.185-1.185V107.26a1.185,1.185,0,0,1,1.185-1.185h9.482a1.185,1.185,0,0,1,1.185,1.185v9.481a1.185,1.185,0,0,1-1.185,1.185Zm-8.3-9.481v7.111h7.111v-7.111Zm-4.741,9.481h-8.3a1.185,1.185,0,0,1-1.185-1.185V106.074h2.37v9.482h7.111v2.37Zm-13.037,0H141.037V106.074H151.7a1.185,1.185,0,0,1,1.185,1.185v9.481a1.185,1.185,0,0,1-1.185,1.185Zm-8.3-9.481v7.111h7.111v-2.37h-5.926v-2.37h5.926v-2.37Zm61.63,4.741h-9.481v-2.37h9.481v2.37Z" transform="translate(-96 -96)" fill="#fff"/>
</svg>
