<svg id="marshalls" xmlns="http://www.w3.org/2000/svg" width="256.932" height="59.711" viewBox="0 0 256.932 59.711">
  <path id="Контур_1177" data-name="Контур 1177" d="M1727.612,531.805l.177.071h0Zm-77.352,0a.89.89,0,0,1,.266,0h0a.886.886,0,0,0-.266-.035Z" transform="translate(-1550.295 -485.285)" fill="#fefdfd"/>
  <path id="Контур_1178" data-name="Контур 1178" d="M1640.941,516.02h-5.026q-.745-13.855-1.48-27.639c-3.156,9.166-6.711,18.137-9.955,27.329h-3.962c-3.032-9.13-6.516-18.19-9.175-27.542-.266,9.281-1.01,18.5-1.6,27.843h-4.866c.815-11.7,1.631-23.349,2.464-35.157h4.158a3.715,3.715,0,0,1,2.092.284c3.094,8.865,6.595,17.729,9.192,27.347,2.863-9.556,6.436-18.447,9.751-27.48h6.205Z" transform="translate(-1545.142 -479.498)" fill="#a80d2e"/>
  <path id="Контур_1179" data-name="Контур 1179" d="M1744.7,515.935a22.515,22.515,0,0,1-4.929.168c-.488-.55-.266-1.135-.275-1.675v-12.65a15.475,15.475,0,0,0-.257-3.138,5.115,5.115,0,0,0-7.092-3.83,6.134,6.134,0,0,0-4.06,5.824v13.3a3.323,3.323,0,0,1-.275,2.136h-4.84V481h4.893c.5,1.312.16,2.713.222,4.078s0,2.952,0,4.432v4.308a12.925,12.925,0,0,1,3.492-2.721,8.714,8.714,0,0,1,12.472,5.416,15.612,15.612,0,0,1,.691,4.131C1744.706,505.7,1744.7,510.749,1744.7,515.935Z" transform="translate(-1558.552 -479.52)" fill="#a80d2e"/>
  <path id="Контур_1180" data-name="Контур 1180" d="M1773.07,513.678c0-3.546,0-7.03-.044-10.54a30.272,30.272,0,0,0-.319-4.2c-.621-4.122-3.005-6.693-6.959-7.428a16.045,16.045,0,0,0-11.223,2.11c.612,1.161.612,2.464,1.463,3.457a11.524,11.524,0,0,1,6.914-1.826c3.431.133,4.947,1.9,4.734,5.54-1.711.23-3.475.151-5.195.523-2.854.62-5.6,1.418-7.624,3.714a7.6,7.6,0,0,0,3.945,12.614,9.511,9.511,0,0,0,8.164-1.879c.426-.328.692-.886,1.339-.948.594.7-.062,1.684.638,2.42h4.609a9.752,9.752,0,0,1-.443-3.555Zm-5.079-4.876c-.346,3.7-4.228,5.664-7.021,5.044a3.546,3.546,0,0,1-2.943-2.943,4.326,4.326,0,0,1,1.613-4.5,8.864,8.864,0,0,1,4.5-1.613c1.188-.124,2.393,0,3.874,0a35.567,35.567,0,0,1-.027,4.016Z" transform="translate(-1561.935 -480.684)" fill="#a80d2e"/>
  <path id="Контур_1181" data-name="Контур 1181" d="M1670.646,501.083a16.689,16.689,0,0,0-.186-2.3,8.475,8.475,0,0,0-6.3-7.145,16.418,16.418,0,0,0-9.326.736,6.478,6.478,0,0,0-2.659,1.48c.78.975.7,2.252,1.427,3.271a12.413,12.413,0,0,1,6.7-1.9c3.546-.053,5.638,2.455,5.07,5.6-1.25.08-2.376.089-3.484.23-3.094.417-6.143,1.019-8.563,3.182a7.686,7.686,0,0,0-2.429,8.2,6.816,6.816,0,0,0,5.921,5.266,9.653,9.653,0,0,0,8.1-2.163c.337-.275.532-.886,1.232-.629.089.727.186,1.48.3,2.376a27.675,27.675,0,0,0,4.53-.133C1670.45,511.756,1670.761,506.42,1670.646,501.083Zm-4.893,7.358a5.96,5.96,0,0,1-6.666,5.5,3.8,3.8,0,0,1-3.28-2.872,4.548,4.548,0,0,1,1.959-4.955,9.53,9.53,0,0,1,3.963-1.312,14.84,14.84,0,0,1,4.033,0C1665.761,506.1,1665.8,507.262,1665.752,508.441Z" transform="translate(-1550.328 -480.686)" fill="#a80d2e"/>
  <path id="Контур_1182" data-name="Контур 1182" d="M1821.607,516.424c-3.546,2.1-9.751,1.844-13.3-.683.39-1.161.78-2.34,1.214-3.626a24.561,24.561,0,0,0,5.319,1.773,6.2,6.2,0,0,0,3.315-.4,3.209,3.209,0,0,0,1.108-5.319,9.043,9.043,0,0,0-3.466-1.95,18.066,18.066,0,0,1-3.049-1.436c-2.429-1.534-3.98-3.546-3.661-6.6s2.172-4.955,4.867-6.09a11.213,11.213,0,0,1,10.372,1.126l-1.277,3.6a11.3,11.3,0,0,0-4.432-1.48,6.819,6.819,0,0,0-2.509.231,2.89,2.89,0,0,0-.993,5.035,8.163,8.163,0,0,0,2.376,1.339,22.85,22.85,0,0,1,4.557,2.172,7.34,7.34,0,0,1-.444,12.3Z" transform="translate(-1568.242 -480.691)" fill="#a80d2e"/>
  <path id="Контур_1183" data-name="Контур 1183" d="M1711.028,516.494c-3.705,2.163-10.637,1.507-13.128-.745.372-1.126.762-2.3,1.188-3.608a34.2,34.2,0,0,0,5.035,1.675,6.462,6.462,0,0,0,3.7-.452,3.165,3.165,0,0,0,1.055-5.23,7.7,7.7,0,0,0-3.067-1.773,17.1,17.1,0,0,1-4.955-2.712,6.714,6.714,0,0,1,.355-10.3,9.308,9.308,0,0,1,4.814-1.977,10.983,10.983,0,0,1,7.871,1.72c-.408,1.214-.789,2.331-1.214,3.608-1.427-.47-2.659-1.374-4.149-1.392a10.874,10.874,0,0,0-2.517.1,3.085,3.085,0,0,0-2.438,2.349,2.739,2.739,0,0,0,1.365,3.058,12.869,12.869,0,0,0,2.828,1.383,15.7,15.7,0,0,1,3.767,1.861,7.278,7.278,0,0,1-.505,12.437Z" transform="translate(-1555.705 -480.681)" fill="#a80d2e"/>
  <path id="Контур_1184" data-name="Контур 1184" d="M1788.12,481v35.077h-4.8c-.381-1.383-.5-32.1-.115-35.077Z" transform="translate(-1565.364 -479.52)" fill="#a80d2e"/>
  <rect id="Прямоугольник_276" data-name="Прямоугольник 276" width="4.902" height="35.077" transform="translate(229.892 1.462)" fill="#a80d2e"/>
  <path id="Контур_1185" data-name="Контур 1185" d="M1693.7,491.656v4.317c-.4.461-.887.213-1.383.213a5.788,5.788,0,0,0-6.081,4.973,18.694,18.694,0,0,0-.231,3.147q0,5.585,0,11.169a2.418,2.418,0,0,1-.3,1.773h-4.813V491.922h4.29c.364,1.126,0,2.322.275,3.5C1689.027,491.541,1690.738,490.743,1693.7,491.656Z" transform="translate(-1553.773 -480.691)" fill="#a80d2e"/>
  <path id="Контур_1186" data-name="Контур 1186" d="M1588.913,483.674a4.246,4.246,0,0,1-8.483-.071,4.335,4.335,0,0,1,4.29-4.273A4.28,4.28,0,0,1,1588.913,483.674Z" transform="translate(-1542.366 -479.33)" fill="#e58f07"/>
  <path id="Контур_1187" data-name="Контур 1187" d="M1737.109,544.582c-.886.284-.886-.266-.886-.886.071-3.094-.621-6.152-.5-9.246a4.246,4.246,0,0,0-.16-.815c-1.48,3.812-2.89,7.428-4.432,11.364-1.445-1.826-1.773-3.785-2.455-5.531s-1.347-3.652-2.021-5.514c-.5.443-.257.984-.292,1.463-.177,2.73-.328,5.461-.5,8.191,0,.55.053,1.205-1.1.957q.461-6.294.886-12.641c1.2-.461,1.392.417,1.631,1.1,1.161,3.3,2.615,6.48,3.625,10.274,1.516-4.122,2.659-7.916,4.53-11.417h.053a.417.417,0,0,1,.213,0h.248l.177.071h0a91.9,91.9,0,0,1,.975,12.632Z" transform="translate(-1558.756 -485.287)" fill="#6a6a69"/>
  <path id="Контур_1188" data-name="Контур 1188" d="M1589.807,495.606a4.361,4.361,0,0,1-4.1,4.007,4.255,4.255,0,0,1-4.122-4.157,4.113,4.113,0,0,1,8.218.151Z" transform="translate(-1542.498 -480.722)" fill="#e58f07"/>
  <path id="Контур_1189" data-name="Контур 1189" d="M1585.683,505.807a3.945,3.945,0,0,1-3.909,3.874,3.9,3.9,0,1,1,.213-7.8A4.113,4.113,0,0,1,1585.683,505.807Z" transform="translate(-1542.088 -481.89)" fill="#e58f07"/>
  <path id="Контур_1190" data-name="Контур 1190" d="M1577.919,513.646a4.149,4.149,0,0,1-3.892,3.688,3.732,3.732,0,0,1,.089-7.464A4.166,4.166,0,0,1,1577.919,513.646Z" transform="translate(-1541.22 -482.798)" fill="#e58f07"/>
  <path id="Контур_1191" data-name="Контур 1191" d="M1712.072,543.489a3.987,3.987,0,0,1-.505-.594v-.053h0v-.089h0a.865.865,0,0,1-.053-.23l.115-.346v-.053a1.227,1.227,0,0,1,.1-.319c.027-.1.053-.151.071-.222s.062-.186.089-.275v-.08a1.307,1.307,0,0,1,.115-.372c.692-2.225.585-2.349,0-3.085-.505,1.356-.55,2.846-1.418,4.1a41.692,41.692,0,0,1-3.546-4,21.719,21.719,0,0,0,1.906-1.5,2.66,2.66,0,0,0,.94-2.659,2.482,2.482,0,0,0-2.589-2.012,2.7,2.7,0,0,0-2.713,2.181,4.335,4.335,0,0,0,.886,3.484,19.985,19.985,0,0,0-1.95,2.092,3.6,3.6,0,0,0,2.863,5.4,5.877,5.877,0,0,0,4.042-1.312c1.028.213,1.277,1.6,2.5,1.055A2.409,2.409,0,0,0,1712.072,543.489Zm-6.781-8.643a2.242,2.242,0,0,1,1.152-2.278,1.844,1.844,0,0,1,2.083.541,2.358,2.358,0,0,1-.381,2.7,3.281,3.281,0,0,1-1.773,1.019,2.73,2.73,0,0,1-1.081-1.994Zm.611,9.015a2.606,2.606,0,0,1-1.924-2.243c-.222-1.365.354-2.322,2.065-3.369l3.7,4.149c-1.179,1.436-2.42,1.9-3.838,1.454Z" transform="translate(-1556.287 -485.276)" fill="#6a6a69"/>
  <path id="Контур_1192" data-name="Контур 1192" d="M1797.891,532.749v10.957c0,.346.062.709-.505.993-1.454-.62-1.773-2.287-2.659-3.439s-1.64-2.447-2.447-3.67l-2.66-4.069c-.195,3.892.222,7.437-.213,10.957,0,.053-.1.089-.151.142-.461,0-.567-.328-.567-.7V532.536c0-.284,0-.558.629-.886,1.578,1.587,2.509,3.634,3.768,5.443s2.473,3.546,3.732,5.416V531.872C1797.829,531.579,1797.891,532.129,1797.891,532.749Z" transform="translate(-1566.014 -485.271)" fill="#6a6a69"/>
  <path id="Контур_1193" data-name="Контур 1193" d="M1568.116,517.352a3.386,3.386,0,0,1-3.44,3.466,3.422,3.422,0,0,1-3.457-3.422,3.364,3.364,0,0,1,3.431-3.439,3.289,3.289,0,0,1,3.466,3.4Z" transform="translate(-1540.185 -483.259)" fill="#e58f07"/>
  <path id="Контур_1194" data-name="Контур 1194" d="M1780.73,533.446a5.371,5.371,0,0,0-7.845-.39c-2.225,2.278-2.518,4.991-1.534,7.978a5.141,5.141,0,0,0,5.168,3.758,4.609,4.609,0,0,0,4.069-1.773A8.025,8.025,0,0,0,1780.73,533.446Zm-.275,8.076a4.015,4.015,0,0,1-3.67,2.42,4.184,4.184,0,0,1-4.033-2.243,6.931,6.931,0,0,1,0-7.03,4.1,4.1,0,0,1,3.794-2.234,3.989,3.989,0,0,1,3.785,2.216,5.752,5.752,0,0,1,.886,3.546,6.044,6.044,0,0,1-.8,3.324Z" transform="translate(-1563.984 -485.258)" fill="#6a6a69"/>
  <path id="Контур_1195" data-name="Контур 1195" d="M1628.036,537.75a4.537,4.537,0,0,1,.47-.505,2.828,2.828,0,0,0,1.126-3.351,3.235,3.235,0,0,0-3.076-2.172,11.323,11.323,0,0,0-3.546.186c0,4.273,0,8.341,0,12.41,0,.053.071.106.115.16l.186.2a32.229,32.229,0,0,0,3.333,0,3.741,3.741,0,0,0,3.608-3.466C1630.4,539.532,1629.339,538.565,1628.036,537.75Zm-4.087-4.991a4.521,4.521,0,0,1,3.386.071,2.092,2.092,0,0,1,1.5,2.243,2.455,2.455,0,0,1-1.995,2.128,8.161,8.161,0,0,1-2.89,0Zm3.546,10.788a6.639,6.639,0,0,1-3.546.231v-5.319a7.538,7.538,0,0,1,2.987,0,2.629,2.629,0,0,1,.576,5.088Z" transform="translate(-1547.201 -485.272)" fill="#6a6a69"/>
  <path id="Контур_1196" data-name="Контур 1196" d="M1810.134,538.388c.319-.293.514-.487.727-.665a3.164,3.164,0,0,0,1.055-3.776,3.307,3.307,0,0,0-3.253-2.234,12.533,12.533,0,0,0-3.546.177c-.417,2.659-.3,11.409.142,12.72.886-.886.886-1.143.665-5.647a2.3,2.3,0,0,1,1.436-.16c2.012,0,2.659.576,3.191,2.606.248.94.479,1.9.78,2.819.16.505.541.594,1.046.2C1811.774,542.377,1811.854,540.064,1810.134,538.388Zm-.532-.816a6.42,6.42,0,0,1-3.723.31v-5.035a4.3,4.3,0,0,1,4.007.177,2.376,2.376,0,0,1,1.3,2.482,2.473,2.473,0,0,1-1.587,2.065Z" transform="translate(-1567.85 -485.272)" fill="#6a6a69"/>
  <path id="Контур_1197" data-name="Контур 1197" d="M1558.549,516.878a3.377,3.377,0,0,1-3.4,3.262,3.608,3.608,0,0,1-3.315-3.448,3.4,3.4,0,0,1,3.492-3.182,3.182,3.182,0,0,1,3.227,3.369Z" transform="translate(-1539.119 -483.211)" fill="#e58f07"/>
  <path id="Контур_1198" data-name="Контур 1198" d="M1643.071,541.389a6.206,6.206,0,0,0-1.569-3.076,9.871,9.871,0,0,0,1.3-1.135,3.254,3.254,0,0,0-1.214-5.088,7.979,7.979,0,0,0-5.23-.053v11.932c0,.487.221.807,1.081.558v-5.664c.621,0,.966-.071,1.312-.062,1.994,0,2.757.629,3.342,2.509a10.353,10.353,0,0,0,.488,2.039c.222.39.062,1.028.887,1.037C1643.868,543.33,1643.177,542.391,1643.071,541.389Zm-2.216-3.732c-.886.4-1.276.417-3.493.133v-5.044a5.5,5.5,0,0,1,3.05-.142,2.58,2.58,0,0,1,2.216,2.234,2.775,2.775,0,0,1-1.773,2.819Z" transform="translate(-1548.717 -485.268)" fill="#6a6a69"/>
  <path id="Контур_1199" data-name="Контур 1199" d="M1751.682,540.168c-.55-1.436-.966-2.925-1.6-4.326s-.612-3.129-2.234-4.432c-1.667,4.521-3.236,8.794-4.813,13.066.248.106.426.239.488.2,1.587-1.064,1.037-3.253,2.42-4.547h3.954a3.412,3.412,0,0,1,.674.142c.806,1.383.886,3.147,2.1,4.53C1752.95,543.457,1752.914,543.359,1751.682,540.168Zm-5.549-1.019a58.945,58.945,0,0,1,1.968-5.992c.762,2.128,1.418,3.954,2.172,6.081A21.127,21.127,0,0,1,1746.133,539.149Z" transform="translate(-1560.829 -485.244)" fill="#6a6a69"/>
  <path id="Контур_1200" data-name="Контур 1200" d="M1547.651,515.7a2.916,2.916,0,0,1-3.1-3.165,3.306,3.306,0,0,1,3.04-3.165,3.546,3.546,0,0,1,3.315,3.2A3.227,3.227,0,0,1,1547.651,515.7Z" transform="translate(-1538.291 -482.741)" fill="#e58f07"/>
  <path id="Контур_1201" data-name="Контур 1201" d="M1545.624,506.2a3.546,3.546,0,0,1-2.952,3.12,3.377,3.377,0,0,1-3.262-2.961,3.111,3.111,0,0,1,6.205-.16Z" transform="translate(-1537.708 -482.062)" fill="#e58f07"/>
  <path id="Контур_1202" data-name="Контур 1202" d="M1679.732,544.377c-.647.532-.993.275-1.365-.248-1.427-1.995-2.881-3.962-4.432-6.063a4.436,4.436,0,0,0-1.338,1.383c-.257,1.773.213,3.493-.257,5.168-.585,0-.7-.284-.709-.656V532.437c0-.186.151-.372.292-.727,1.02.975.479,2.11.576,3.094s0,2.065,0,3.369c2.34-2.092,3.732-4.778,6.205-6.365a2.466,2.466,0,0,1,.479.231c-1.365,1.87-3.218,3.3-4.61,5.319Z" transform="translate(-1552.722 -485.278)" fill="#6a6a69"/>
  <path id="Контур_1203" data-name="Контур 1203" d="M1543.332,498.291a3.12,3.12,0,0,1-2.961,2.978,3.173,3.173,0,0,1-2.881-3.049,2.925,2.925,0,0,1,5.842.071Z" transform="translate(-1537.49 -481.165)" fill="#e58f07"/>
  <path id="Контур_1204" data-name="Контур 1204" d="M1763.875,544.281a5.62,5.62,0,0,1-5.2-.266c-.106-.089,0-.39-.062-.567.576-.505.948.062,1.348.213a4.21,4.21,0,0,0,2.89.1,2.509,2.509,0,0,0,.886-4.379,3.926,3.926,0,0,0-1.631-.886,5.992,5.992,0,0,1-2.039-1.073,2.934,2.934,0,0,1-.984-3.9,2.988,2.988,0,0,1,2.456-1.773c1.17-.124,2.473-.381,3.342.887-.931.151-1.773-.222-2.659-.133a2.659,2.659,0,0,0-2.384,1.729,2.171,2.171,0,0,0,1.232,2.659c.886.479,1.773.8,2.66,1.3C1766.278,539.689,1766.358,542.782,1763.875,544.281Z" transform="translate(-1562.598 -485.27)" fill="#6a6a69"/>
  <path id="Контур_1205" data-name="Контур 1205" d="M1691.251,541.442a3.191,3.191,0,0,1-2.207,3.023,5.9,5.9,0,0,1-4.681-.337c-.292-.142-.275-.452,0-.984a6.7,6.7,0,0,0,3.032.807,2.784,2.784,0,0,0,2.659-1.941,2.562,2.562,0,0,0-1.462-3.12,11.9,11.9,0,0,0-1.525-.709,4.148,4.148,0,0,1-2.881-3.4c.372-1.534,1.188-2.846,2.934-3.076,1.2-.159,2.6-.479,3.546.753-.354.514-.665.5-1,.293a3.43,3.43,0,0,0-2.056-.266,2.491,2.491,0,0,0-2.323,1.773,2.384,2.384,0,0,0,1.188,2.482c.886.488,1.773.807,2.659,1.3C1690.444,538.818,1691.392,539.784,1691.251,541.442Z" transform="translate(-1554.144 -485.259)" fill="#6a6a69"/>
  <path id="Контур_1206" data-name="Контур 1206" d="M1664.753,544.436c-4.1.966-7.481,0-8.581-4.024s.984-7.677,4.1-8.536a10.139,10.139,0,0,1,4.379-.071c.443.071.78.355.39,1.064-4.61-1.321-7.331.7-7.88,3.634a7.976,7.976,0,0,0,.31,4.556,4.771,4.771,0,0,0,3.484,2.748c1.542.461,2.961-.257,4.432-.2C1665.453,544.267,1665.063,544.365,1664.753,544.436Z" transform="translate(-1550.933 -485.265)" fill="#6a6a69"/>
  <path id="Контур_1207" data-name="Контур 1207" d="M1542.183,493.775a2.987,2.987,0,0,1-2.783-2.659,2.738,2.738,0,1,1,5.469-.248,2.73,2.73,0,0,1-2.686,2.908Z" transform="translate(-1537.706 -480.345)" fill="#e58f07"/>
  <path id="Контур_1208" data-name="Контур 1208" d="M1825.418,533.042c-.426.718-.8,1.48-1.285,2.163a10.761,10.761,0,0,0-2.3,8.049c.071.514.328,1.312-.771,1.445-.612-.824-.328-1.773-.266-2.659a8.633,8.633,0,0,0-1.463-5.753c-.94-1.365-1.64-2.89-2.447-4.344l.4-.293c1.321.541,1.542,1.968,2.207,3.014s1.188,2.181,1.844,3.4c1.569-2.1,2.367-4.548,4.122-6.356.054-.053.257,0,.479.08C1826.171,532.386,1825.639,532.661,1825.418,533.042Z" transform="translate(-1569.216 -485.271)" fill="#6a6a69"/>
  <path id="Контур_1209" data-name="Контур 1209" d="M1549.276,485.147a2.473,2.473,0,0,1-2.5,2.517,2.554,2.554,0,0,1-.106-5.106,2.393,2.393,0,0,1,2.606,2.588Z" transform="translate(-1538.249 -479.695)" fill="#e58f07"/>
  <path id="Контур_1210" data-name="Контур 1210" d="M1555.416,481.924a2.456,2.456,0,0,1-2.562,2.464,2.571,2.571,0,0,1-2.464-2.615,2.713,2.713,0,0,1,2.509-2.393A2.553,2.553,0,0,1,1555.416,481.924Z" transform="translate(-1538.955 -479.336)" fill="#e58f07"/>
  <path id="Контур_1211" data-name="Контур 1211" d="M1562.023,482.065c-.745,1.773-1.711,2.518-2.987,2.181a2.526,2.526,0,0,1-1.906-2.438,2.659,2.659,0,0,1,2.154-2.243C1560.561,479.344,1561.447,480.142,1562.023,482.065Z" transform="translate(-1539.72 -479.353)" fill="#e58f07"/>
  <path id="Контур_1212" data-name="Контур 1212" d="M1567.776,484.987c-.887,1.995-1.543,2.473-2.908,2.207a2.314,2.314,0,0,1,0-4.432C1566.048,482.469,1566.979,483.17,1567.776,484.987Z" transform="translate(-1540.412 -479.712)" fill="#e58f07"/>
  <path id="Контур_1213" data-name="Контур 1213" d="M1650.612,544.64c-.407.071-.709.053-.718-.16a98.125,98.125,0,0,1,0-12.508.384.384,0,0,1,0-.044h.2a.891.891,0,0,1,.266,0h0C1650.923,533.108,1651.038,542.2,1650.612,544.64Z" transform="translate(-1550.231 -485.302)" fill="#6a6a69"/>
  <path id="Контур_1214" data-name="Контур 1214" d="M1569.661,498.24a2.349,2.349,0,0,1-2.1-2.181,2.11,2.11,0,1,1,4.219,0A2.411,2.411,0,0,1,1569.661,498.24Z" transform="translate(-1540.905 -480.99)" fill="#f0b673"/>
  <path id="Контур_1215" data-name="Контур 1215" d="M1567.54,491.71Z" transform="translate(-1540.902 -480.736)" fill="#f0b673"/>
  <path id="Контур_1216" data-name="Контур 1216" d="M1571.35,490.158c-.94,2.083-1.4,2.3-3.28,1.622h-.213l-.1-.044h0l-.1-.1h0l-.053-.1h0v-.08h0l-.062-.053h-.044v-.053h0v-.044h0l-.053-.089v-.053h0a.323.323,0,0,1,0-.08h0a1.384,1.384,0,0,1,0-.168h0a.431.431,0,0,0,0-.106v-.1a.691.691,0,0,1,0-.133.692.692,0,0,1,0-.133l.053-.417a.419.419,0,0,0,0-.106v-.31a1.773,1.773,0,0,1,2.1-1.3C1570.641,488.031,1570.987,489.139,1571.35,490.158Z" transform="translate(-1540.892 -480.345)" fill="#f0b673"/>
  <path id="Контур_1217" data-name="Контур 1217" d="M1569.384,501.378c-.727.966-1.321,2.021-2.721,1.551a1.994,1.994,0,0,1-1.463-1.826c-.089-1.463,1.126-1.729,2.012-2.243C1568.772,499.649,1568.772,499.649,1569.384,501.378Z" transform="translate(-1540.636 -481.548)" fill="#f0b673"/>
  <path id="Контур_1218" data-name="Контур 1218" d="M1564.74,503.929a1.773,1.773,0,1,1-.779-1.838A1.773,1.773,0,0,1,1564.74,503.929Z" transform="translate(-1540.186 -481.882)" fill="#f0b673"/>
  <path id="Контур_1219" data-name="Контур 1219" d="M1559.917,504.7a1.693,1.693,0,1,1-3.369-.133c0-1.055.461-1.463,1.56-1.454A1.773,1.773,0,0,1,1559.917,504.7Z" transform="translate(-1539.653 -482.03)" fill="#f0b673"/>
  <path id="Контур_1220" data-name="Контур 1220" d="M1554.005,504.422a2.038,2.038,0,0,1-1.675-1.711,1.994,1.994,0,0,1,1.6-1.862,1.773,1.773,0,0,1,.071,3.546Z" transform="translate(-1539.175 -481.774)" fill="#f0b673"/>
  <path id="Контур_1221" data-name="Контур 1221" d="M1567.54,491.71Z" transform="translate(-1540.902 -480.736)" fill="#e58f07"/>
  <path id="Контур_1222" data-name="Контур 1222" d="M1567.54,491.71Z" transform="translate(-1540.902 -480.736)" fill="#e58f07"/>
</svg>
