<svg id="roadstone" xmlns="http://www.w3.org/2000/svg" width="228.503" height="50.279" viewBox="0 0 228.503 50.279">
  <path id="Контур_1416" data-name="Контур 1416" d="M1644.276,411.775h-1.959l-.78-2.03h-3.546l-.736,2.03h-1.915l3.475-8.935h1.915Zm-3.315-3.546-1.232-3.315-1.214,3.315Z" transform="translate(-1579.228 -361.691)" fill="#fff"/>
  <path id="Контур_1417" data-name="Контур 1417" d="M1655.806,408.1l2.42.727a4.3,4.3,0,0,1-.771,1.7,3.323,3.323,0,0,1-1.294,1.028,4.9,4.9,0,0,1-1.977.355,5.714,5.714,0,0,1-2.384-.426,3.846,3.846,0,0,1-1.6-1.489,5.092,5.092,0,0,1-.665-2.73,4.646,4.646,0,0,1,1.179-3.413,4.494,4.494,0,0,1,3.333-1.188,4.574,4.574,0,0,1,2.659.683,4,4,0,0,1,1.427,2.1l-2.438.541a1.955,1.955,0,0,0-.266-.6,1.665,1.665,0,0,0-.567-.488,1.7,1.7,0,0,0-.744-.168,1.649,1.649,0,0,0-1.445.754,3.264,3.264,0,0,0-.373,1.773,3.353,3.353,0,0,0,.452,2.039,1.773,1.773,0,0,0,2.464.106,2.883,2.883,0,0,0,.585-1.3Z" transform="translate(-1580.839 -361.671)" fill="#fff"/>
  <path id="Контур_1418" data-name="Контур 1418" d="M1660.9,411.775v-8.935h4.6a6.455,6.455,0,0,1,1.95.222,2.093,2.093,0,0,1,1.1.816,2.456,2.456,0,0,1,.408,1.445,2.368,2.368,0,0,1-1.188,2.163,3.185,3.185,0,0,1-.966.346,2.733,2.733,0,0,1,.718.337,2.967,2.967,0,0,1,.443.47,3.993,3.993,0,0,1,.381.55l1.338,2.588h-3.12l-1.471-2.73a1.879,1.879,0,0,0-.505-.683,1.125,1.125,0,0,0-.674-.213h-.266v3.626Zm2.766-5.319h1.17a4.436,4.436,0,0,0,.727-.124.727.727,0,0,0,.452-.284.91.91,0,0,0-.106-1.179,1.6,1.6,0,0,0-1.028-.23h-1.232Z" transform="translate(-1582.13 -361.69)" fill="#fff"/>
  <path id="Контур_1419" data-name="Контур 1419" d="M1671.82,402.84h2.766v3.129h3.014V402.84h2.775v8.935H1677.6v-3.608h-3.014v3.608h-2.766Z" transform="translate(-1583.37 -361.691)" fill="#fff"/>
  <path id="Контур_1420" data-name="Контур 1420" d="M1693.129,408.476l1.773.55a3.916,3.916,0,0,1-1.338,2.172,3.786,3.786,0,0,1-2.376.718,3.83,3.83,0,0,1-2.925-1.223,4.645,4.645,0,0,1-1.144-3.324,4.875,4.875,0,0,1,1.153-3.466,3.926,3.926,0,0,1,3.031-1.232,3.706,3.706,0,0,1,2.66.966,3.547,3.547,0,0,1,.887,1.649l-1.773.426a1.843,1.843,0,0,0-1.888-1.5,2.057,2.057,0,0,0-1.614.709,3.545,3.545,0,0,0-.611,2.314,3.722,3.722,0,0,0,.6,2.411,1.969,1.969,0,0,0,1.587.727,1.834,1.834,0,0,0,1.241-.461A2.657,2.657,0,0,0,1693.129,408.476Z" transform="translate(-1585.106 -361.671)" fill="#fff"/>
  <path id="Контур_1421" data-name="Контур 1421" d="M1697.2,407.341a5.8,5.8,0,0,1,.408-2.287,4.436,4.436,0,0,1,.833-1.223,3.484,3.484,0,0,1,1.161-.807,4.8,4.8,0,0,1,1.924-.355,4.193,4.193,0,0,1,3.156,1.223,5.478,5.478,0,0,1,0,6.8,4.14,4.14,0,0,1-3.138,1.223,4.211,4.211,0,0,1-3.173-1.223,4.618,4.618,0,0,1-1.17-3.351Zm1.862-.053a3.323,3.323,0,0,0,.7,2.3,2.4,2.4,0,0,0,3.546,0,4.264,4.264,0,0,0,0-4.627,2.278,2.278,0,0,0-1.773-.753,2.3,2.3,0,0,0-1.773.762A3.422,3.422,0,0,0,1699.061,407.288Z" transform="translate(-1586.251 -361.671)" fill="#fff"/>
  <path id="Контур_1422" data-name="Контур 1422" d="M1708.54,411.775V402.84h2.659l1.622,6.1,1.6-6.1h2.659v8.935h-1.675v-7.021l-1.773,7.03h-1.773l-1.773-7.03v7.03Z" transform="translate(-1587.54 -361.691)" fill="#fff"/>
  <path id="Контур_1423" data-name="Контур 1423" d="M1720.3,411.774v-8.935h2.9a10.636,10.636,0,0,1,2.146.133,2.324,2.324,0,0,1,1.285.887,2.775,2.775,0,0,1,.514,1.773,2.953,2.953,0,0,1-.292,1.383,2.426,2.426,0,0,1-.762.887,2.722,2.722,0,0,1-.886.426,10.98,10.98,0,0,1-1.879.124h-1.17v3.368Zm1.773-7.42v2.535h.984a4.537,4.537,0,0,0,1.427-.142,1.268,1.268,0,0,0,.567-.434,1.25,1.25,0,0,0,.2-.7,1.144,1.144,0,0,0-.293-.807,1.25,1.25,0,0,0-.727-.39,8.083,8.083,0,0,0-1.294-.062Z" transform="translate(-1588.875 -361.69)" fill="#fff"/>
  <path id="Контур_1424" data-name="Контур 1424" d="M1736.594,411.775h-1.959l-.78-2.03h-3.546l-.745,2.03h-1.915l3.484-8.935h1.906Zm-3.324-3.546-1.232-3.315-1.206,3.315Z" transform="translate(-1589.71 -361.691)" fill="#fff"/>
  <path id="Контур_1425" data-name="Контур 1425" d="M1738.84,411.775V402.84h1.773l3.661,5.966V402.84h1.675v8.935h-1.773l-3.608-5.824v5.824Z" transform="translate(-1590.98 -361.691)" fill="#fff"/>
  <path id="Контур_1426" data-name="Контур 1426" d="M1751.221,411.775v-3.759l-3.271-5.177h2.11l2.1,3.546,2.065-3.546h2.074l-3.28,5.186v3.75Z" transform="translate(-1592.015 -361.691)" fill="#fff"/>
  <path id="Контур_1427" data-name="Контур 1427" d="M1615.955,356.48h-26.2a7.216,7.216,0,0,0-7.154,5.549c-.195.762-.346,1.542-.532,2.3q-3.989,16.049-7.978,32.09c-.753,3.049-1.374,6.134-2.048,9.21,0,.638.151,1.011.886.984,1.578-.053,3.165,0,4.743,0,1.436-4.512,2.322-9.157,3.484-13.74,2.154-8.554,4.184-17.135,6.3-25.707a4.432,4.432,0,0,1,4.432-3.6h20.681a8.116,8.116,0,0,1,1.675.1,2.376,2.376,0,0,1,1.773,2.659q-1.56,6.436-3.209,12.845a4.113,4.113,0,0,1-3.395,3.218c-2.154.47-4.3.168-6.453.257s-2.562.31-3.049,2.252q-1.33,5.5-2.659,11.036c-.443,1.888-.2,2.2,1.844,2.207h14.422a7.874,7.874,0,0,0,1-.124l1.773-7.163H1605.14c-.213-1.17.3-1.365,1.055-1.356h5.053a6.889,6.889,0,0,0,2.34-.355c2.66-.886,3.883-2.978,4.494-5.452,1.542-6.205,2.828-12.41,4.512-18.615a6.95,6.95,0,0,0-6.639-8.6Z" transform="translate(-1572.04 -356.427)" fill="#0a416d"/>
  <path id="Контур_1428" data-name="Контур 1428" d="M1613.144,400.954h-11.763a15.455,15.455,0,0,1-1.924,0c-2.456-.319-3.289-1.569-2.659-3.962.886-3.546,1.773-7.012,2.659-10.522.816-3.262,1.711-4.069,5.009-4.361.549-.053,1.117,0,1.675,0h3.608a2.659,2.659,0,0,0,2.713-1.9,10.368,10.368,0,0,0,.434-1.347c.789-3.209,1.6-6.409,2.322-9.627.222-.966.559-2.012-.195-2.952a6.192,6.192,0,0,0-.727-.124c-6.968,0-13.926,0-20.894-.071-2.039,0-3.032.629-3.6,2.961-2.34,9.547-4.76,19.076-7.092,28.623-.771,3.129-1.4,6.294-2.092,9.45.124.594.558.638,1.064.629h4.7c.284-1.055.594-2.11.886-3.182,1.551-6.338,3.076-12.685,4.627-19.023q1.17-4.813,2.393-9.6c.417-1.684.887-2.083,2.66-2.1h9.848a.886.886,0,0,1,.886.355c0,.975-.727,1.046-1.489,1.037h-4.8a6.064,6.064,0,0,0-2.97.753c-2.411,1.232-3.466,3.4-4.069,5.833q-2.455,9.964-4.831,19.945a9.856,9.856,0,0,0-.186,2.606c.089,2.012.745,2.73,2.925,3.422h21.159a30.663,30.663,0,0,0,1.578-6.444A2.323,2.323,0,0,0,1613.144,400.954Z" transform="translate(-1573.015 -357.518)" fill="#0a416d"/>
  <path id="Контур_1429" data-name="Контур 1429" d="M1701.57,367.483a3.972,3.972,0,0,0-3.918-4c-4.556-.089-9.113,0-13.722,0-.239,1-.461,1.879-.718,2.952h12.136c2.287,0,2.979.886,2.473,3.111-.727,3.156-1.427,6.3-2.19,9.45-.638,2.659-1.347,5.319-2.039,7.978-3.111,0-6.072.044-9.033,0a2.047,2.047,0,0,1-2.065-2.73c.39-1.693.886-3.36,1.232-5.062.5-2.58,1.879-4.157,5.195-4.078,2.065.044,4.131,0,6.258,0,.541-2.349,1.472-4.432,1.365-6.764,0-.541-.443-.488-.8-.523-1.906-.106-3.8-.328-5.7-.292-2.278.053-4.583-.4-6.834.257-.62.142-.461.612-.452,1.028,0,.6-.727,1.073-.248,1.87h4.964c1.676,0,3.307-.266,4.893.213.1.753,0,1.241-.8,1.232-1.445,0-2.89-.053-4.326,0a6.533,6.533,0,0,0-5.319,2.775,10.45,10.45,0,0,0-1.773,4.086c-.479,2.234-1.418,4.379-1.294,6.719a4.3,4.3,0,0,0,4.645,4.264c2-.115,4.007-.044,6.01-.053h6.844a2.986,2.986,0,0,0,.31-.541c1.454-5.966,2.881-11.949,4.37-17.906a12.662,12.662,0,0,0,.531-3.989Z" transform="translate(-1584.168 -357.218)" fill="#0a416d"/>
  <path id="Контур_1430" data-name="Контур 1430" d="M1725.793,361.287a21.166,21.166,0,0,0,.984-4.689h-3.3a6.666,6.666,0,0,0-.426.887q-2.509,10.336-5,20.654c-.381,1.6-.665,3.236-1.117,4.822-.656,2.3-1.773,3.094-4.157,3.129h-5.044c-1.675,0-2.314-.78-2.252-2.385a7.573,7.573,0,0,1,.168-1.418q1.64-6.648,3.3-13.3c.629-2.535,1.773-3.413,4.37-3.439h6.5l2.189-9.13c-1.392.124-2.491-.133-3.643.239-.488,1.924-.975,3.812-1.525,5.922h-4.8a5.824,5.824,0,0,0-4.264,1.826,9.813,9.813,0,0,0-2.606,4.982c-1.117,4.432-2.092,8.865-3.182,13.3a5.953,5.953,0,0,0-.2,2.11c.319,2.757,2.278,4.388,4.539,4.264,2.553-.133,5.124-.044,7.685,0a5.664,5.664,0,0,0,4.246-1.87,8.588,8.588,0,0,0,2.26-4.1C1722.274,375.833,1724.056,368.564,1725.793,361.287Z" transform="translate(-1586.771 -356.42)" fill="#0a416d"/>
  <path id="Контур_1431" data-name="Контур 1431" d="M1823.522,363.525a72.367,72.367,0,0,0-10.558,0,6.117,6.117,0,0,0-3.971,2.775,9.365,9.365,0,0,0-1.383,3.236q-1.622,6.755-3.236,13.5a9.28,9.28,0,0,0,0,3.794c.39,1.117.886,2.172,2.189,2.464.248.479.683.47,1.135.417,4.485.23,8.971.115,13.456.062a.718.718,0,0,0,.7-.479l.683-2.163a2.873,2.873,0,0,0-1.915-.257c-3.333,0-6.666-.062-10,0-1.312,0-2.331-.257-2.952-1.48v-1.427a4.749,4.749,0,0,0,.408-.886c1.01-4.211,2.056-8.412,2.969-12.65.434-2.021,1.321-3.546,3.377-4.211l7.677.1c1.276.966,1.214,2.287.886,3.617-.363,1.587-.886,3.138-1.214,4.734a4.335,4.335,0,0,1-2.66,3.324c-2.42.337-4.858.062-7.3.177-.47,0-1.153-.337-1.33.505a19.376,19.376,0,0,0-1.445,6.764c4.672.665,9.157.23,13.7.284.257-1.152.461-2.083.7-3.138h-5.239a29.5,29.5,0,0,1-5.15-.16c.151-.532.257-.886.372-1.285l6.205-.16c3.094-.594,4.7-2.766,5.6-5.469a49.5,49.5,0,0,0,1.551-6.6C1827.281,366.335,1826.129,364.536,1823.522,363.525Z" transform="translate(-1598.399 -357.205)" fill="#0a416d"/>
  <path id="Контур_1432" data-name="Контур 1432" d="M1678.634,368.089a4.432,4.432,0,0,0-4.583-4.689h-8.865a6.205,6.205,0,0,0-5.319,3.04,11.116,11.116,0,0,0-1.427,3.475c-1.09,4.432-2.145,8.864-3.227,13.3a8.544,8.544,0,0,0-.168,2.6,4.024,4.024,0,0,0,4.1,4.051c1.6.062,3.2,0,4.8,0h4.8a5.85,5.85,0,0,0,4.645-2.509,9.664,9.664,0,0,0,1.773-3.829c.886-4,1.932-7.978,2.863-11.923a13.875,13.875,0,0,0,.6-3.51Zm-3.883,1.33q-1.25,5.629-2.659,11.223c-.257.984-.319,2-.665,2.987-.833,2.4-1.773,3.236-4.282,3.28h-6.232c-1.915-.062-2.8-1.117-2.376-2.925.807-3.439,1.675-6.861,2.535-10.292.363-1.445.7-2.9,1.144-4.326.674-2.154,1.773-2.97,3.971-3s4.158,0,6.205,0S1675.213,367.38,1674.752,369.419Z" transform="translate(-1581.462 -357.212)" fill="#0a416d"/>
  <path id="Контур_1433" data-name="Контур 1433" d="M1781,369.253a4.485,4.485,0,0,0-4.494-5.806c-2.961-.053-5.93,0-8.865,0a5.931,5.931,0,0,0-2.943.842,7.632,7.632,0,0,0-3.616,5.1c-1.064,4.122-1.941,8.288-3,12.41a13.409,13.409,0,0,0-.488,4.22,3.891,3.891,0,0,0,3.989,3.892c1.6.071,3.2,0,4.8,0h0c1.365,0,2.73-.053,4.087,0,2.819.133,4.636-1.33,6.037-3.546a10.39,10.39,0,0,0,1.205-3.076Q1779.33,376.212,1781,369.253Zm-3.723.585c-.514,2.225-1.135,4.432-1.667,6.631-.576,2.376-1.117,4.76-1.666,7.145a3.776,3.776,0,0,1-3.98,3.333h-6.737a2.023,2.023,0,0,1-2.189-2.447,4.332,4.332,0,0,1,.089-.957q1.649-6.755,3.316-13.509c.558-2.3,2.012-3.892,4.769-3.652,1.773.151,3.546,0,5.319,0,2.429,0,3.262.993,2.7,3.413Z" transform="translate(-1593.109 -357.215)" fill="#0a416d"/>
  <path id="Контур_1434" data-name="Контур 1434" d="M1799.562,386.26c.665-2.748,1.312-5.5,1.959-8.262.718-3.067,1.6-6.108,2.065-9.21s-1.206-5.319-3.927-5.363c-4.432-.08-8.935,0-13.554,0-2.1,8.749-4.166,17.383-6.205,26.017a.406.406,0,0,0,.1.2.581.581,0,0,0,.133.151h3.271l5.691-23.411h8.049c2.517,0,3.4,1.037,2.837,3.4-.656,2.757-1.471,5.469-2.083,8.235a60.629,60.629,0,0,0-1.693,7.827c-.674.541-.425,1.3-.5,1.995-.621.647-.461,1.48-.727,2.216.452.089.674.062.807-.2h.887c1.392.488,1.551.452,1.977-.523.629-.532.425-1.259.461-1.932a8.442,8.442,0,0,0,.452-1.135Z" transform="translate(-1595.643 -357.211)" fill="#0a416d"/>
  <path id="Контур_1435" data-name="Контур 1435" d="M1790.667,367.99c-1.835,7.588-3.626,15.07-5.487,22.711,1.463-.2,2.659.257,3.75-.417q2.331-9.556,4.6-18.952c.647-.213,1.1-.3,1.516.355-1.117,6.205-3.147,12.348-4.219,18.766a5.425,5.425,0,0,0,3.493-.142c1.711-7.2,3.643-14.334,5.177-21.851C1796.349,367.555,1793.593,368.052,1790.667,367.99Z" transform="translate(-1596.242 -357.725)" fill="#0a416d"/>
  <path id="Контур_1436" data-name="Контур 1436" d="M1710.754,370.774c-1.117,4.494-2.163,9.006-3.218,13.518-.337,1.445.106,1.995,1.631,2.057,1.356.062,2.713.053,4.069,0,1.924-.08,2.66-.683,3.112-2.6.815-3.28,1.6-6.569,2.4-9.848.47-1.9.975-3.785,1.542-5.984h-5.877C1712.066,367.991,1711.339,368.452,1710.754,370.774Zm5.071.425c-.887,3.741-1.773,7.287-2.659,10.832-.168.647-.443,1.418-1.383.993-.6-.816.071-1.427.213-2.074.594-2.828,1.3-5.629,1.924-8.457C1714.141,371.608,1714.486,371.023,1715.825,371.2Z" transform="translate(-1587.414 -357.726)" fill="#0a416d"/>
  <path id="Контур_1437" data-name="Контур 1437" d="M1736.7,372.74c-.222-.461-.656-.886-.195-1.6h5.318c.886-.975.612-2.119,1.179-3.218-2.845,0-5.407-.062-7.978,0s-3.475,1.773-2.571,4.042c.2.514.479,1,.718,1.5,1.33,2.775,2.535,5.611,4.016,8.306a3.865,3.865,0,0,1-3.475,5.682c-2.234-.106-4.477-.044-6.719-.053h-3.36c-.62,0-.833.355-.736.931s-.727,1.268-.408,2.092a3.107,3.107,0,0,0,.647.142h10.336a11.263,11.263,0,0,0,2.331-.417c4.592-1.507,6.427-5.735,4.432-10.212C1739.067,377.553,1737.862,375.16,1736.7,372.74Z" transform="translate(-1589.115 -357.723)" fill="#0a416d"/>
  <path id="Контур_1438" data-name="Контур 1438" d="M1750.272,387.427c-2.216,0-2.721-.523-2.393-2.748.275-1.862.816-3.679,1.25-5.523l2.659-11.116h-5.194c-.195.975-.887,1.835-.541,3.014.381.186.975-.089,1.285.39-1.028,4.264-2.074,8.537-3.094,12.818-.62,2.659.168,4.326,2.659,5.886a4.885,4.885,0,0,0,2.394.186h2.384a3.111,3.111,0,0,0,1.9-.177c.045-.39.089-.833.142-1.285.47-.337.408-.8.257-1.436C1752.8,387.436,1751.531,387.453,1750.272,387.427Z" transform="translate(-1591.571 -357.739)" fill="#0a416d"/>
  <path id="Контур_1439" data-name="Контур 1439" d="M1644.276,363.486l-6.587,26.762c1.41-.372,2.606.186,3.768-.532,2.136-8.687,4.281-17.357,6.462-26.177a12.244,12.244,0,0,0-3.644-.053Z" transform="translate(-1579.495 -357.21)" fill="#0a416d"/>
  <path id="Контур_1440" data-name="Контур 1440" d="M1655.512,370.955a4,4,0,0,0,.541-2.89c-5.5-.31-7.4,1.427-8.678,5.656-.089.3-.275.576-.346.887-1.277,5.274-2.544,10.549-3.838,15.956,1.25,0,2.42.284,3.608-.266.222-.886.434-1.826.665-2.739,1.117-4.432,2.172-8.865,3.4-13.3.727-2.6,1.516-3.049,4.281-3.165a1.038,1.038,0,0,0,.373-.142Z" transform="translate(-1580.119 -357.738)" fill="#0a416d"/>
  <path id="Контур_1441" data-name="Контур 1441" d="M1753.876,382.744c1.028-3.8,1.675-7.8,2.907-11.524.886-.23,1.534.1,2.287-.505-.284-.824.505-1.6.426-2.615a6.152,6.152,0,0,0-2.6-.168c-3.129,0-3.156,0-3.865,2.872q-1.684,6.879-3.3,13.758c-.31,1.294,0,1.72,1.348,1.773s2.659,0,4.007,0c.2-1.09.886-1.906.612-2.89C1755.276,382.877,1754.39,383.444,1753.876,382.744Z" transform="translate(-1592.204 -357.719)" fill="#0a416d"/>
  <path id="Контур_1442" data-name="Контур 1442" d="M1760.65,365.45a6.661,6.661,0,0,1,.426-2.518c-.532-.647-1.339,0-1.915-.7.053-1.773,1.09-3.6,1.037-5.656a11.658,11.658,0,0,0-3.466.053l-2.092,8.865Z" transform="translate(-1592.774 -356.426)" fill="#0a416d"/>
  <path id="Контур_1443" data-name="Контур 1443" d="M1747.361,365.495h5.079c.718-2.97,1.427-5.851,2.163-8.865H1751c-.514,2.048-.993,3.936-1.436,5.709-.541.523-1.223,0-1.773.62C1747.919,363.739,1747.033,364.493,1747.361,365.495Z" transform="translate(-1591.939 -356.444)" fill="#0a416d"/>
  <path id="Контур_1444" data-name="Контур 1444" d="M1653.458,366.309l1.906-.053c.692,0,1.427.257,2.092-.275a4.752,4.752,0,0,0,.4-2.429,5.79,5.79,0,0,0-3.652.355c-1.126-.957-2.385-.426-3.838-.443-.2,1.773-1.046,3.368-1.143,5.478A7.427,7.427,0,0,1,1653.458,366.309Z" transform="translate(-1580.804 -357.205)" fill="#0a416d"/>
  <path id="Контур_1445" data-name="Контур 1445" d="M1819.553,377.285a2.659,2.659,0,0,0,1.906-2.172c.426-1.773.815-3.546,1.179-5.266.248-1.188-.177-1.844-1.374-1.9a47,47,0,0,0-5.239,0,2.81,2.81,0,0,0-2.739,2.491c-.408,1.986-.887,3.962-1.356,5.939-.142.488-.186.993.514.984A63.4,63.4,0,0,0,1819.553,377.285Zm-2.66-5.948a1.312,1.312,0,0,1,1.622.133,6.9,6.9,0,0,1-.887,2.978H1816.2a5.7,5.7,0,0,1,.727-3.111Z" transform="translate(-1599.27 -357.721)" fill="#0a416d"/>
  <path id="Контур_1446" data-name="Контур 1446" d="M1687.719,378.131a2.465,2.465,0,0,0-1.853,1.684c-.62,2.26-1.09,4.565-1.667,7.038,3.076,1.241,6.063.425,9.068.621.736-3.156,1.409-6.063,2.083-8.962,0-.239-.053-.488-.337-.488C1692.577,378.052,1690.148,377.866,1687.719,378.131Zm2.73,5.9a1.836,1.836,0,0,1-1.525.2c-.47-.656-.195-1.3,0-1.977.3-.949.78-1.525,2.012-1.17C1691.2,382.289,1690.476,383.14,1690.45,384.035Z" transform="translate(-1584.776 -358.869)" fill="#0a416d"/>
  <path id="Контур_1447" data-name="Контур 1447" d="M1727.725,369.694v.948l.106,1.418a26.806,26.806,0,0,0,2.163,4.973c.824,1.773,1.649,3.617,2.58,5.673h-8.138c-.691,1-.594,2.039-1.046,3.147,3.546,0,6.95.08,10.3,0,2.34-.08,3.324-1.773,2.464-4-.2-.514-.479-1-.718-1.5q-1.941-4.069-3.865-8.138a5.164,5.164,0,0,1-.541-1.56c-.284-2.314,1.019-3.546,2.952-4.326l8.3.062c.381,0,.807.071.886-.488.089-.337.452-.567.346-.975a1.586,1.586,0,0,0-.124-1.534c-3.546.168-7.171-.2-10.815.2-2.659.5-3.989,2.3-4.707,4.707a2.591,2.591,0,0,0-.142,1.383Z" transform="translate(-1589.226 -357.213)" fill="#0a416d"/>
  <path id="Контур_1448" data-name="Контур 1448" d="M1672.779,368.2c-1.994-.062-3.989-.053-5.992,0-1.7,0-2.553.816-2.96,2.491-.6,2.518-1.312,5.008-1.826,7.535a70.928,70.928,0,0,0-1.56,7.366,3.067,3.067,0,0,0,2.438.807h4.308c2.349-.044,3.1-.567,3.679-2.872,1.117-4.494,2.154-9.006,3.2-13.509C1674.384,368.63,1674.118,368.24,1672.779,368.2Zm-5.4,14.689a3.679,3.679,0,0,1-2.659.124c.771-4,1.693-7.845,2.783-11.586a3.972,3.972,0,0,1,2.659-.115Q1668.72,377.255,1667.381,382.893Z" transform="translate(-1582.078 -357.753)" fill="#0a416d"/>
  <path id="Контур_1449" data-name="Контур 1449" d="M1769.556,368.189c-2.278,0-2.66.381-3.227,2.659-.887,3.546-1.826,7.021-2.606,10.549-.31,1.427-1.037,2.837-.647,4.494a4.289,4.289,0,0,0,1.294.5,61.045,61.045,0,0,0,6.205,0,2.713,2.713,0,0,0,2.58-2.376c.886-3.989,1.9-7.978,2.854-11.941a5.966,5.966,0,0,0,.257-3.838C1774.015,368.189,1771.79,368.162,1769.556,368.189Zm.266,14.715a4.158,4.158,0,0,1-2.8.124c.948-3.936,1.861-7.756,2.775-11.524.886-.567,1.773-.257,2.845-.3-.993,4.087-1.915,7.951-2.819,11.7Z" transform="translate(-1593.72 -357.755)" fill="#0a416d"/>
</svg>
