<svg id="tobermore" xmlns="http://www.w3.org/2000/svg" width="223.158" height="50.031" viewBox="0 0 223.158 50.031">
  <path id="Контур_1379" data-name="Контур 1379" d="M955.372,752.984v27.01l-8.554-7.925V758.444L938.84,764.7V751.495c1.879.948,3.1,2.659,4.636,4,1.028.886,1.994,1.853,2.987,2.792l.39-.186V745.05C949.832,747.488,952.456,750.324,955.372,752.984Z" transform="translate(-938.813 -729.98)" fill="#d00b11"/>
  <path id="Контур_1380" data-name="Контур 1380" d="M946.824,745.047V758.1l-.39.186c-.993-.94-1.959-1.9-2.987-2.792-1.534-1.347-2.757-3.049-4.636-4v-.408c2.074-1.667,4.131-3.368,6.205-4.991C945.583,745.685,945.928,744.879,946.824,745.047Z" transform="translate(-938.81 -729.978)"/>
  <path id="Контур_1381" data-name="Контур 1381" d="M1121.153,780.68a24.549,24.549,0,0,1-3.989.1v-7.092c0-1.6,0-3.209-.071-4.8-.2-2.978-1.773-4.485-4.512-4.53-2.952-.053-5.248,1.72-5.585,4.379a63.265,63.265,0,0,0-.142,6.985c0,1.649,0,3.306,0,5.035h-3.829a19.694,19.694,0,0,1-.16-4.149c-.071-2.526.062-5.053-.133-7.579-.239-3.182-1.392-4.565-4.051-4.636-3.1-.089-5.469,1.817-5.6,4.751-.151,3.4-.08,6.8-.106,10.194v1.409h-4.042V761.063h3.865c.452.886,0,2.012.275,3.085,4.326-5.062,10.637-4.335,13.2.177.647-.257.984-.886,1.454-1.294a8.67,8.67,0,0,1,8.182-2.136,6.542,6.542,0,0,1,5.195,6.134C1121.277,771.541,1121.153,776.07,1121.153,780.68Z" transform="translate(-955.856 -731.748)" fill="#fff"/>
  <path id="Контур_1382" data-name="Контур 1382" d="M1042.245,765.282c-2.721-6.205-11.524-7.508-14.786-2.349-.089.142-.328.213-.709,0V752.34h-3.909v27.48h3.767c.443-.886-.071-1.773.346-2.553.629-.062.824.461,1.17.736a8.842,8.842,0,0,0,13.589-2.517,10.815,10.815,0,0,0,.532-10.2Zm-7.26,11.027a5.966,5.966,0,0,1-6.586-1.64,7.313,7.313,0,0,1-.842-8.067,5.939,5.939,0,0,1,6.905-3.138,6.657,6.657,0,0,1,4.716,6.666A6.267,6.267,0,0,1,1034.984,776.31Z" transform="translate(-948.352 -730.808)" fill="#fff"/>
  <path id="Контур_1383" data-name="Контур 1383" d="M1068.285,769.477a8.306,8.306,0,0,0-5.009-7.774c-6.6-3.182-15.336.948-14.839,9.751a9.751,9.751,0,0,0,6.657,9.06c3.182,1.143,9.334.434,11.621-2.846-.789-.665-1.25-1.675-2.234-2.181-2.181,2.438-6.453,2.6-8.581,1.622-1.826-.833-3.324-1.941-3.377-4.432h15.77C1068.294,771.472,1068.312,770.47,1068.285,769.477Zm-15.681.053c-.736-2.89,2.783-5.372,5.877-5.407a5.188,5.188,0,0,1,5.629,5.407Z" transform="translate(-951.256 -731.75)" fill="#fff"/>
  <path id="Контур_1384" data-name="Контур 1384" d="M1187.953,768.731a8.111,8.111,0,0,0-3.714-6.312,10.718,10.718,0,0,0-11.887,0c-3.546,2.42-4.955,6.3-3.821,11.347a8.811,8.811,0,0,0,7.029,6.914,11.285,11.285,0,0,0,11-2.917,20.165,20.165,0,0,0-2.314-2.3,7.978,7.978,0,0,1-8.43,1.684,4.778,4.778,0,0,1-3.643-4.432h15.8C1187.971,771.231,1188.068,769.972,1187.953,768.731Zm-4.29.789h-11.524a5.735,5.735,0,0,1,6.391-5.4c3.306.222,5.345,2.314,5.132,5.4Z" transform="translate(-964.851 -731.748)" fill="#fff"/>
  <path id="Контур_1385" data-name="Контур 1385" d="M1138.849,760.76c-6.116,0-10.531,4.237-10.549,10.123a10.106,10.106,0,0,0,10.469,10.256,10.194,10.194,0,1,0,.08-20.379Zm0,16.842a6.382,6.382,0,0,1-6.551-6.8c.133-3.785,2.73-6.471,6.453-6.445a6.631,6.631,0,0,1,.1,13.243Z" transform="translate(-960.326 -731.764)" fill="#fff"/>
  <path id="Контур_1386" data-name="Контур 1386" d="M1006.637,760.75c-6.054,0-10.637,4.361-10.637,10.159a10.522,10.522,0,1,0,10.637-10.159Zm-.115,16.843a6.382,6.382,0,0,1-6.471-6.693,6.46,6.46,0,1,1,12.916-.026,6.409,6.409,0,0,1-6.48,6.764Z" transform="translate(-945.303 -731.763)" fill="#fff"/>
  <path id="Контур_1387" data-name="Контур 1387" d="M995.819,757.785h-7.978v21.984l-4.273-3.891V757.883H975.59V754H995.7A25.1,25.1,0,0,1,995.819,757.785Z" transform="translate(-942.986 -730.997)" fill="#fff"/>
  <path id="Контур_1388" data-name="Контур 1388" d="M1084.3,764.746c-2.349.133-4.255.824-5.425,2.766a9.689,9.689,0,0,0-1.2,5.186v8.191h-3.892V761.2c1.144-.47,2.411-.124,3.688-.23.514,1.152,0,2.385.417,3.794,1.675-2.119,3.369-3.865,6.205-3.954C1084.481,762.113,1084.188,763.4,1084.3,764.746Z" transform="translate(-954.137 -731.77)" fill="#fff"/>
  <path id="Контур_1389" data-name="Контур 1389" d="M969.22,728.05V741.6a29.851,29.851,0,0,1-3.635,2.908l-7.686-6.95c.4-1,1.392-1.383,2.136-2C963,733.076,965.967,730.665,969.22,728.05Z" transform="translate(-940.978 -728.05)" fill="#d00b11"/>
  <path id="Контур_1390" data-name="Контур 1390" d="M1165.664,764.524c-.16.133-.257.284-.355.284-4,.106-6.046,3.032-6.125,6.764-.062,3.058,0,6.108,0,9.272h-3.954v-19.75h3.98v3.865c1.773-2.384,3.546-4.051,6.312-4.149a14.587,14.587,0,0,1,.142,3.714Z" transform="translate(-963.385 -731.77)" fill="#fff"/>
  <path id="Контур_1391" data-name="Контур 1391" d="M965.586,745.72c-2.34,2.252-5.009,4.113-7.686,6.391V738.77Z" transform="translate(-940.978 -729.267)"/>
</svg>
