<svg id="wienerberge" xmlns="http://www.w3.org/2000/svg" width="252.41" height="81.546" viewBox="0 0 252.41 81.546">
  <path id="polygon8" d="M365.962,54.5l7.437-7.459v18.8L365.962,73.3Z" transform="translate(-235.613 -30.285)" fill="#c11d06"/>
  <path id="polygon10" d="M279.392,75.1l7.436-7.46V79.1l-7.436,7.46Z" transform="translate(-179.878 -43.546)" fill="#c11d06"/>
  <path id="polygon12" d="M304.829,39.927l9.276-9.2V53.6l-9.276,9.2Z" transform="translate(-196.254 -19.785)" fill="#c11d06"/>
  <path id="polygon14" d="M335.371,9.275,344.647,0V33.737l-9.276,9.275Z" transform="translate(-215.918)" fill="#c11d06"/>
  <path id="polygon16" d="M35,135.422H27.415l-3.342,14.721H24l-3.343-14.721H14.308l-3.417,14.721h-.076L7.549,135.422H0l6.723,26.814h7.51l3.193-14.083H17.5l3.268,14.083h7.285Z" transform="translate(0 -87.187)" fill="#fff"/>
  <path id="path18" d="M100.381,162.236h7.436V142.745h-7.436v19.491Zm7.436-26.814h-7.436v5.22h7.436v-5.22Z" transform="translate(-64.627 -87.187)" fill="#fff" fill-rule="evenodd"/>
  <path id="path20" d="M134.083,162.648a3.526,3.526,0,0,1,3.831-3.267,3.2,3.2,0,0,1,3.267,3.267Zm14.233,3.868c0-7.586-3.342-11.9-11.079-11.9a10.005,10.005,0,0,0-10.29,10.29c0,6.5,4.694,10.178,10.928,10.178,4.431,0,8.525-1.953,10.027-6.159h-6.948a3.723,3.723,0,0,1-3.117,1.389c-2.328,0-3.606-1.577-3.793-3.793Z" transform="translate(-81.731 -99.542)" fill="#fff" fill-rule="evenodd"/>
  <path id="path22" d="M192.957,174.59h7.437V164.3c0-3.117,1.69-3.756,2.966-3.756,2.178,0,2.441,1.578,2.441,3.83V174.59h7.436V161.221c0-4.47-3.192-6.61-6.686-6.61-2.967,0-4.957,1.014-6.346,2.966h-.075V155.1h-7.174V174.59Z" transform="translate(-124.229 -99.542)" fill="#fff"/>
  <path id="path24" d="M262.366,162.648a3.525,3.525,0,0,1,3.83-3.267,3.2,3.2,0,0,1,3.268,3.267Zm14.233,3.868c0-7.586-3.343-11.9-11.079-11.9a10.005,10.005,0,0,0-10.289,10.29c0,6.5,4.694,10.178,10.928,10.178,4.432,0,8.525-1.953,10.027-6.159h-6.948a3.722,3.722,0,0,1-3.117,1.389c-2.328,0-3.6-1.577-3.793-3.793Z" transform="translate(-164.322 -99.542)" fill="#fff" fill-rule="evenodd"/>
  <path id="path26" d="M320.358,174.591h7.436v-7.7c0-4.169,1.578-5.9,4.507-5.9a6.258,6.258,0,0,1,2.516.375V154.8a5.322,5.322,0,0,0-1.766-.188c-2.7,0-4.281,1.277-5.483,3.606h-.075V155.1h-7.136v19.491Z" transform="translate(-206.252 -99.542)" fill="#fff"/>
  <path id="path28" d="M379.67,152.472c0,2.328-.6,4.845-3.267,4.845s-3.267-2.517-3.267-4.845c0-2.292.6-4.807,3.267-4.807s3.267,2.515,3.267,4.807Zm-13.708,9.764h7.174V160.1h.075c.939,1.239,2.065,2.629,5.708,2.629,5.521,0,8.187-5.445,8.187-10.328,0-4.582-1.765-10.139-8.3-10.139a6.365,6.365,0,0,0-5.333,2.629H373.4v-9.464h-7.437v26.814Z" transform="translate(-235.612 -87.187)" fill="#fff" fill-rule="evenodd"/>
  <path id="path30" d="M436.514,162.648a3.525,3.525,0,0,1,3.83-3.267,3.2,3.2,0,0,1,3.267,3.267Zm14.233,3.868c0-7.586-3.343-11.9-11.079-11.9a10.006,10.006,0,0,0-10.29,10.29c0,6.5,4.694,10.178,10.928,10.178,4.432,0,8.526-1.953,10.027-6.159h-6.948a3.722,3.722,0,0,1-3.117,1.389c-2.328,0-3.605-1.577-3.793-3.793Z" transform="translate(-276.441 -99.542)" fill="#fff" fill-rule="evenodd"/>
  <path id="path32" d="M494.725,174.591h7.436v-7.7c0-4.169,1.578-5.9,4.506-5.9a6.257,6.257,0,0,1,2.516.375V154.8a5.319,5.319,0,0,0-1.765-.188c-2.7,0-4.281,1.277-5.483,3.606h-.076V155.1h-7.135v19.491Z" transform="translate(-318.513 -99.542)" fill="#fff"/>
  <path id="path34" d="M545.762,163.887c0-2.065,1.052-3.868,3.155-3.868,2.177,0,3.23,1.69,3.23,3.83,0,2.178-.3,4.506-3.042,4.506-2.667,0-3.343-2.253-3.343-4.469ZM559.4,155.1H551.96v2.366h-.076c-.863-1.991-2.929-2.854-5.107-2.854-5.558,0-8.45,4.244-8.45,9.313,0,5.22,2.591,9.2,8.336,9.2a6.133,6.133,0,0,0,5.22-2.7h.076v1.8c0,1.615-.526,4.469-2.93,4.469a2.275,2.275,0,0,1-2.591-2.1h-7.36c.676,5.259,5.558,6.5,10.177,6.5,9.126,0,10.14-5.445,10.14-9.314V155.1Z" transform="translate(-346.585 -99.542)" fill="#fff" fill-rule="evenodd"/>
  <path id="path36" d="M609.965,162.648a3.525,3.525,0,0,1,3.83-3.267,3.2,3.2,0,0,1,3.268,3.267Zm14.233,3.868c0-7.586-3.343-11.9-11.079-11.9a10.005,10.005,0,0,0-10.291,10.29c0,6.5,4.694,10.178,10.929,10.178,4.43,0,8.524-1.953,10.027-6.159h-6.948a3.724,3.724,0,0,1-3.117,1.389c-2.329,0-3.606-1.577-3.793-3.793Z" transform="translate(-388.113 -99.542)" fill="#fff" fill-rule="evenodd"/>
  <path id="path38" d="M668.063,174.591H675.5v-7.7c0-4.169,1.578-5.9,4.506-5.9a6.259,6.259,0,0,1,2.516.375V154.8a5.322,5.322,0,0,0-1.765-.188c-2.7,0-4.281,1.277-5.483,3.606H675.2V155.1h-7.135v19.491Z" transform="translate(-430.111 -99.542)" fill="#fff"/>
</svg>
